SplineFontDB: 3.2
FontName: LibertinusSans-Bold
FullName: Libertinus Sans Bold
FamilyName: Libertinus Sans
Weight: Bold
UComments: "2003-08-29: Created.+AAoA-2004-07-25: v(1.0) release candidate+AAoA-2005-12-28: v(1.1.0) stable+AAoA-2006-01-01: v(2.0.0) stable+AAoA-2006-09-05: v(2.2.0) stable+AAoA-2006-12-04: v(2.3.0) stable+AAoA-2007-03-11: v(2.4.0) stable+AAoA-2007-12-00: v(2.7.0) stable+AAoA-2008-06-00: v(2.8.14) stable+AAoA"
Version: 1.3.2
ItalicAngle: 0
UnderlinePosition: -98
UnderlineWidth: 40
Ascent: 754
Descent: 246
InvalidEm: 0
LayerCount: 2
Layer: 0 0 "Back" 1
Layer: 1 0 "Fore" 0
XUID: [1021 993 1524925707 2876416]
FSType: 0
OS2Version: 0
OS2_WeightWidthSlopeOnly: 0
OS2_UseTypoMetrics: 1
CreationTime: 1156455862
PfmFamily: 33
TTFWeight: 700
TTFWidth: 5
LineGap: 0
VLineGap: 0
OS2TypoAscent: 894
OS2TypoAOffset: 0
OS2TypoDescent: -246
OS2TypoDOffset: 0
OS2TypoLinegap: 0
OS2WinAscent: 894
OS2WinAOffset: 0
OS2WinDescent: 246
OS2WinDOffset: 0
HheadAscent: 894
HheadAOffset: 0
HheadDescent: -246
HheadDOffset: 0
OS2CapHeight: 645
OS2XHeight: 429
OS2FamilyClass: 2050
OS2Vendor: 'QUE '
Lookup: 258 0 0 "'kern' Smallcap kerning" { "'kern' Small Caps" [150,15,4] } ['kern' ('DFLT' <'dflt' > 'grek' <'dflt' > 'latn' <'AZE ' 'CRT ' 'TRK ' 'dflt' > ) ]
Lookup: 258 0 0 "'kern' Cyrillic kerning" { "'kern' Cyrillic Kerning" [150,0,6] } ['kern' ('DFLT' <'dflt' > 'cyrl' <'dflt' > ) ]
Lookup: 258 0 0 "'kern' Greek kerning" { "'kern' Greek Kerning" [150,0,6] } ['kern' ('DFLT' <'dflt' > 'grek' <'dflt' > ) ]
Lookup: 257 0 0 "'cpsp' Versalabstaende" { "'cpsp' Versalabstaende 1"  } ['cpsp' ('DFLT' <'dflt' > 'cyrl' <'dflt' > 'grek' <'dflt' > 'latn' <'AZE ' 'CRT ' 'TRK ' 'dflt' > ) ]

StartChar: exclam
Encoding: 33 33 0
Width: 270
GlyphClass: 2
Flags: MW
LayerCount: 2
Fore
SplineSet
132 658 m 0
 162 658 204 635 204 585 c 0
 204 520 186 478 175 392 c 0
 161 284 160 224 158 210 c 0
 157 199 143 190 132 190 c 0
 120 190 108 197 107 203 c 0
 105 224 99 314 90 392 c 0
 80 480 63 515 63 585 c 0
 63 639 108 658 132 658 c 0
EndSplineSet
Refer: 249 46 N 1 0 0 1 8 -1 2
Colour: ff80cc
EndChar

StartChar: numbersign
Encoding: 35 35 2
Width: 514
GlyphClass: 2
Flags: MW
LayerCount: 2
Fore
SplineSet
288.5 253 m 1
 305.5 360 l 1
 211.5 360 l 1
 205.5 323 198.5 290 192.5 253 c 1
 288.5 253 l 1
358.5 360 m 1
 341.5 253 l 1
 459.5 253 l 1
 451.5 187 l 1
 332.5 187 l 1
 322.5 127 314.5 72 304.5 14 c 1
 251.5 14 l 1
 280.5 187 l 1
 184.5 187 l 1
 173.5 127 165.5 72 154.5 14 c 1
 99.5 14 l 1
 127.5 187 l 1
 28.5 187 l 1
 37.5 253 l 1
 137.5 253 l 1
 143.5 290 149.5 323 154.5 360 c 1
 54.5 360 l 1
 63.5 426 l 1
 163.5 426 l 1
 173.5 484 182.5 541 192.5 599 c 1
 248.5 599 l 1
 218.5 426 l 1
 315.5 426 l 1
 325.5 484 333.5 541 343.5 599 c 1
 395.5 599 l 1
 368.5 426 l 1
 485.5 426 l 1
 476.5 360 l 1
 358.5 360 l 1
EndSplineSet
EndChar

StartChar: dollar
Encoding: 36 36 3
Width: 514
GlyphClass: 2
Flags: MW
LayerCount: 2
Fore
SplineSet
249.4 372.8 m 1
 263.5 563.7 l 1
 215.9 559.8 177 518.7 177 474 c 0
 177 416.1 214.3 388.8 249.4 372.8 c 1
281.1 252.3 m 1
 265.3 38.7 l 1
 314.4 43.7 349 77.3 349 138 c 0
 349 188.6 328.7 228.9 281.1 252.3 c 1
261.7 -9.5 m 1
 255.5 -93.2 l 1
 248.2 -97.4 224.6 -98.3 214.6 -98.3 c 1
 221.1 -9.5 l 1
 119.4 -4.8 47 31 47 31 c 1
 45 33 l 1
 52 61 60 109 64 142 c 1
 82 143 l 1
 110 101.4 172 54.7 224.9 41.6 c 1
 241.7 268.5 l 1
 159.8 302.2 60 355.3 60 449 c 0
 60 550.1 158 610 266.9 610 c 1
 272.8 689.5 l 1
 282 693 301 694.5 313.8 694.5 c 1
 307.3 607.7 l 1
 394.5 598.9 451 568 451 568 c 1
 453 565 l 1
 445 537 438 491 434 458 c 1
 406 457 l 1
 386.7 494 347.4 540.6 303.6 557.5 c 1
 288.8 357.5 l 1
 366.6 328.9 476 275.9 476 171 c 0
 476 80 399.9 -2.7 261.7 -9.5 c 1
EndSplineSet
EndChar

StartChar: percent
Encoding: 37 37 4
Width: 637
GlyphClass: 2
Flags: MW
LayerCount: 2
Fore
SplineSet
463 53 m 0
 463 39.7 466 20 483 20 c 0
 503.7 20 523.4 36.7 537 60 c 0
 553.6 88.4 562 126.8 562 157 c 0
 562 209 537 214 523 214 c 0
 503.1 214 484.7 191.7 475 162 c 0
 463.8 127.7 463 83.6 463 53 c 0
370 91 m 0
 370 171 423 250 512 250 c 0
 560 250 604 231 604 159 c 0
 604 60 550 -19 471 -19 c 0
 438.7 -19 409.7 -10.5 393 11 c 0
 379 29 370 54 370 91 c 0
144 369 m 0
 144 355.7 147 336 164 336 c 0
 184.7 336 204.4 352.7 218 376 c 0
 234.6 404.4 243 442.8 243 473 c 0
 243 525 218 530 204 530 c 0
 184.1 530 165.7 507.7 156 478 c 0
 144.8 443.7 144 399.6 144 369 c 0
51 407 m 0
 51 487 104 566 193 566 c 0
 219 566 243.8 560.4 261.1 543.9 c 1
 302.9 542.4 346.6 519 364 519 c 0
 406 519 473 525 514 569 c 1
 561 548 l 1
 150 -16 l 1
 96 -4 l 1
 462 497 l 1
 423 481 384 474 354 474 c 0
 332.5 474 303.3 482.7 284 492.8 c 1
 284.7 487.3 285 481.3 285 475 c 0
 285 376 231 297 152 297 c 0
 119.7 297 90.7 305.5 74 327 c 0
 60 345 51 370 51 407 c 0
EndSplineSet
EndChar

StartChar: parenleft
Encoding: 40 40 5
Width: 338
GlyphClass: 2
Flags: MW
LayerCount: 2
Fore
SplineSet
44 252 m 0
 44 422 156 605 275 707 c 1
 307 679 l 1
 275 643 175 518 175 255 c 0
 175 -8 274 -139 307 -177 c 1
 275 -204 l 1
 102 -40 44 117.9 44 252 c 0
EndSplineSet
EndChar

StartChar: parenright
Encoding: 41 41 6
Width: 338
GlyphClass: 2
Flags: MW
LayerCount: 2
Fore
SplineSet
294 252 m 0
 294 82 182 -101 63 -203 c 1
 31 -175 l 1
 63 -139 163 -14 163 249 c 0
 163 512 64 643 31 681 c 1
 63 708 l 1
 236 544 294 386.1 294 252 c 0
EndSplineSet
Colour: ff00ff
EndChar

StartChar: asterisk
Encoding: 42 42 7
Width: 433
GlyphClass: 2
Flags: MW
LayerCount: 2
Fore
SplineSet
197 566 m 1
 184 568 171 573 156 571 c 0
 111 563 75 563 75 608 c 0
 75 622 84 640 108 640 c 0
 142 640 159 607 203 588 c 1
 199 628 173 653 173 679 c 0
 173 700 193 718 211 718 c 0
 229 718 251 707 251 683 c 0
 251 656 228 618 226 588 c 1
 271 607 282 642 315 642 c 0
 346 642 354 618 354 608 c 0
 354 578 320 568 285 568 c 0
 266 568 249 568 231 565 c 1
 265 529 316 531 316 480 c 0
 316 462 298 451 284 451 c 0
 235 451 238 513 213 552 c 1
 188 507 202 451 143 451 c 0
 126 451 114 464 114 479 c 0
 114 533 164 528 197 566 c 1
EndSplineSet
EndChar

StartChar: plus
Encoding: 43 43 8
Width: 520
GlyphClass: 2
Flags: MW
LayerCount: 2
Fore
SplineSet
290 262 m 1
 460 262 l 1
 460 202 l 1
 290 202 l 1
 290 32 l 1
 230 32 l 1
 230 202 l 1
 60 202 l 1
 60 262 l 1
 230 262 l 1
 230 433 l 1
 290 433 l 1
 290 262 l 1
EndSplineSet
EndChar

StartChar: slash
Encoding: 47 47 9
Width: 342
GlyphClass: 2
Flags: MW
LayerCount: 2
Fore
SplineSet
312 646 m 1
 75 -59 l 1
 15 -59 l 1
 252 646 l 1
 312 646 l 1
EndSplineSet
EndChar

StartChar: one
Encoding: 49 49 10
Width: 514
GlyphClass: 2
Flags: MW
LayerCount: 2
Fore
SplineSet
337 189 m 2
 337 110 340 60 349 0 c 1
 347 -3 l 1
 347 -3 304 0 268 0 c 0
 231 0 191 -3 191 -3 c 1
 190 0 l 1
 199 56 201 111 201 189 c 2
 201 433 l 2
 201 469 200 498 183 498 c 0
 163 498 118 498 74 492 c 1
 72 535 l 1
 165 556 276 589 341 610 c 1
 345 610 348 610 348 605 c 0
 346 591 337 550 337 442 c 2
 337 189 l 2
EndSplineSet
EndChar

StartChar: two
Encoding: 50 50 11
Width: 514
GlyphClass: 2
Flags: MW
LayerCount: 2
Fore
SplineSet
226 556 m 0
 177 556 143 530 110 471 c 1
 66 472 l 1
 45 551 l 1
 48 555 l 1
 73 577 162 610 234 610 c 0
 353 610 457 561 457 453 c 0
 457 377 408 338 351 283 c 2
 251 186 l 2
 230 166 194 116 194 100 c 1
 276 100 l 2
 376 100 404 105 462 109 c 1
 459 96 456 56 456 43 c 0
 456 30 459 9 462 -4 c 1
 387 -1 363 0 288 0 c 0
 212 0 136.1 -2.4 39 -4 c 1
 38 0 l 1
 38 59 68 105 166 205 c 1
 240 278 l 1
 299 338 302 390 302 454 c 0
 302 516 262 556 226 556 c 0
EndSplineSet
EndChar

StartChar: three
Encoding: 51 51 12
Width: 514
GlyphClass: 2
Flags: MW
LayerCount: 2
Fore
SplineSet
213 31 m 0
 248 31 315 61 315 177 c 0
 315 272 259 294 202 294 c 0
 193 294 165 294 153 292 c 1
 153 332 l 1
 255 339 311 383 311 466 c 0
 311 519 268 568 229 568 c 0
 161.6 568 142.6 531.6 113 470 c 1
 69 471 l 1
 48 550 l 1
 51 554 l 1
 76 576 150 610 238 610 c 0
 360 610 438 576 438 482 c 0
 438 398 382 348 309 329 c 1
 309 326 l 1
 383 319 467 276 467 180 c 0
 467 58 354.6 -11 211 -11 c 0
 117.6 -11 65 23 40 45 c 1
 36 50 l 1
 58 129 l 1
 102 130 l 1
 135 71 138 31 213 31 c 0
EndSplineSet
EndChar

StartChar: four
Encoding: 52 52 13
Width: 514
GlyphClass: 2
Flags: MW
LayerCount: 2
Fore
SplineSet
261 498 m 1
 208 426 126 293 76 209 c 1
 261 209 l 1
 261 498 l 1
261 162 m 1
 84 162 l 2
 60 162 56 164 51 169 c 2
 36 187 l 1
 30 198 17 206 17 210 c 0
 17 213 22 219 24 223 c 0
 106 347 216.7 513 282 610 c 1
 302 608.2 348.2 607.8 385 610 c 1
 387 608 l 1
 385.8 593.2 385 209 385 209 c 1
 483 209 l 2
 494 209 498 203 498 193 c 0
 498 181 483 162 469 162 c 2
 385 162 l 1
 386 98 389 53 396 0 c 1
 394 -3 l 1
 394 -3 354 0 322 0 c 0
 289 0 252 -3 252 -3 c 1
 251 0 l 1
 258 49 261 98 261 162 c 1
EndSplineSet
EndChar

StartChar: five
Encoding: 53 53 14
Width: 514
GlyphClass: 2
Flags: MW
LayerCount: 2
Fore
SplineSet
242 -10 m 0
 147 -10 91 0 50 35 c 1
 47 40 l 1
 68 119 l 1
 102 120 l 1
 135 61 165 39 224 39 c 0
 269 39 324 80 324 178 c 0
 324 239.3 313.9 283.8 280 307.5 c 0
 264.7 318.2 243.2 327 218 327 c 0
 169.1 327 146.1 313.7 112.5 286 c 1
 88.5 293.5 l 1
 103.6 329.5 115 563.5 103 606 c 1
 105 609 l 1
 140 606 210 599 247 599 c 0
 300 599 387 604 444 610 c 1
 450 607 l 1
 435 511 l 1
 394 507 328 505 298 505 c 0
 252 505 196 509 162 513 c 1
 155 366 l 1
 177 374 219.5 380 274 380 c 0
 320 380 369.3 363.9 402.5 337.5 c 0
 439 308.5 466 258.9 466 206 c 0
 466 76 362 -10 242 -10 c 0
EndSplineSet
EndChar

StartChar: six
Encoding: 54 54 15
Width: 514
GlyphClass: 2
Flags: MW
LayerCount: 2
Fore
SplineSet
171 289 m 1
 170 278 170 253 170 242 c 0
 170 68 225 29 275 29 c 0
 311 29 343 78 343 186 c 0
 343 246 303 315 245 315 c 0
 227 315 209 313 171 289 c 1
450 569 m 1
 393 566 324 557 265 509 c 0
 218 471 184 402 176 330 c 1
 212 349 255 365 279 365 c 3
 443 365 477 253 477 204 c 0
 477 116 419 -10 263 -10 c 0
 162 -10 44 32 44 246 c 0
 44 342 76 447 152 513 c 0
 228 579 303 606 444 610 c 1
 452 600 453 581 450 569 c 1
EndSplineSet
EndChar

StartChar: seven
Encoding: 55 55 16
Width: 514
GlyphClass: 2
Flags: MW
LayerCount: 2
Fore
SplineSet
375 496 m 1
 316 496 207 488 79 481 c 1
 81 496 84 540 84 555 c 0
 84 570 81 594 79 609 c 1
 121 603 250 599 399 599 c 0
 430 599 448 603 463 607 c 1
 477 587 l 1
 365 315 308 161 251 -9 c 1
 133 -13 l 1
 130 -6 l 1
 194 139 300 310 375 496 c 1
EndSplineSet
EndChar

StartChar: nine
Encoding: 57 57 17
Width: 514
GlyphClass: 2
Flags: MW
LayerCount: 2
Fore
SplineSet
351 311 m 1
 352 322 352 347 352 358 c 0
 352 532 297 571 247 571 c 0
 211 571 179 522 179 414 c 0
 179 354 219 285 277 285 c 0
 295 285 313 287 351 311 c 1
72 31 m 1
 129 34 198 43 257 91 c 0
 304 129 338 198 346 270 c 1
 310 251 267 235 243 235 c 3
 79 235 45 347 45 396 c 0
 45 484 103 610 259 610 c 0
 360 610 478 568 478 354 c 0
 478 258 446 153 370 87 c 0
 294 21 219 -6 78 -10 c 1
 70 0 69 19 72 31 c 1
EndSplineSet
Colour: ff00ff
EndChar

StartChar: less
Encoding: 60 60 19
Width: 512
GlyphClass: 2
Flags: MW
LayerCount: 2
Fore
SplineSet
153 240 m 1
 471 134 l 1
 471 52 l 1
 42 208 l 1
 42 272 l 1
 471 428 l 1
 471 346 l 1
 153 240 l 1
EndSplineSet
EndChar

StartChar: equal
Encoding: 61 61 20
Width: 551
GlyphClass: 2
Flags: MW
LayerCount: 2
Fore
SplineSet
493 193 m 1
 493 123 l 1
 59 123 l 1
 59 193 l 1
 493 193 l 1
493 341 m 1
 493 271 l 1
 59 271 l 1
 59 341 l 1
 493 341 l 1
EndSplineSet
EndChar

StartChar: greater
Encoding: 62 62 21
Width: 512
GlyphClass: 2
Flags: MW
LayerCount: 2
Fore
SplineSet
360 240 m 1
 42 346 l 1
 42 428 l 1
 471 272 l 1
 471 208 l 1
 42 52 l 1
 42 134 l 1
 360 240 l 1
EndSplineSet
Colour: ff00ff
EndChar

StartChar: question
Encoding: 63 63 22
Width: 464
GlyphClass: 2
Flags: MW
LayerCount: 2
Fore
SplineSet
215 610 m 0
 159 610 118 561 92 516 c 1
 59 517 l 1
 43 593 l 1
 46 597 l 1
 70.5 617.5 151.5 659 224 659 c 0
 268.1 659 318.2 655.1 354 635 c 0
 401.1 608.6 423 559.7 423 508 c 0
 423 429 350 380 303 346 c 0
 274.1 324.6 243 302 243 228 c 2
 243 189 l 2
 243 182 218 174 210 174 c 0
 202 174 177 182 177 189 c 2
 177 230 l 2
 177 273 189 332 254 391 c 0
 294 428 295 467.7 295 504 c 0
 295 540 262 610 215 610 c 0
EndSplineSet
Refer: 249 46 N 1 0 0 1 79 -1 2
Colour: ff80cc
EndChar

StartChar: at
Encoding: 64 64 23
Width: 1068
GlyphClass: 2
Flags: MW
LayerCount: 2
Fore
SplineSet
646 320 m 0
 646 355 622 377 597 377 c 0
 500.7 377 454 265.6 454 164 c 0
 454 117 463 77 510 77 c 0
 540 77 590 107 617 193 c 0
 627 226 646 296 646 320 c 0
700 75 m 0
 700 62 707 61 718 61 c 0
 755 61 865 129 865 273 c 0
 865 494 661 584 544 584 c 0
 389 584 206 459 206 228 c 0
 206 80 317 -121 561 -121 c 0
 638 -121 749 -97 811 -46 c 1
 823 -50 830 -72 832 -85 c 1
 768 -134 665 -170 542 -170 c 0
 305 -170 92 -7 92 221 c 0
 92 428 300 631 553 631 c 0
 779 631 970 476 970 287 c 0
 970 147 832 19 698 19 c 0
 628 19 610 55 610 76 c 1
 569 38 498 30 474 30 c 0
 358 30 337 117 337 158 c 0
 337 303 469 415 584 415 c 0
 632 415 691 398 708 377 c 1
 745 410 l 1
 772 399 l 1
 713 141 l 2
 707 115 700 86 700 75 c 0
EndSplineSet
EndChar

StartChar: A
Encoding: 65 65 24
Width: 701
GlyphClass: 2
Flags: MW
AnchorPoint: "below" 272 -108 basechar 0
AnchorPoint: "cedilla" 60 8 basechar 0
AnchorPoint: "above" 364 798 basechar 0
AnchorPoint: "top_punkt" 344 700 basechar 0
LayerCount: 2
Fore
SplineSet
411.5 275.1 m 1
 387.3 338.5 358.7 412 323 494 c 1
 317.1 494 l 1
 223.6 275.9 l 1
 255 274.5 299.1 274 328 274 c 0
 351.7 274 383.1 274.5 411.5 275.1 c 1
200.3 219.2 m 1
 166.2 135.1 136.8 56.2 121 -3 c 1
 109 0 87 0 76 0 c 0
 65 0 32 0 20 -3 c 1
 121 218 219 431 315 653 c 1
 405 653 l 1
 491 434 629 98 679 -3 c 1
 662 0 605 0 588 0 c 0
 571 0 524 0 507 -3 c 1
 501 18.7 479.3 93.7 432.5 219.7 c 1
 399.8 220.4 365.1 221 333 221 c 0
 297.3 221 238.3 220.1 200.3 219.2 c 1
EndSplineSet
Position2: "'cpsp' Versalabstaende 1" dx=2 dy=0 dh=5 dv=0
EndChar

StartChar: B
Encoding: 66 66 25
Width: 675
GlyphClass: 2
Flags: MW
AnchorPoint: "below" 288 -108 basechar 0
AnchorPoint: "cedilla" 270 0 basechar 0
AnchorPoint: "top_punkt" 302 700 basechar 0
AnchorPoint: "above" 311 798 basechar 0
LayerCount: 2
Fore
SplineSet
245 550 m 2
 245 375 l 1
 323 375 l 2
 406 375 426 408 426 481 c 0
 426 568.3 392 595 336 595 c 0
 255 595 245 583 245 550 c 2
245 322 m 1
 245 97 l 2
 245 64 262 50 332 50 c 0
 466 50 473 96 473 165 c 0
 473 236.2 455 322 338 322 c 2
 245 322 l 1
177 645 m 0
 240 645 304 648 339 648 c 0
 525 648 575 560 575 493 c 0
 575 438 523 385 472 360 c 1
 559 335 634 280 634 184 c 0
 634 98 560 -3 361 -3 c 0
 272 -3 249 0 177 0 c 0
 142 0 92 -3 92 -3 c 1
 91 0 l 1
 99 54 103 125 103 200 c 2
 103 445 l 2
 103 520 99 588 91 645 c 1
 93 648 l 1
 93 648 143 645 177 645 c 0
EndSplineSet
Position2: "'cpsp' Versalabstaende 1" dx=2 dy=0 dh=5 dv=0
EndChar

StartChar: C
Encoding: 67 67 26
Width: 706
GlyphClass: 2
Flags: MW
AnchorPoint: "below" 404 -110 basechar 0
AnchorPoint: "cedilla" 380 -7 basechar 0
AnchorPoint: "top_punkt" 401 700 basechar 0
AnchorPoint: "above" 401 798 basechar 0
LayerCount: 2
Fore
SplineSet
414 658 m 0
 536 658 639 613 639 613 c 1
 641 610 l 1
 629.2 560.7 624.6 531 621 480 c 1
 591 479 l 1
 550 561 497 603 407 603 c 0
 325 603 215 532 215 329 c 0
 215 158.8 297 50 406 50 c 0
 499 50 554 67 629 139 c 1
 653 105 l 1
 569 18 469.2 -10 380 -10 c 0
 295.2 -10 235.1 7.7 175 48 c 0
 96 101 52 205 52 310 c 0
 52 419.9 97.1 522.3 176 584 c 0
 238.5 632.8 323 658 414 658 c 0
EndSplineSet
Position2: "'cpsp' Versalabstaende 1" dx=2 dy=0 dh=5 dv=0
EndChar

StartChar: D
Encoding: 68 68 27
Width: 761
GlyphClass: 2
Flags: MW
AnchorPoint: "top_punkt" 385 721 basechar 0
AnchorPoint: "above" 386 804 basechar 0
AnchorPoint: "below" 381 -113 basechar 0
AnchorPoint: "cedilla" 366 0 basechar 0
LayerCount: 2
Fore
SplineSet
245 101 m 2
 245 69 266.9 51 343 51 c 0
 484 51 548 92 548 294 c 0
 548 448 534 595 318 595 c 0
 269 595 245 580 245 545 c 2
 245 101 l 2
175 645 m 0
 245.6 645 285.4 648 356 648 c 0
 548 648 709 514.5 709 318 c 0
 709 72 515 -2 374 -2 c 0
 286.9 -2 252.6 0 175 0 c 0
 140 0 90 -3 90 -3 c 1
 89 0 l 1
 97 54 101 125 101 200 c 2
 101 445 l 2
 101 520 97 588 89 645 c 1
 91 648 l 1
 91 648 141 645 175 645 c 0
EndSplineSet
Position2: "'cpsp' Versalabstaende 1" dx=2 dy=0 dh=5 dv=0
EndChar

StartChar: E
Encoding: 69 69 28
Width: 594
GlyphClass: 2
Flags: MW
AnchorPoint: "cedilla" 299 4 basechar 0
AnchorPoint: "below" 299 -107 basechar 0
AnchorPoint: "top_punkt" 300 700 basechar 0
AnchorPoint: "above" 303 805 basechar 0
LayerCount: 2
Fore
SplineSet
240 200 m 2
 240 183 241 97 248 73 c 1
 382 73 544 95 544 95 c 1
 546 91 l 1
 545 83 544 46 544 36 c 0
 544 26 544.5 13.2 546 0 c 1
 544 -3 l 1
 528 -1 505 0 484 0 c 2
 170 0 l 2
 135 0 85 -3 85 -3 c 1
 84 0 l 1
 92 54 96 125 96 200 c 2
 96 445 l 2
 96 520 92 588 84 645 c 1
 86 648 l 1
 86 648 136 645 170 645 c 2
 474 645 l 2
 495 645 518 646 534 648 c 1
 536 645 l 1
 534.8 631 534 618 534 610 c 0
 534 601 535 577 536 569 c 1
 534 565 l 1
 534 565 382 577 248 577 c 1
 241 553 240 462 240 445 c 2
 240 372 l 1
 358 372 418 377 477 382 c 1
 480 379 l 1
 478 370 477 351 477 342 c 0
 477 333 478 313 480 304 c 1
 477 301 l 1
 408 308 288 311 240 311 c 1
 240 200 l 2
EndSplineSet
Position2: "'cpsp' Versalabstaende 1" dx=2 dy=0 dh=5 dv=0
EndChar

StartChar: F
Encoding: 70 70 29
Width: 554
GlyphClass: 2
Flags: MW
AnchorPoint: "cedilla" 155 -1 basechar 0
AnchorPoint: "below" 221 -111 basechar 0
AnchorPoint: "top_punkt" 307 700 basechar 0
AnchorPoint: "above" 306 798 basechar 0
LayerCount: 2
Fore
SplineSet
468 645 m 2
 492 645 515 646 531 648 c 1
 533 645 l 1
 532 631 531 618 531 610 c 0
 531 601 532 567 533 559 c 1
 531 555 l 1
 531 555 384 577 250 577 c 1
 243 553 242 462 242 445 c 2
 242 362 l 1
 360 362 420 367 479 372 c 1
 482 369 l 1
 480 360 479 341 479 332 c 0
 479 323 480 303 482 294 c 1
 479 291 l 1
 410 298 290 301 242 301 c 1
 242 200 l 2
 242 125 244 57 252 0 c 1
 250 -3 l 1
 250 -3 206 0 172 0 c 0
 137 0 87 -3 87 -3 c 1
 86 0 l 1
 94 54 98 125 98 200 c 2
 98 445 l 2
 98 520 94 588 86 645 c 1
 88 648 l 1
 88 648 138 645 172 645 c 2
 468 645 l 2
EndSplineSet
Position2: "'cpsp' Versalabstaende 1" dx=2 dy=0 dh=5 dv=0
EndChar

StartChar: G
Encoding: 71 71 30
Width: 753
GlyphClass: 2
Flags: MW
AnchorPoint: "cedilla" 374 2 basechar 0
AnchorPoint: "below" 374 -111 basechar 0
AnchorPoint: "top_punkt" 397 730 basechar 0
AnchorPoint: "above" 372 798 basechar 0
LayerCount: 2
Fore
SplineSet
539 117 m 2
 539 192 537 250 529 307 c 1
 531 310 l 1
 531 310 579 307 613 307 c 0
 648 307 686 310 686 310 c 1
 687 307 l 1
 679 254 677 212 677 137 c 0
 677 104.6 680.9 90.5 687 83 c 1
 687 80 l 1
 619.5 23.4 506.5 -10 390 -10 c 0
 307.7 -10 253.8 7.6 194 48 c 0
 107.8 106.3 52 204.8 52 307 c 0
 52 420 96.4 515.5 171 575 c 0
 240 630 305 658 405 658 c 0
 527 658 644 613 644 613 c 1
 646 610 l 1
 634.2 560.7 629.6 531 626 480 c 1
 596 479 l 1
 555 561 469.1 602 391 602 c 0
 256 602 213 488 213 327 c 0
 213 195 277 45 413 45 c 0
 467 45 505 51 539 83 c 1
 539 117 l 2
EndSplineSet
Position2: "'cpsp' Versalabstaende 1" dx=2 dy=0 dh=5 dv=0
EndChar

StartChar: divide
Encoding: 247 247 37
Width: 545
GlyphClass: 2
Flags: MW
LayerCount: 2
Fore
SplineSet
208.3 390.2 m 1
 208.3 394.4 l 1
 219.2 422.1 234.3 438.8 266.1 451.4 c 1
 269.4 451.4 l 1
 300.4 440.5 316.4 424.6 327.3 394.4 c 1
 327.3 390.2 l 1
 315.6 355.8 299.6 340.7 269.4 333.2 c 1
 266.1 333.2 l 1
 231.7 340.7 217.5 355 208.3 390.2 c 1
208.3 72.2 m 1
 208.3 76.4 l 1
 219.2 104.1 234.3 120.8 266.1 133.4 c 1
 269.4 133.4 l 1
 300.4 122.5 316.4 106.6 327.3 76.4 c 1
 327.3 72.2 l 1
 315.6 37.8 299.6 22.7 269.4 15.2 c 1
 266.1 15.2 l 1
 231.7 22.7 217.5 37 208.3 72.2 c 1
EndSplineSet
Refer: 1164 8722 N 1 0 0 1 0 0 2
Colour: ff00ff
EndChar

StartChar: Eogonek
Encoding: 280 280 44
Width: 594
GlyphClass: 2
Flags: MW
LayerCount: 2
Fore
SplineSet
561.4 -157.4 m 1
 536.5 -185.5 497.2 -203.6 457 -203.6 c 0
 395.4 -203.6 349.2 -161.8 349.2 -104.7 c 0
 349.2 -71.8 381.2 -34.8 422.1 -0 c 1
 170 0 l 2
 135 0 85 -3 85 -3 c 1
 84 0 l 1
 92 54 96 125 96 200 c 2
 96 445 l 2
 96 520 92 588 84 645 c 1
 86 648 l 1
 86 648 136 645 170 645 c 2
 474 645 l 2
 495 645 518 646 534 648 c 1
 536 645 l 1
 534.8 631 534 618 534 610 c 0
 534 601 535 577 536 569 c 1
 534 565 l 1
 534 565 382 577 248 577 c 1
 241 553 240 462 240 445 c 2
 240 372 l 1
 358 372 418 377 477 382 c 1
 480 379 l 1
 478 370 477 351 477 342 c 0
 477 333 478 313 480 304 c 1
 477 301 l 1
 408 308 288 311 240 311 c 1
 240 200 l 2
 240 183 241 97 248 73 c 1
 382 73 544 95 544 95 c 1
 546 91 l 1
 545 83 544 46 544 36 c 0
 544 26 544.5 13.2 546 0 c 1
 544 -3 l 1
 528 -1 505 0 484 0 c 2
 482.2 -0 l 1
 457.1 -24.5 439.7 -51.1 439.7 -79.6 c 0
 439.7 -116.2 464.3 -134.6 504.3 -134.6 c 0
 520.5 -134.6 537.3 -131.3 549.7 -123.2 c 1
 558.5 -130.5 561.7 -140.2 561.7 -151.1 c 0
 561.7 -153.2 561.6 -155.3 561.4 -157.4 c 1
EndSplineSet
Position2: "'cpsp' Versalabstaende 1" dx=2 dy=0 dh=5 dv=0
Colour: ff80cc
EndChar

StartChar: eogonek
Encoding: 281 281 45
Width: 508
GlyphClass: 2
Flags: MW
LayerCount: 2
Fore
SplineSet
431.4 -157.4 m 1
 406.5 -185.5 367.2 -203.6 327 -203.6 c 0
 265.4 -203.6 219.2 -161.8 219.2 -104.7 c 0
 219.2 -74.8 245.5 -41.6 281 -9.7 c 1
 276 -9.9 271 -10 266 -10 c 0
 191 -10 132.2 6.5 98 42 c 0
 56.7 84.9 35 147 35 206 c 0
 35 288.9 68 349 116.5 389 c 0
 156.2 421.7 216 439 271 439 c 0
 425 439 460 339 460 214 c 1
 454 208 l 1
 454 208 368.5 210 268.5 210 c 2
 169 210 l 1
 169 164.1 180.2 129 202.2 105 c 0
 226 79.1 262.4 66 311 66 c 0
 353 66 401.5 69.5 448 107 c 1
 458 107 464 89 464 76 c 1
 432.6 39.7 395.5 16.7 356 3.7 c 1
 328.9 -21.8 309.7 -49.7 309.7 -79.6 c 0
 309.7 -116.2 334.3 -134.6 374.3 -134.6 c 0
 390.5 -134.6 407.3 -131.3 419.7 -123.2 c 1
 428.5 -130.5 431.7 -140.2 431.7 -151.1 c 0
 431.7 -153.2 431.6 -155.3 431.4 -157.4 c 1
173 255 m 1
 329 255 l 1
 329 342.5 304.9 389 264 389 c 0
 235.7 389 216.2 376.3 203.5 359 c 0
 188.7 338.8 176.5 304 173 255 c 1
EndSplineSet
Colour: ff00ff
EndChar

StartChar: Hbar
Encoding: 294 294 58
Width: 764
GlyphClass: 2
Flags: MW
LayerCount: 2
Fore
SplineSet
527 311 m 1
 237 311 l 1
 237 200 l 2
 237 125 241 57 249 0 c 1
 247 -3 l 1
 247 -3 199 0 165 0 c 0
 130 0 82 -3 82 -3 c 1
 81 0 l 1
 89 54 93 125 93 200 c 2
 93 445 l 2
 93 468 92.7 490.4 91.9 512 c 1
 41 512 l 1
 41 556 l 1
 89.7 556 l 1
 87.7 587.9 84.8 617.7 81 645 c 1
 83 648 l 1
 83 648 131 645 165 645 c 0
 200 645 248 648 248 648 c 1
 249 645 l 1
 245.1 619.2 242.2 588.9 240.2 556 c 1
 523.7 556 l 1
 521.7 587.9 518.8 617.7 515 645 c 1
 517 648 l 1
 517 648 565 645 599 645 c 0
 634 645 682 648 682 648 c 1
 683 645 l 1
 679.1 619.2 676.2 588.9 674.2 556 c 1
 761 556 l 1
 761 512 l 1
 672.1 512 l 1
 671.4 490.2 671 467.8 671 445 c 2
 671 200 l 2
 671 125 675 57 683 0 c 1
 681 -3 l 1
 681 -3 633 0 599 0 c 0
 564 0 516 -3 516 -3 c 1
 515 0 l 1
 523 54 527 125 527 200 c 2
 527 311 l 1
527 363 m 1
 527 445 l 2
 527 468 526.7 490.4 525.9 512 c 1
 238.1 512 l 1
 237.4 490.2 237 467.8 237 445 c 2
 237 363 l 1
 527 363 l 1
EndSplineSet
Position2: "'cpsp' Versalabstaende 1" dx=2 dy=0 dh=5 dv=0
Colour: ff80cc
EndChar

StartChar: hbar
Encoding: 295 295 59
Width: 606
GlyphClass: 2
Flags: MW
LayerCount: 2
Fore
SplineSet
-9 523 m 1
 -9 574 l 1
 21 572.1 51.7 570.5 83.5 569.5 c 1
 81.5 606.3 78.3 638.3 74 662 c 1
 76 665 l 1
 116.5 668 193.9 688 219 698 c 1
 225.3 698 228 695 228 688 c 0
 222.9 647.2 220.2 610.6 218.9 568.6 c 1
 256.6 569.4 296.2 571.1 338 574 c 1
 338 523 l 1
 298.7 525.7 258.7 527.6 218.1 528.4 c 1
 218 519.3 218 509.8 218 500 c 2
 218 438 l 1
 214 351 l 1
 218 349 l 1
 264 408 338 439 389 439 c 0
 479 439 518 381 518 291 c 2
 518 180 l 2
 518 104 519 57 528 0 c 1
 526 -3 l 1
 526 -3 499 0 465 0 c 0
 430 0 381 -3 381 -3 c 1
 380 0 l 1
 386 53 386 105 386 180 c 2
 386 269 l 2
 386 342 361 362 334 362 c 0
 298 362 256 332 218 282 c 1
 218 180 l 2
 218 104 219 57 224 0 c 1
 222 -3 l 1
 222 -3 189.3 0 155 0 c 0
 120 0 75 -3 75 -3 c 1
 74 0 l 1
 82.5 53.5 86 105 86 180 c 2
 86 474 l 2
 86 492.4 85.8 510.4 85.3 527.7 c 1
 54.3 526.7 22.8 525.1 -9 523 c 1
EndSplineSet
Colour: ff80cc
EndChar

StartChar: itilde
Encoding: 297 297 61
Width: 312
GlyphClass: 2
Flags: MW
LayerCount: 2
Fore
SplineSet
210.5 591 m 0
 229.4 591 242.9 597 254.6 633 c 1
 283.4 624 l 1
 270.8 560 239.3 517 193.4 517 c 0
 155.5 517 123.3 559 87.2 559 c 0
 61.1 559 50.3 547 43.1 516 c 1
 13.4 523 l 1
 26.9 587 54.8 632 98 632 c 0
 142.7 632 166.9 591 210.5 591 c 0
EndSplineSet
Refer: 411 305 N 1 0 0 1 0 0 2
Colour: ff00ff
EndChar

StartChar: imacron
Encoding: 299 299 63
Width: 312
GlyphClass: 2
Flags: MW
LayerCount: 2
Fore
SplineSet
280.2 530 m 2
 33.6 530 l 2
 23.7 530 20.1 544 20.1 553 c 0
 20.1 565 30.9 590 42.6 590 c 2
 291 590 l 2
 300 590 303.6 576 303.6 568 c 0
 303.6 555 292.8 530 280.2 530 c 2
EndSplineSet
Refer: 411 305 N 1 0 0 1 0 0 2
Colour: ff00ff
EndChar

StartChar: ibreve
Encoding: 301 301 65
Width: 312
GlyphClass: 2
Flags: MW
LayerCount: 2
Fore
SplineSet
47.8 635 m 1
 62.2 576.5 95.5 557 144.1 557 c 0
 191.3 557 229.6 579.5 239.5 635 c 1
 269.2 635 l 1
 264.7 532 208 481 144.1 481 c 0
 81.1 481 23.1 529.5 18.1 635 c 1
 47.8 635 l 1
EndSplineSet
Refer: 411 305 N 1 0 0 1 0 0 2
Colour: ff00ff
EndChar

StartChar: Iogonek
Encoding: 302 302 66
Width: 330
GlyphClass: 2
Flags: MW
LayerCount: 2
Fore
SplineSet
275 -139 m 1
 258 -189 207 -222 148 -222 c 0
 99 -222 51 -183 51 -122 c 0
 51 -75.6 56.8 -45.6 81.3 -0.9 c 1
 81 0 l 1
 89 54 93 125 93 200 c 2
 93 445 l 2
 93 520 89 588 81 645 c 1
 83 648 l 1
 83 648 131 645 165 645 c 0
 200 645 248 648 248 648 c 1
 249 645 l 1
 241 592 237 520 237 445 c 2
 237 200 l 2
 237 125 241 57 249 0 c 1
 247 -3 l 1
 247 -3 199 0 165 0 c 0
 161.3 0 157.4 0 153.4 -0.1 c 1
 137.8 -35.9 137 -72.9 137 -93 c 0
 137 -119.9 157 -142 184 -142 c 0
 207 -142 235.5 -134.8 251 -112 c 1
 264 -116 271 -126 275 -139 c 1
EndSplineSet
Position2: "'cpsp' Versalabstaende 1" dx=2 dy=0 dh=5 dv=0
Colour: ff80cc
EndChar

StartChar: iogonek
Encoding: 303 303 67
Width: 312
GlyphClass: 2
Flags: MW
LayerCount: 2
Fore
SplineSet
262 -139 m 1
 245 -189 194 -222 135 -222 c 0
 86 -222 38 -183 38 -122 c 0
 38 -67.3 46.1 -35.4 83.3 24.6 c 1
 88.6 70.1 90 116.4 90 180 c 2
 90 235 l 2
 90 310 88 385 80 428 c 1
 83 432 l 1
 100.7 430.7 128 429 154 429 c 0
 182 429 209.3 432 223 434 c 0
 229 434 232 431 232 424 c 0
 225.7 364 222 321 222 246 c 2
 222 180 l 2
 222 104 224 57 232 0 c 1
 230 -3 l 1
 211.3 -1 190 0 156 0 c 0
 150.4 0 145.2 -0.1 140.4 -0.1 c 1
 124.7 -35.9 124 -72.9 124 -93 c 0
 124 -119.9 144 -142 171 -142 c 0
 194 -142 222.5 -134.8 238 -112 c 1
 251 -116 258 -126 262 -139 c 1
EndSplineSet
Refer: 655 775 N 1 0 0 1 317 14 2
Colour: ff80cc
EndChar

StartChar: uni0408
Encoding: 1032 1032 69
Width: 443
GlyphClass: 2
Flags: MW
AnchorPoint: "above" 252 806 basechar 0
AnchorPoint: "top_punkt" 251 723 basechar 0
LayerCount: 2
Fore
SplineSet
210 346 m 2
 210 445 l 2
 210 520 208 588 200 645 c 1
 202 648 l 1
 202 648 250 645 284 645 c 0
 319 645 363 648 363 648 c 1
 364 645 l 1
 356 592 354 520 354 445 c 2
 354 308 l 2
 354 193.5 343.4 152.7 285 81 c 0
 233.1 17.3 158 -10 95 -10 c 0
 76 -10 28 -6 20 -1 c 1
 19 2 l 1
 30 21 46 94 46 123 c 1
 75 129 l 1
 86 109 128 72 157 72 c 0
 199.1 72 214 123.8 214 167 c 0
 214 236.8 210 305 210 346 c 2
EndSplineSet
EndChar

StartChar: uni0414
Encoding: 1044 1044 74
Width: 740
GlyphClass: 2
Flags: MW
LayerCount: 2
Fore
SplineSet
447 53 m 2
 463 53 469 59 472 68 c 0
 478 92 480 183 480 200 c 2
 480 436 l 2
 480 453 478 555 472 579 c 1
 466 588 463 592 449 592 c 2
 336 592 l 2
 312 592 303 582 301 557 c 0
 294 456 281 361 270 293 c 0
 250 176 227 86 227 65 c 0
 227 53 239 53 252 53 c 2
 447 53 l 2
211 0 m 2
 115 0 101 -65 88 -138 c 1
 85 -141 l 1
 27 -141 l 1
 24 -138 l 1
 10 11 l 2
 10 21 16 29 46 32 c 0
 70 34 95 32 112 47 c 0
 143 73 161 145 199 301 c 1
 225 415 235 518 235 581 c 0
 235 603 232 625 228 645 c 1
 229 648 l 1
 229 648 261 645 302 645 c 2
 572 645 l 2
 613 645 635 648 635 648 c 1
 636 645 l 1
 626 591 624 520 624 445 c 2
 624 200 l 2
 624 90 632 35 673 32 c 0
 703 30 709 21 709 11 c 2
 695 -138 l 1
 692 -141 l 1
 634 -141 l 1
 632 -138 l 1
 619 -65 604 0 508 0 c 2
 211 0 l 2
EndSplineSet
EndChar

StartChar: uni0416
Encoding: 1046 1046 75
Width: 1013
GlyphClass: 2
Flags: MW
LayerCount: 2
Fore
SplineSet
436 445 m 2
 436 520 432 588 424 645 c 1
 426 648 l 1
 426 648 474 645 508 645 c 0
 543 645 591 648 591 648 c 1
 592 645 l 1
 584 592 580 520 580 445 c 2
 580 375.5 l 1
 585.9 380.3 592.2 386.2 599 393 c 0
 675 466 750 554 826 648 c 1
 839 645 897 645 910 645 c 0
 925 645 985 645 1001 648 c 1
 913 571 755 433 687 354 c 1
 687 352 691 350 697 349 c 0
 766 337 799 300 841 246 c 0
 895 176 913 89 993 0 c 1
 990 -4 l 1
 977 -2 906 0 883 0 c 0
 858 0 838 -2 816 -4 c 1
 770 73 750 115 725 169 c 0
 691.7 240.9 662.5 293.4 580 308.4 c 1
 580 200 l 2
 580 125 584 57 592 0 c 1
 590 -3 l 1
 590 -3 542 0 508 0 c 0
 473 0 425 -3 425 -3 c 1
 424 0 l 1
 432 54 436 125 436 200 c 2
 436 308.9 l 1
 351.2 294.7 321.7 241.8 288 169 c 0
 263 115 243 73 197 -4 c 1
 175 -2 155 0 130 0 c 0
 107 0 36 -2 23 -4 c 1
 20 0 l 1
 100 89 118 176 172 246 c 0
 214 300 247 337 316 349 c 0
 322 350 326 352 326 354 c 1
 258 433 100 571 12 648 c 1
 28 645 88 645 103 645 c 0
 116 645 174 645 187 648 c 1
 263 554 338 466 414 393 c 0
 422 385 429.2 378.3 436 373.1 c 1
 436 445 l 2
EndSplineSet
Colour: ff80cc
EndChar

StartChar: uni0417
Encoding: 1047 1047 76
Width: 551
GlyphClass: 2
Flags: MW
LayerCount: 2
Fore
SplineSet
248 41 m 0
 317.8 41 366 77 366 176 c 0
 366 227 366 328 249 328 c 2
 176 328 l 2
 165 328 158 343 158 354 c 0
 158 365 165 381 176 381 c 2
 223 381 l 2
 333.8 381 336 459 336 506 c 0
 336 550 303.8 608 249 608 c 0
 126 608 128 550 104 469 c 1
 49 471 l 1
 64 618 l 1
 143 648 191 658 251 658 c 0
 399 658 484 618 484 516 c 0
 484 437 448.8 381 367 360 c 1
 476.8 339 526 303 526 182 c 0
 526 39.8 395.8 -12 246 -12 c 0
 165 -12 117 2 80 31 c 0
 48 56 23 89 23 121 c 0
 23 152 40 177 68 177 c 0
 102 177 119 161 132 123 c 0
 157 50 172 41 248 41 c 0
EndSplineSet
EndChar

StartChar: uni0418
Encoding: 1048 1048 77
Width: 746
GlyphClass: 2
Flags: MW
LayerCount: 2
Fore
SplineSet
93 445 m 2
 93 520 89 588 81 645 c 1
 83 648 l 1
 83 648 131 645 165 645 c 0
 200 645 248 648 248 648 c 1
 249 645 l 1
 241 592 237 520 237 445 c 2
 237 200 l 2
 237 194.4 237.1 188.8 237.1 183.3 c 1
 506.9 535.6 l 1
 505 575.2 501.6 612 497 645 c 1
 499 648 l 1
 499 648 547 645 581 645 c 0
 616 645 664 648 664 648 c 1
 665 645 l 1
 657 592 653 520 653 445 c 2
 653 200 l 2
 653 125 657 57 665 0 c 1
 663 -3 l 1
 663 -3 615 0 581 0 c 0
 546 0 498 -3 498 -3 c 1
 497 0 l 1
 505 54 509 125 509 200 c 2
 509 445 l 2
 509 450.8 508.9 456.6 508.9 462.3 c 1
 239.1 109.9 l 1
 241 70.1 244.3 33.2 249 0 c 1
 247 -3 l 1
 247 -3 199 0 165 0 c 0
 130 0 82 -3 82 -3 c 1
 81 0 l 1
 89 54 93 125 93 200 c 2
 93 445 l 2
EndSplineSet
EndChar

StartChar: uni0423
Encoding: 1059 1059 83
Width: 620
GlyphClass: 2
Flags: MW
LayerCount: 2
Fore
SplineSet
260.1 87.4 m 1
 183 283 54.8 569.6 16 648 c 1
 33 645 99 645 116 645 c 0
 133 645 186 645 203 648 c 1
 232 530 250.6 458.7 344 241 c 1
 402.9 380.6 459.9 550.5 486 648 c 1
 498 645 547 645 558 645 c 0
 569 645 591 645 603 648 c 1
 374 131 l 2
 348.3 72.9 334.4 45.5 299.5 13 c 0
 258.6 -25.1 212.7 -39.9 164.3 -39.9 c 0
 132.6 -39.9 69.3 -31 53.3 -17.5 c 1
 52.7 -14.4 l 1
 66.3 2.8 92.6 72.8 96.7 101.5 c 1
 126.3 103.4 l 1
 134.8 80.8 167.4 34.7 201.1 34.7 c 0
 224.5 34.7 249.5 63.9 260.1 87.4 c 1
EndSplineSet
EndChar

StartChar: uni0426
Encoding: 1062 1062 85
Width: 780
GlyphClass: 2
Flags: MW
LayerCount: 2
Fore
SplineSet
650 200 m 2
 650 90 676.2 35 710 32 c 0
 734.9 29.8 740 20.7 740 11 c 2
 728 -138 l 1
 726 -141 l 1
 654 -141 l 1
 652 -138 l 1
 641.1 -65.4 599.7 0 520 0 c 2
 161 0 l 2
 127 0 80 -3 80 -3 c 1
 79 0 l 1
 87 54 89 125 89 200 c 2
 89 445 l 2
 89 520 86 588 78 645 c 1
 80 648 l 1
 80 648 127 645 161 645 c 0
 196 645 242 648 242 648 c 1
 243 645 l 1
 235 592 233 520 233 445 c 2
 233 200 l 2
 233 183 234 94 241 70 c 0
 244 61 251 55 269 55 c 2
 470 55 l 2
 488 55 495 61 498 70 c 0
 505 94 506 183 506 200 c 2
 506 445 l 2
 506 520 504 592 496 645 c 1
 497 648 l 1
 497 648 543 645 578 645 c 0
 612 645 659 648 659 648 c 1
 661 645 l 1
 653 588 650 520 650 445 c 2
 650 200 l 2
EndSplineSet
EndChar

StartChar: uni0427
Encoding: 1063 1063 86
Width: 694
GlyphClass: 2
Flags: MW
LayerCount: 2
Fore
SplineSet
229 445 m 2
 229 426 l 2
 229 344 240 317 312 317 c 0
 338.6 317 394.6 320.3 453 354 c 1
 453 445 l 2
 453 520 449 588 441 645 c 1
 443 648 l 1
 443 648 491 645 525 645 c 0
 560 645 608 648 608 648 c 1
 609 645 l 1
 601 592 597 520 597 445 c 2
 597 200 l 2
 597 125 601 57 609 0 c 1
 607 -3 l 1
 607 -3 559 0 525 0 c 0
 490 0 442 -3 442 -3 c 1
 441 0 l 1
 449 54 453 125 453 200 c 2
 453 300.6 l 1
 382.3 257.8 294.9 244 241 244 c 0
 127 244 85 323 85 422 c 2
 85 445 l 2
 85 520 83 588 75 645 c 1
 77 648 l 1
 77 648 123 645 157 645 c 0
 192 645 238 648 238 648 c 1
 239 645 l 1
 231 592 229 520 229 445 c 2
EndSplineSet
EndChar

StartChar: uni0428
Encoding: 1064 1064 87
Width: 1018
GlyphClass: 2
Flags: MW
LayerCount: 2
Fore
SplineSet
915 200 m 2
 915.3 125 917 57 925 0 c 1
 923 -3 l 1
 923 -3 877 0 843 0 c 2
 176 0 l 2
 141 0 94 -3 94 -3 c 1
 93 0 l 1
 101 54 103 125 103 200 c 2
 103 445 l 2
 103 520 100 588 92 645 c 1
 94 648 l 1
 94 648 141 645 175 645 c 0
 210 645 256 648 256 648 c 1
 257 645 l 1
 249 592 247 520 247 445 c 2
 247 209 l 2
 247 192 248 92 255 68 c 0
 258 59 265 53 283 53 c 2
 400 53 l 2
 418 53 425 59 428 68 c 0
 435 92 436 192 436 209 c 2
 436 445 l 2
 436 520 433 588 425 645 c 1
 427 648 l 1
 427 648 474 645 508 645 c 0
 543 645 589 648 589 648 c 1
 590 645 l 1
 582 592 580 520 580 445 c 2
 580 209 l 2
 580 192 581 92 588 68 c 0
 591 59 598 53 616 53 c 2
 735 53 l 2
 753 53 760 59 763 68 c 0
 770 92 771 192 771 209 c 2
 771 445 l 2
 771 520 769 592 761 645 c 1
 762 648 l 1
 762 648 808 645 843 645 c 0
 877 645 924 648 924 648 c 1
 926 645 l 1
 918 588 915 520 915 445 c 2
 915 200 l 2
EndSplineSet
EndChar

StartChar: uni0429
Encoding: 1065 1065 88
Width: 1049
GlyphClass: 2
Flags: MW
LayerCount: 2
Fore
SplineSet
814 0 m 2
 176 0 l 2
 141 0 94 -3 94 -3 c 1
 93 0 l 1
 101 54 103 125 103 200 c 2
 103 445 l 2
 103 520 100 588 92 645 c 1
 94 648 l 1
 94 648 141 645 175 645 c 0
 210 645 256 648 256 648 c 1
 257 645 l 1
 249 592 247 520 247 445 c 2
 247 209 l 2
 247 192 248 92 255 68 c 0
 258 59 265 53 283 53 c 2
 400 53 l 2
 418 53 425 59 428 68 c 0
 435 92 436 192 436 209 c 2
 436 445 l 2
 436 520 433 588 425 645 c 1
 427 648 l 1
 427 648 474 645 508 645 c 0
 543 645 589 648 589 648 c 1
 590 645 l 1
 582 592 580 520 580 445 c 2
 580 209 l 2
 580 192 581 92 588 68 c 0
 591 59 598 53 616 53 c 2
 735 53 l 2
 753 53 760 59 763 68 c 0
 770 92 771 192 771 209 c 2
 771 445 l 2
 771 520 769 592 761 645 c 1
 762 648 l 1
 762 648 808 645 843 645 c 0
 877 645 924 648 924 648 c 1
 926 645 l 1
 918 588 915 520 915 445 c 2
 915 200 l 2
 915 90 950.2 35 984 32 c 0
 1008.9 29.8 1014 20.7 1014 11 c 2
 1002 -138 l 1
 1000 -141 l 1
 919 -141 l 1
 917 -138 l 1
 906.1 -65.4 893.7 0 814 0 c 2
EndSplineSet
EndChar

StartChar: uni042A
Encoding: 1066 1066 89
Width: 759
GlyphClass: 2
Flags: MW
LayerCount: 2
Fore
SplineSet
395 85 m 2
 395 56 403 41 475 41 c 0
 534 41 582 68 582 180 c 0
 582 281 542 325 484 325 c 2
 484 325 411 325 395 325 c 1
 395 85 l 2
253 200 m 2
 253 445 l 2
 253 485 251.9 523 249.6 558 c 1
 143 553.3 47 542 47 542 c 1
 45 546 l 1
 46 554 47 593 47 603 c 0
 47 613 46 631 45 645 c 1
 47 648 l 1
 63 646 86 644.6 107 645 c 2
 242 645 l 1
 242 645 290 645 325 645 c 0
 359 645 405 648 405 648 c 1
 407 645 l 1
 399 588 395 520 395 445 c 2
 395 376 l 1
 525 376 l 2
 703 376 734 272 734 187 c 0
 734 135 720 66 664 27 c 0
 629 2 573 -7 502 -7 c 0
 476 -7 355 0 325 0 c 0
 291 0 243 -3 243 -3 c 1
 241 0 l 1
 249 57 253 125 253 200 c 2
EndSplineSet
EndChar

StartChar: uni042C
Encoding: 1068 1068 91
Width: 599
GlyphClass: 2
Flags: MW
LayerCount: 2
Fore
SplineSet
235 90 m 2
 235 61 243 46 315 46 c 0
 374 46 422 68 422 180 c 0
 422 281 382 325 324 325 c 2
 324 325 251 325 235 325 c 1
 235 90 l 2
93 200 m 2
 93 445 l 2
 93 520 89 591 81 645 c 1
 82 648 l 1
 82 648 130 645 165 645 c 0
 199 645 245 648 245 648 c 1
 247 645 l 1
 239 588 235 520 235 445 c 2
 235 376 l 1
 365 376 l 2
 543 376 574 272 574 187 c 0
 574 135 560 66 504 27 c 0
 468.7 2.4 413.1 -7 342 -7 c 0
 316 -7 195 0 165 0 c 0
 131 0 83 -3 83 -3 c 1
 81 0 l 1
 89 57 93 125 93 200 c 2
EndSplineSet
EndChar

StartChar: uni042D
Encoding: 1069 1069 92
Width: 674
GlyphClass: 2
Flags: MW
LayerCount: 2
Fore
SplineSet
292 603 m 0
 202 603 146 561 105 479 c 1
 75 480 l 1
 71 531 67 561 55 610 c 1
 57 613 l 1
 57 613 160 658 282 658 c 0
 499 658 616 513 616 331 c 0
 616 131 483 -12 279 -12 c 0
 157 -12 54 33 54 33 c 1
 52 36 l 1
 64 85 68 115 72 166 c 1
 102 167 l 1
 143 85 199 43 289 43 c 0
 400 43 459 167 459 307 c 1
 429 281 398 266 359 266 c 0
 327 266 300 274 274 285 c 0
 251 295 223 304 194 304 c 0
 156 304 140 288 132 288 c 0
 128 288 123 292 123 300 c 0
 123 325 187 378 246 378 c 0
 281 378 308 372 330 361 c 0
 351 351 372 346 400 346 c 0
 429 346 445 352 459 358 c 1
 451 483 391 603 292 603 c 0
EndSplineSet
EndChar

StartChar: uni042E
Encoding: 1070 1070 93
Width: 964
GlyphClass: 2
Flags: MW
LayerCount: 2
Fore
SplineSet
608 608 m 0
 533.9 608 478 537 478 327 c 0
 478 135 531 40 621 40 c 0
 704 40 749 131 749 310 c 0
 749 518 703 608 608 608 c 0
93 445 m 2
 93 520 89 588 81 645 c 1
 83 648 l 1
 83 648 131 645 165 645 c 0
 200 645 248 648 248 648 c 1
 249 645 l 1
 241 592 237 520 237 445 c 2
 237 354 l 1
 316 354 l 1
 332 533 423 658 610 658 c 0
 812 658 912 527 912 329 c 0
 912 129 830 -10 616 -10 c 0
 426 -10 317 100 315 294 c 1
 237 294 l 1
 237 200 l 2
 237 125 241 57 249 0 c 1
 247 -3 l 1
 247 -3 199 0 165 0 c 0
 130 0 82 -3 82 -3 c 1
 81 0 l 1
 89 54 93 125 93 200 c 2
 93 445 l 2
EndSplineSet
EndChar

StartChar: uni042F
Encoding: 1071 1071 94
Width: 667
GlyphClass: 2
Flags: MW
LayerCount: 2
Fore
SplineSet
359 602 m 0
 298 602 251 600 251 482 c 0
 251 357 297 352 394 352 c 2
 428 352 l 1
 428 553 l 2
 428 582 421 602 359 602 c 0
246.7 311.8 m 1
 163.4 332.1 96 378.4 96 483 c 0
 96 548 120 592 161 618 c 0
 207 648 274 652 340 652 c 0
 365 652 466 645 496 645 c 0
 530 645 580 648 580 648 c 1
 582 645 l 1
 574 588 570 520 570 445 c 2
 570 200 l 2
 570 125 574 54 582 0 c 1
 581 -3 l 1
 581 -3 535 0 500 0 c 0
 466 0 420 -3 420 -3 c 1
 418 0 l 1
 426 57 428 125 428 200 c 2
 428 296 l 1
 416.1 296 403.7 296.1 391 296.3 c 1
 362.6 261.7 336.2 214.6 309 176 c 0
 259 104 215 31 204 -3 c 1
 185 0 145 0 126 0 c 0
 106 0 53 0 33 -3 c 1
 31 0 l 1
 81.4 57.1 183.5 227.4 246.7 311.8 c 1
EndSplineSet
EndChar

StartChar: uni0447
Encoding: 1095 1095 95
Width: 588
GlyphClass: 2
Flags: MW
LayerCount: 2
Fore
SplineSet
77 291 m 0
 77 350.5 74 376 66 429 c 1
 67 432 l 1
 67 432 107 429 142 429 c 0
 176 429 216 432 216 432 c 1
 218 429 l 1
 210 372 209 355.5 209 293 c 0
 209 223 212.8 176 252 176 c 0
 301 176 338 203 370 235 c 1
 370 250 l 2
 370 321 369 375 360 429 c 1
 361 432 l 1
 361 432 401 429 436 429 c 0
 470 429 510 432 510 432 c 1
 512 429 l 1
 504 374.5 503 325 502 250 c 1
 502 179 l 2
 502 104 503 57 512 0 c 1
 510 -3 l 1
 510 -3 470 0 436 0 c 0
 401 0 361 -3 361 -3 c 1
 360 0 l 1
 369 54 370 105 370 179 c 2
 370 180 l 1
 331 151 273 117 213 117 c 0
 167.7 117 130.4 120.6 109.5 140 c 0
 79.7 167.8 77 221.8 77 291 c 0
EndSplineSet
EndChar

StartChar: uni0448
Encoding: 1096 1096 96
Width: 941
GlyphClass: 2
Flags: MW
LayerCount: 2
Fore
SplineSet
854 200 m 2
 854 125.5 856 54 864 0 c 1
 863 -3 l 1
 863 -3 845 0 811 0 c 2
 184 0 l 2
 150 0 77 -3 77 -3 c 1
 76 0 l 1
 84 54 86 125 86 200 c 2
 86 250 l 2
 86 325 85 372 76 429 c 1
 78 432 l 1
 78 432 119 429 153 429 c 0
 188 429 227 432 227 432 c 1
 228 429 l 1
 219 375 218 324 218 250 c 2
 218 200 l 2
 218 183 219 87 226 63 c 1
 233 54 237 50 252 50 c 2
 370 50 l 2
 385 50 389 54 396 63 c 1
 403 87 404 183 404 200 c 2
 404 250 l 2
 404 325 403 372 394 429 c 1
 396 432 l 1
 396 432 436 429 470 429 c 0
 505 429 545 432 545 432 c 1
 546 429 l 1
 537 375 536 324 536 250 c 2
 536 200 l 2
 536 183 537 87 544 63 c 1
 551 54 555 50 570 50 c 2
 687 50 l 2
 702 50 707 54 714 63 c 1
 721 87 722 183 722 200 c 2
 722 249 l 2
 722 325 720.5 372 712 429 c 1
 714 432 l 1
 714 432 754.7 429 789 429 c 0
 824 429 864 432 864 432 c 1
 865 429 l 1
 856.5 375.5 854 324.1 854 249 c 2
 854 200 l 2
EndSplineSet
EndChar

StartChar: uni0449
Encoding: 1097 1097 97
Width: 961
GlyphClass: 2
Flags: MW
LayerCount: 2
Fore
SplineSet
743 0 m 2
 184 0 l 2
 150 0 77 -3 77 -3 c 1
 76 0 l 1
 84 54 86 125 86 200 c 2
 86 250 l 2
 86 325 85 372 76 429 c 1
 78 432 l 1
 78 432 119 429 153 429 c 0
 188 429 227 432 227 432 c 1
 228 429 l 1
 219 375 218 324 218 250 c 2
 218 200 l 2
 218 183 219 87 226 63 c 1
 233 54 237 50 252 50 c 2
 370 50 l 2
 385 50 389 54 396 63 c 1
 403 87 404 183 404 200 c 2
 404 250 l 2
 404 325 403 372 394 429 c 1
 396 432 l 1
 396 432 436 429 470 429 c 0
 505 429 545 432 545 432 c 1
 546 429 l 1
 537 375 536 324 536 250 c 2
 536 200 l 2
 536 183 537 87 544 63 c 1
 551 54 555 50 570 50 c 2
 687 50 l 2
 702 50 707 54 714 63 c 1
 721 87 722 183 722 200 c 2
 722 249 l 2
 722 325 720.5 372 712 429 c 1
 714 432 l 1
 714 432 754.7 429 789 429 c 0
 824 429 864 432 864 432 c 1
 865 429 l 1
 856.5 375.5 854 324.1 854 249 c 2
 854 200 l 2
 854 90 860.2 35 894 32 c 0
 918.9 29.8 924 20.7 924 11 c 2
 912 -125 l 1
 910 -128 l 1
 848 -128 l 1
 846 -125 l 1
 835.1 -52.4 822.7 0 743 0 c 2
EndSplineSet
EndChar

StartChar: uni044A
Encoding: 1098 1098 98
Width: 666
GlyphClass: 2
Flags: MW
LayerCount: 2
Fore
SplineSet
488 131 m 0
 488 184 471 219 400 219 c 2
 353 219 l 1
 353 88 l 2
 353 53 367 43 396 43 c 0
 446 43 488 49 488 131 c 0
218.6 360.7 m 1
 136.6 358.7 78 346 34 327 c 1
 29 331 l 1
 31 345 31 403 29 429 c 1
 31 431 l 1
 46 430 67 429 86 429 c 2
 287 429 l 2
 321 429 361 432 361 432 c 1
 363 429 l 1
 354 372 353 343 353 268 c 2
 353 265 l 1
 452 265 l 2
 548 265 630 230 630 136 c 0
 630 52 568 -2 457 -2 c 0
 390.7 -2 353.3 0 287 0 c 0
 252 0 212 -3 212 -3 c 1
 211 0 l 1
 220 54 221 105 221 179 c 2
 221 250 l 2
 221 291.6 220.7 327.4 218.6 360.7 c 1
EndSplineSet
EndChar

StartChar: uni044B
Encoding: 1099 1099 99
Width: 791
GlyphClass: 2
Flags: MW
LayerCount: 2
Fore
SplineSet
573 250 m 2
 573 321 572 375 563 429 c 1
 564 432 l 1
 564 432 604 429 639 429 c 0
 673 429 713 432 713 432 c 1
 715 429 l 1
 707 374.5 706 325 705 250 c 1
 705 179 l 2
 705 104 706 57 715 0 c 1
 713 -3 l 1
 713 -3 673 0 639 0 c 0
 604 0 564 -3 564 -3 c 1
 563 0 l 1
 572 54 573 105 573 179 c 2
 573 250 l 2
EndSplineSet
Refer: 100 1100 N 1 0 0 1 0 0 2
Colour: ff00ff
EndChar

StartChar: uni044C
Encoding: 1100 1100 100
Width: 531
GlyphClass: 2
Flags: MW
LayerCount: 2
Fore
SplineSet
353 131 m 0
 353 184 336 219 265 219 c 2
 218 219 l 1
 218 88 l 2
 218 53 232.3 43 261 43 c 0
 311 43 353 49 353 131 c 0
218 268 m 2
 218 265 l 1
 317 265 l 2
 413 265 495 230 495 136 c 0
 495 52 433 -2 322 -2 c 0
 255.7 -2 218.3 0 152 0 c 0
 117 0 77 -3 77 -3 c 1
 76 0 l 1
 85 54 86 105 86 179 c 2
 86 250 l 2
 86 321 85 375 76 429 c 1
 77 432 l 1
 77 432 117 429 152 429 c 0
 186 429 226 432 226 432 c 1
 228 429 l 1
 219 372 218 343 218 268 c 2
EndSplineSet
EndChar

StartChar: uni044D
Encoding: 1101 1101 101
Width: 479
GlyphClass: 2
Flags: MW
LayerCount: 2
Fore
SplineSet
292.4 250 m 1
 284.3 337.8 246.6 390 194 390 c 0
 149.9 390 119 370 98 325 c 1
 65 326 l 1
 42 408 l 1
 44 411 l 1
 75 427 171 439 221 439 c 0
 350 439 438 354 438 218 c 0
 438 78.9 328 -10 227 -10 c 0
 177 -10 75 2 44 18 c 1
 42 21 l 1
 65 103 l 1
 98 104 l 1
 119 59 145.9 39 190 39 c 0
 248.5 39 289.7 90.5 293.7 196 c 1
 155 196 l 2
 152 196 150.5 197 151 200 c 2
 158 246 l 2
 158.6 249.8 160 250 162 250 c 2
 292.4 250 l 1
EndSplineSet
EndChar

StartChar: uni044E
Encoding: 1102 1102 102
Width: 775
GlyphClass: 2
Flags: MW
LayerCount: 2
Fore
SplineSet
506 392 m 0
 439 392 420 330.5 420 216 c 0
 420 93.5 446.4 39 513 39 c 0
 572.4 39 597 97.5 597 211 c 0
 597 332.5 574.4 392 506 392 c 0
86 250 m 2
 86 321 85 375 76 429 c 1
 77 432 l 1
 77 432 117 429 152 429 c 0
 186 429 226 432 226 432 c 1
 228 429 l 1
 220 375 219 325 218 250 c 1
 218 242 l 1
 284 242 l 1
 296 361 371 439 509 439 c 0
 682 439 734 321 734 217 c 0
 734 117 679 -10 512 -10 c 0
 358 -10 289.4 90.5 284 193 c 1
 218 193 l 1
 218 179 l 2
 218 104 219 57 228 0 c 1
 226 -3 l 1
 226 -3 186 0 152 0 c 0
 117 0 77 -3 77 -3 c 1
 76 0 l 1
 85 54 86 105 86 179 c 2
 86 250 l 2
EndSplineSet
EndChar

StartChar: uni044F
Encoding: 1103 1103 103
Width: 532
GlyphClass: 2
Flags: MW
LayerCount: 2
Fore
SplineSet
314 235 m 1
 314 357 l 2
 314 389 299 393 260 393 c 0
 208.5 393 185 368 185 321 c 0
 185 271 203 235 249 235 c 2
 314 235 l 1
159 201.5 m 1
 159 206.4 l 1
 109.7 215.5 48 249.8 48 310 c 0
 48 367.5 76 432 237 432 c 0
 274 432 322.4 429 377 429 c 0
 412 429 455 432 455 432 c 1
 456 429 l 1
 447 375 446 324 446 251 c 2
 446 178 l 2
 446 108 447 54 456 0 c 1
 455 -3 l 1
 455 -3 412 0 377 0 c 0
 343 0 306 -3 306 -3 c 1
 304 0 l 1
 313 57 314 95 314 169 c 2
 314 190 l 1
 305 190 l 2
 259.5 190 251 152 228 104 c 0
 211 70 200 38 176 -3 c 1
 163 -1 115 0 100 0 c 0
 85 0 25 -1 18 -3 c 1
 16 3 l 1
 65 57 78 94 118 151 c 0
 134.4 174 147 191.4 159 201.5 c 1
EndSplineSet
EndChar

StartChar: uni04D8
Encoding: 1240 1240 112
Width: 702
GlyphClass: 2
Flags: MW
LayerCount: 2
Fore
SplineSet
512 250 m 1
 193 253 l 1
 229 97 280 32 355 32 c 0
 439 32 490 115 512 250 c 1
105 494 m 1
 75 522 l 1
 151 620 226.5 658 336 658 c 0
 573 658 666 485 666 327 c 0
 666 131 546 -11 348 -11 c 0
 142 -11 57 92 40 305 c 1
 52 320 l 1
 515 305 l 1
 516 314 516 317 516 327 c 0
 516 505 433 577 332 577 c 0
 252 577 166 552 105 494 c 1
EndSplineSet
Colour: ff00ff
EndChar

StartChar: uni04D9
Encoding: 1241 1241 113
Width: 450
GlyphClass: 2
Flags: MW
LayerCount: 2
Fore
SplineSet
325 173 m 1
 169 173 l 1
 169 85.5 193.1 39 234 39 c 0
 262.3 39 281.8 51.7 294.5 69 c 0
 309.3 89.2 321.5 124 325 173 c 1
50 321 m 1
 40 321 34 339 34 352 c 1
 88.5 415 160 438 232 438 c 0
 307 438 365.8 421.5 400 386 c 0
 441.3 343.1 463 281 463 222 c 0
 463 139.1 430 79 381.5 39 c 0
 341.8 6.3 282 -11 227 -11 c 0
 73 -11 38 89 38 214 c 1
 44 220 l 1
 44 220 129.5 218 229.5 218 c 2
 329 218 l 1
 329 263.9 317.8 299 295.8 323 c 0
 272 348.9 235.6 362 187 362 c 0
 145 362 96.5 358.5 50 321 c 1
EndSplineSet
Colour: ff00ff
EndChar

StartChar: uni1E03
Encoding: 7683 7683 126
Width: 586
GlyphClass: 2
Flags: MW
LayerCount: 2
Fore
SplineSet
235.3 53.8 m 0
 250.6 44 274 40 308 40 c 0
 336.3 40 366.5 51.5 384 87.5 c 0
 399.4 119.1 406 165.2 406 222 c 0
 406 319 373 371 312 371 c 0
 287.9 371 267 363 218 328 c 1
 218 108 l 2
 218 80.4 220.9 63 235.3 53.8 c 0
218 500 m 2
 218 384 l 1
 278 429 313 439 356 439 c 0
 409.1 439 453.6 425.2 493 389 c 0
 529.8 355.2 548 301 548 242 c 0
 548 152.6 512.5 84.6 464 43 c 0
 420.2 5.5 366.2 -10 314 -10 c 0
 278.4 -10 233.8 -8.7 217.7 -2 c 0
 201.7 4.6 171.7 11 161 11 c 0
 146.5 11 101.2 -9 89 -11 c 1
 83 -9.7 80.7 -8 78 -6 c 1
 82.2 15.8 86 95 86 134 c 2
 86 474 l 2
 86 550 81.7 619.3 74 662 c 1
 76 665 l 1
 116.5 668 195.9 688 221 698 c 1
 227.3 698 230 695 230 688 c 0
 229.1 680.7 228.2 673.4 227.4 666.3 c 1
 238 672.4 250.5 676 264 676 c 0
 304 676 335 645 335 607 c 0
 335 569 304 538 264 538 c 0
 246.7 538 231 543.8 218.8 553.5 c 1
 218.2 536.7 218 519.1 218 500 c 2
EndSplineSet
Colour: ff00ff
EndChar

StartChar: uni1E14
Encoding: 7700 7700 143
Width: 594
GlyphClass: 2
Flags: MW
LayerCount: 2
Fore
SplineSet
11.7 964.8 m 1
 121 877.7 l 2
 131.1 869.6 132.6 862.8 132.6 856.6 c 0
 132.6 848.7 126.4 834.6 120.2 834.6 c 0
 114 834.6 107.3 836.8 90.2 842.5 c 2
 -26.8 881.3 l 1
 -32.2 893.6 l 1
 -25.3 919.1 -9.4 948.3 11.7 964.8 c 1
EndSplineSet
Refer: 1332 772 N 1 0 0 1 515 195 2
Refer: 28 69 N 1 0 0 1 0 0 2
Colour: ff00ff
EndChar

StartChar: uni1E15
Encoding: 7701 7701 144
Width: 508
GlyphClass: 2
Flags: MW
LayerCount: 2
Fore
SplineSet
228.2 767.9 m 1
 283.4 656.3 l 2
 286.6 650 290.6 640.1 290.6 632.9 c 0
 290.6 624.8 278.6 618.5 271.4 618.5 c 0
 265 618.5 254.6 623 241 636.5 c 2
 144.2 731 l 1
 145.8 740.9 l 1
 152.2 749 183.4 769.7 212.2 769.7 c 0
 216.2 769.7 225 768.8 228.2 767.9 c 1
EndSplineSet
Refer: 409 275 N 1 0 0 1 0 0 2
Colour: ff00ff
EndChar

StartChar: uni1E16
Encoding: 7702 7702 145
Width: 594
GlyphClass: 2
Flags: MW
LayerCount: 2
Fore
SplineSet
539 963.8 m 1
 560.1 947.3 576 918.1 582.9 892.6 c 1
 577.5 880.3 l 1
 460.4 841.5 l 2
 443.3 835.8 436.6 833.6 430.4 833.6 c 0
 424.2 833.6 418.1 847.7 418.1 855.6 c 0
 418.1 861.8 419.5 868.6 429.6 876.7 c 2
 539 963.8 l 1
EndSplineSet
Refer: 1332 772 N 1 0 0 1 458 195 2
Refer: 28 69 N 1 0 0 1 0 0 2
Colour: ff00ff
EndChar

StartChar: uni1E17
Encoding: 7703 7703 146
Width: 508
GlyphClass: 2
Flags: MW
LayerCount: 2
Fore
SplineSet
402 530 m 2
 128 530 l 2
 117 530 113 544 113 553 c 0
 113 565 125 590 138 590 c 2
 185.3 590 l 2
 185.2 590.3 185.2 590.6 185.2 590.9 c 0
 185.2 596.3 186.8 604.4 191.6 612.5 c 2
 258 730.4 l 1
 260.4 731.3 266.8 732.2 270.8 732.2 c 0
 294.8 732.2 318 719.6 324.4 710.6 c 1
 332.4 689.9 l 1
 236.4 592.7 l 2
 235.4 591.7 234.3 590.8 233.3 590 c 2
 414 590 l 2
 424 590 428 576 428 568 c 0
 428 555 416 530 402 530 c 2
EndSplineSet
Refer: 278 101 N 1 0 0 1 0 0 2
Colour: ff00ff
EndChar

StartChar: uni1E23
Encoding: 7715 7715 158
Width: 606
GlyphClass: 2
Flags: MW
LayerCount: 2
Fore
SplineSet
86 474 m 2
 86 550 81.7 619.3 74 662 c 1
 76 665 l 1
 116.5 668 193.9 688 219 698 c 1
 225.3 698 228 695 228 688 c 0
 222.4 643.3 219.7 603.8 218.6 556.6 c 1
 226.8 585.6 253.8 607 287 607 c 0
 327 607 358 576 358 538 c 0
 358 500 327 469 287 469 c 0
 253.1 469 225.7 491.3 218.1 521.3 c 1
 218.1 514.4 218 507.3 218 500 c 2
 218 438 l 1
 214 351 l 1
 218 349 l 1
 264 408 338 439 389 439 c 0
 479 439 518 381 518 291 c 2
 518 180 l 2
 518 104 519 57 528 0 c 1
 526 -3 l 1
 526 -3 499 0 465 0 c 0
 430 0 381 -3 381 -3 c 1
 380 0 l 1
 386 53 386 105 386 180 c 2
 386 269 l 2
 386 342 361 362 334 362 c 0
 298 362 256 332 218 282 c 1
 218 180 l 2
 218 104 219 57 224 0 c 1
 222 -3 l 1
 222 -3 189.3 0 155 0 c 0
 120 0 75 -3 75 -3 c 1
 74 0 l 1
 82.5 53.5 86 105 86 180 c 2
 86 474 l 2
EndSplineSet
Colour: ff00ff
EndChar

StartChar: uni1E27
Encoding: 7719 7719 162
Width: 606
GlyphClass: 2
Flags: MW
LayerCount: 2
Fore
SplineSet
345 572 m 0
 345 597 365 618 390 618 c 0
 415 618 436 597 436 572 c 0
 436 547 415 527 390 527 c 0
 365 527 345 547 345 572 c 0
86 474 m 2
 86 550 81.7 619.3 74 662 c 1
 76 665 l 1
 116.5 668 193.9 688 219 698 c 1
 225.3 698 228 695 228 688 c 0
 224.4 658.9 222 631.9 220.4 603.6 c 1
 228.6 612.4 240.1 618 253 618 c 0
 278 618 298 597 298 572 c 0
 298 547 278 527 253 527 c 0
 239 527 226.5 533.3 218.3 543.2 c 1
 218.1 529.6 218 515.3 218 500 c 2
 218 438 l 1
 214 351 l 1
 218 349 l 1
 264 408 338 439 389 439 c 0
 479 439 518 381 518 291 c 2
 518 180 l 2
 518 104 519 57 528 0 c 1
 526 -3 l 1
 526 -3 499 0 465 0 c 0
 430 0 381 -3 381 -3 c 1
 380 0 l 1
 386 53 386 105 386 180 c 2
 386 269 l 2
 386 342 361 362 334 362 c 0
 298 362 256 332 218 282 c 1
 218 180 l 2
 218 104 219 57 224 0 c 1
 222 -3 l 1
 222 -3 189.3 0 155 0 c 0
 120 0 75 -3 75 -3 c 1
 74 0 l 1
 82.5 53.5 86 105 86 180 c 2
 86 474 l 2
EndSplineSet
Colour: ff80cc
EndChar

StartChar: uni1E28
Encoding: 7720 7720 163
Width: 764
GlyphClass: 2
Flags: MW
LayerCount: 2
Fore
SplineSet
527 445 m 2
 527 520 523 588 515 645 c 1
 517 648 l 1
 517 648 565 645 599 645 c 0
 634 645 682 648 682 648 c 1
 683 645 l 1
 675 592 671 520 671 445 c 2
 671 200 l 2
 671 125 675 57 683 0 c 1
 681 -3 l 1
 681 -3 633 0 599 0 c 0
 564 0 516 -3 516 -3 c 1
 515 0 l 1
 523 54 527 125 527 200 c 2
 527 311 l 1
 237 311 l 1
 237 200 l 2
 237 125 241 57 249 0 c 1
 247 -3 l 1
 247 -3 205.5 -0.4 172.4 -0 c 1
 157 -37 l 1
 202.4 -46.1 249.9 -61.5 249.9 -116.1 c 0
 249.9 -166.3 199.1 -208 134.3 -208 c 0
 102.3 -208 86.3 -200 69 -189 c 1
 69 -179 72.3 -167 82.3 -157.5 c 1
 109.3 -167.5 120.3 -171.5 140.3 -171.5 c 0
 170.3 -171.5 187 -163 187 -136 c 0
 187 -98.4 134 -94 98 -92 c 1
 92 -86 l 1
 137 -0.5 l 1
 108.8 -1.3 82 -3 82 -3 c 2
 81 0 l 1
 89 54 93 125 93 200 c 2
 93 445 l 2
 93 520 89 588 81 645 c 1
 83 648 l 1
 83 648 131 645 165 645 c 0
 200 645 248 648 248 648 c 1
 249 645 l 1
 241 592 237 520 237 445 c 2
 237 363 l 1
 527 363 l 1
 527 445 l 2
EndSplineSet
Colour: ff00ff
EndChar

StartChar: uni1E29
Encoding: 7721 7721 164
Width: 606
GlyphClass: 2
Flags: MW
LayerCount: 2
Fore
SplineSet
69 -90 m 1
 63 -84 l 1
 106.5 -1.3 l 1
 88.5 -2.1 75 -3 75 -3 c 2
 74 0 l 1
 82.5 53.5 86 105 86 180 c 2
 86 474 l 2
 86 550 81.7 619.3 74 662 c 1
 76 665 l 1
 116.5 668 193.9 688 219 698 c 1
 225.3 698 228 695 228 688 c 0
 220.3 626.7 218 575 218 500 c 2
 218 438 l 1
 214 351 l 1
 218 349 l 1
 264 408 338 439 389 439 c 0
 479 439 518 381 518 291 c 2
 518 180 l 2
 518 104 519 57 528 0 c 1
 526 -3 l 1
 526 -3 499 0 465 0 c 0
 430 0 381 -3 381 -3 c 1
 380 0 l 1
 386 53 386 105 386 180 c 2
 386 269 l 2
 386 342 361 362 334 362 c 0
 298 362 256 332 218 282 c 1
 218 180 l 2
 218 104 219 57 224 0 c 1
 222 -3 l 1
 222 -3 189.3 0 155 0 c 0
 151 0 146.7 0 142.5 -0.1 c 1
 128 -35 l 1
 173.4 -44.1 220.9 -59.5 220.9 -114.1 c 0
 220.9 -164.3 170.1 -206 105.3 -206 c 0
 73.3 -206 57.3 -198 40 -187 c 1
 40 -177 43.3 -165 53.3 -155.5 c 1
 80.3 -165.5 91.3 -169.5 111.3 -169.5 c 0
 141.3 -169.5 158 -161 158 -134 c 0
 158 -96.4 105 -92 69 -90 c 1
EndSplineSet
Colour: ff00ff
EndChar

StartChar: uni1E2E
Encoding: 7726 7726 169
Width: 330
GlyphClass: 2
Flags: MW
LayerCount: 2
Fore
SplineSet
229 1021.8 m 1
 250.1 1005.3 266 976.1 272.9 950.6 c 1
 267.5 938.3 l 1
 150.4 899.5 l 2
 133.3 893.8 126.6 891.6 120.4 891.6 c 0
 114.2 891.6 108.1 905.7 108.1 913.6 c 0
 108.1 919.8 109.5 926.6 119.6 934.7 c 2
 229 1021.8 l 1
EndSplineSet
Refer: 350 207 N 1 0 0 1 0 0 2
Colour: ff00ff
EndChar

StartChar: uni1E2F
Encoding: 7727 7727 170
Width: 343
GlyphClass: 2
Flags: MW
LayerCount: 2
Fore
SplineSet
177.8 711.9 m 1
 180.1 712.8 186.2 713.7 190.1 713.7 c 0
 213.2 713.7 235.5 701.3 241.7 692.5 c 1
 249.4 672.3 l 1
 157 577.2 l 2
 146.2 566.6 131.6 563.2 123.9 563.2 c 0
 122.2 563.2 120.1 563.7 118.1 564.6 c 1
 106.2 548.6 87 538 65 538 c 0
 30 538 1 568 1 603 c 0
 1 640 30 669 65 669 c 0
 95.2 669 120.1 649.6 128.2 622.4 c 1
 177.8 711.9 l 1
210 603 m 0
 210 640 239 669 276 669 c 0
 311 669 340 640 340 603 c 0
 340 568 311 538 276 538 c 0
 239 538 210 568 210 603 c 0
EndSplineSet
Refer: 411 305 N 1 0 0 1 12 0 2
Colour: ff00ff
EndChar

StartChar: uni1E30
Encoding: 7728 7728 171
Width: 712
GlyphClass: 2
Flags: MW
LayerCount: 2
Fore
SplineSet
431 0 m 1
 425 1 418 4 411 4 c 0
 405 4 399 1 387 1 c 0
 374 1 364 6 364 23 c 0
 364 31 369 41 382 41 c 0
 401 41 410 23 434 12 c 1
 432 34 418 49 418 63 c 0
 418 74 429 84 439 84 c 0
 440.7 84 442.4 83.8 444.1 83.5 c 1
 368.7 179.2 290.2 280.8 259 312 c 0
 253 317 240 319 237 319 c 1
 237 200 l 2
 237 125 241 57 249 0 c 1
 247 -3 l 1
 247 -3 199 0 165 0 c 0
 130 0 82 -3 82 -3 c 1
 81 0 l 1
 89 54 93 125 93 200 c 2
 93 445 l 2
 93 520 89 588 81 645 c 1
 83 648 l 1
 83 648 131 645 165 645 c 0
 200 645 248 648 248 648 c 1
 249 645 l 1
 241 592 237 520 237 445 c 2
 237 354 l 2
 237.3 354 237.7 354 238 354 c 0
 242 354 254 356 262 363 c 0
 350 440 438 546 527 648 c 1
 540 645 593 645 606 645 c 0
 621 645 681 645 697 648 c 1
 609 571 451 433 383 354 c 1
 383 352 l 1
 707 -3 l 1
 688 0 624 0 605 0 c 0
 588 0 530 0 513 -3 c 1
 510.6 -0.0999999 508.2 2.9 505.8 5.9 c 1
 499.1 2.5 489.9 1 480 1 c 0
 469 1 460 2 450 0 c 1
 469 -20 496 -18 496 -47 c 0
 496 -57 486 -63 478 -63 c 0
 452 -63 453 -30 440 -8 c 1
 427 -32 434 -63 401 -63 c 0
 392 -63 385 -56 385 -47 c 0
 385 -17 413 -21 431 0 c 1
460.9 62.2 m 1
 459.5 47.4 447.9 27 447 12 c 1
 463.2 19.4 471.7 30.5 481 36.9 c 1
 474.4 45.2 467.7 53.6 460.9 62.2 c 1
EndSplineSet
Colour: ff00ff
EndChar

StartChar: uni1E4C
Encoding: 7756 7756 199
Width: 799
GlyphClass: 2
Flags: MW
LayerCount: 2
Fore
SplineSet
414.2 767.9 m 0
 432 767.9 444.8 774.5 455.9 814.1 c 1
 483.1 804.2 l 1
 471.2 733.8 441.5 686.5 398.1 686.5 c 0
 362.3 686.5 331.9 732.7 297.8 732.7 c 0
 273.2 732.7 263 719.5 256.2 685.4 c 1
 228.1 693.1 l 1
 240.9 763.5 267.2 813 308 813 c 0
 350.2 813 373 767.9 414.2 767.9 c 0
612 936.8 m 1
 633.1 920.3 649 891.1 655.9 865.6 c 1
 650.5 853.3 l 1
 533.4 814.5 l 2
 516.3 808.8 509.6 806.6 503.4 806.6 c 0
 497.2 806.6 491.1 820.7 491.1 828.6 c 0
 491.1 834.8 492.5 841.6 502.6 849.7 c 2
 612 936.8 l 1
EndSplineSet
Refer: 257 79 N 1 0 0 1 0 0 2
Colour: ff00ff
EndChar

StartChar: uni1E4D
Encoding: 7757 7757 200
Width: 566
GlyphClass: 2
Flags: MW
LayerCount: 2
Fore
SplineSet
332 569 m 0
 353 569 368 575 381 611 c 1
 413 602 l 1
 399 538 364 495 313 495 c 0
 270.9 495 235.1 537 195 537 c 0
 166 537 154 525 146 494 c 1
 113 501 l 1
 128 565 159 610 207 610 c 0
 234.8 610 255.4 597.2 276.7 585.9 c 1
 276.8 591.2 278.4 598.9 282.9 606.6 c 2
 346.8 721.9 l 1
 349.1 722.8 355.2 723.7 359.1 723.7 c 0
 382.2 723.7 404.5 711.3 410.7 702.5 c 1
 418.4 682.3 l 1
 326 587.2 l 2
 318.6 580 309.5 576.1 302 574.3 c 1
 311.3 571.1 321.1 569 332 569 c 0
EndSplineSet
Refer: 288 111 N 1 0 0 1 0 0 2
Colour: ff00ff
EndChar

StartChar: uni1E4E
Encoding: 7758 7758 201
Width: 799
GlyphClass: 2
Flags: MW
LayerCount: 2
Fore
SplineSet
117 752 m 0
 117 777 138 798 162 798 c 0
 187 798 208 777 208 752 c 0
 208 728 187 707 162 707 c 0
 138 707 117 728 117 752 c 0
526 752 m 0
 526 777 547 798 572 798 c 0
 597 798 617 777 617 752 c 0
 617 728 597 707 572 707 c 0
 547 707 526 728 526 752 c 0
429.2 767.9 m 0
 447 767.9 459.8 774.5 470.9 814.1 c 1
 498.1 804.2 l 1
 486.2 733.8 456.5 686.5 413.1 686.5 c 0
 377.3 686.5 346.9 732.7 312.8 732.7 c 0
 288.2 732.7 278 719.5 271.2 685.4 c 1
 243.1 693.1 l 1
 255.9 763.5 282.2 813 323 813 c 0
 365.2 813 388 767.9 429.2 767.9 c 0
EndSplineSet
Refer: 257 79 N 1 0 0 1 0 0 2
Colour: ff80cc
EndChar

StartChar: uni1E50
Encoding: 7760 7760 203
Width: 799
GlyphClass: 2
Flags: MW
LayerCount: 2
Fore
SplineSet
227.2 760.2 m 0
 227.2 784.8 245.6 805.9 267.2 805.9 c 0
 280.9 805.9 293.3 797.5 300.6 785 c 1
 499 785 l 2
 507.5 785 511 771 511 763 c 0
 511 750 500.7 725 488.8 725 c 2
 292.4 725 l 1
 285.5 718.4 276.6 714.4 267.2 714.4 c 0
 245.6 714.4 227.2 735.6 227.2 760.2 c 0
EndSplineSet
Refer: 257 79 N 1 0 0 1 0 0 2
Colour: ff00ff
EndChar

StartChar: uni1E51
Encoding: 7761 7761 204
Width: 566
GlyphClass: 2
Flags: MW
LayerCount: 2
Fore
SplineSet
241.3 760.7 m 1
 294.4 651.6 l 2
 297.5 645.4 301.3 635.7 301.3 628.7 c 0
 301.3 620.8 289.8 614.6 282.9 614.6 c 0
 276.7 614.6 266.7 619 253.6 632.2 c 2
 160.4 724.6 l 1
 162 734.3 l 1
 168.2 742.2 198.2 762.4 225.9 762.4 c 0
 229.8 762.4 238.2 761.6 241.3 760.7 c 1
EndSplineSet
Refer: 439 333 N 1 0 0 1 0 0 2
Colour: ff00ff
EndChar

StartChar: uni1E52
Encoding: 7762 7762 205
Width: 799
GlyphClass: 2
Flags: MW
LayerCount: 2
Fore
SplineSet
451.8 725 m 2
 218.9 725 l 2
 209.5 725 206.2 739 206.2 748 c 0
 206.2 760 216.3 785 227.4 785 c 2
 462 785 l 2
 470.5 785 474 771 474 763 c 0
 474 750 463.7 725 451.8 725 c 2
607 936.8 m 1
 628.1 920.3 644 891.1 650.9 865.6 c 1
 645.5 853.3 l 1
 528.4 814.5 l 2
 511.3 808.8 504.6 806.6 498.4 806.6 c 0
 492.2 806.6 486.1 820.7 486.1 828.6 c 0
 486.1 834.8 487.5 841.6 497.6 849.7 c 2
 607 936.8 l 1
EndSplineSet
Refer: 257 79 N 1 0 0 1 0 0 2
Colour: ff00ff
EndChar

StartChar: uni1E53
Encoding: 7763 7763 206
Width: 566
GlyphClass: 2
Flags: MW
LayerCount: 2
Fore
SplineSet
278.8 738.9 m 1
 281.1 739.8 287.2 740.7 291.1 740.7 c 0
 314.2 740.7 336.5 728.3 342.7 719.5 c 1
 350.4 699.3 l 1
 258 604.2 l 2
 247.2 593.6 232.6 590.2 224.9 590.2 c 0
 218.7 590.2 208.7 597.2 208.7 602.5 c 0
 208.7 607.8 210.3 615.7 214.9 623.6 c 2
 278.8 738.9 l 1
EndSplineSet
Refer: 439 333 N 1 0 0 1 0 0 2
Colour: ff00ff
EndChar

StartChar: uni1E64
Encoding: 7780 7780 223
Width: 542
GlyphClass: 2
Flags: MW
LayerCount: 2
Fore
SplineSet
253 42 m 0
 313.2 42 346 74 346 145 c 0
 346 186 306 226 259 250 c 0
 201.7 279.3 124.3 316.7 78 377 c 0
 54.2 408 47 446.9 47 485 c 0
 47 591 150 658 263 658 c 0
 385 658 467 613 467 613 c 1
 469 610 l 1
 460 580 453 526 449 490 c 1
 419 489 l 1
 393 538 334 609 274 609 c 0
 219.5 609 183 562 183 512 c 0
 183 438.9 231 414 285 389 c 0
 365.9 351.5 483 295 483 186 c 0
 483 118.2 442.3 54 371.9 18.5 c 1
 371.4 16.3 371.1 14.1 371 12 c 1
 395 23 402 42 420 42 c 0
 438 42 441 29 441 23 c 0
 441 7 424 1 404 1 c 0
 393 1 384 2 374 0 c 1
 393 -20 420 -18 420 -47 c 0
 420 -57 410 -63 402 -63 c 0
 376 -63 377 -30 364 -8 c 1
 351 -32 358 -63 325 -63 c 0
 316 -63 309 -56 309 -47 c 0
 309 -17 337 -21 355 0 c 1
 349.4 0.9 343 3.6 336.5 4 c 1
 308.9 -5 277.9 -10 244 -10 c 0
 122 -10 29 35 29 35 c 1
 27 38 l 1
 35 68 43 124 47 160 c 1
 73 161 l 1
 108 108 192 42 253 42 c 0
EndSplineSet
Refer: 655 775 N 1 0 0 1 300 167 2
Colour: ff00ff
EndChar

StartChar: uni1E65
Encoding: 7781 7781 224
Width: 419
GlyphClass: 2
Flags: MW
LayerCount: 2
Fore
SplineSet
42.6 600.3 m 0
 42.6 634.5 70.5 662.4 106.5 662.4 c 0
 142.5 662.4 170.4 634.5 170.4 600.3 c 0
 170.4 566.1 142.5 538.2 106.5 538.2 c 0
 70.5 538.2 42.6 566.1 42.6 600.3 c 0
EndSplineSet
Refer: 652 769 N 1 0 0 1 402 -37 2
Refer: 1903 115 N 1 0 0 1 0 0 2
Colour: ff00ff
EndChar

StartChar: uni1E66
Encoding: 7782 7782 225
Width: 542
GlyphClass: 2
Flags: MW
LayerCount: 2
Fore
SplineSet
186 834 m 0
 186 872 217 903 257 903 c 0
 297 903 328 872 328 834 c 0
 328 819.4 323.3 805.8 315.4 794.6 c 1
 345.6 807.9 376.8 820.4 409 833 c 1
 425 802 l 1
 380 766 331 723 292 684 c 1
 262 684 l 1
 223 725 174.5 766 130 802 c 1
 146 833 l 1
 160.5 827.3 174.6 821.6 188.4 815.9 c 1
 186.8 821.7 186 827.8 186 834 c 0
EndSplineSet
Refer: 261 83 N 1 0 0 1 0 0 2
Colour: ff00ff
EndChar

StartChar: uni1E67
Encoding: 7783 7783 226
Width: 419
GlyphClass: 2
Flags: MW
LayerCount: 2
Fore
SplineSet
71 629 m 1
 98 648 l 1
 120.3 635.7 139.4 624.9 157.4 613.1 c 1
 146.9 624.2 140.6 639 140.6 655.3 c 0
 140.6 689.5 168.5 717.4 204.5 717.4 c 0
 240.5 717.4 268.4 689.5 268.4 655.3 c 0
 268.4 621.1 240.5 593.2 204.5 593.2 c 0
 195 593.2 186 595.2 178 598.7 c 1
 190.6 589.3 203 578.7 216 566 c 1
 258 605 289 622 333 648 c 1
 360 629 l 1
 278 543 265 526 231 478 c 1
 198 478 l 1
 160 532 145 555 71 629 c 1
EndSplineSet
Refer: 1903 115 N 1 0 0 1 0 0 2
Colour: ff00ff
EndChar

StartChar: uni1E68
Encoding: 7784 7784 227
Width: 542
GlyphClass: 2
Flags: MW
LayerCount: 2
Fore
SplineSet
156 716 m 0
 156 754 187 785 227 785 c 0
 267 785 298 754 298 716 c 0
 298 691.7 285.4 670.3 265.8 658 c 1
 386.3 657.3 467 613 467 613 c 2
 469 610 l 1
 460 580 453 526 449 490 c 1
 419 489 l 1
 393 538 334 609 274 609 c 0
 219.5 609 183 562 183 512 c 0
 183 438.9 231 414 285 389 c 0
 365.9 351.5 483 295 483 186 c 0
 483 84 391 -10 244 -10 c 0
 122 -10 29 35 29 35 c 1
 27 38 l 1
 35 68 43 124 47 160 c 1
 73 161 l 1
 108 108 192 42 253 42 c 0
 313.2 42 346 74 346 145 c 0
 346 186 306 226 259 250 c 0
 201.7 279.3 124.3 316.7 78 377 c 0
 54.2 408 47 446.9 47 485 c 0
 47 571.4 115.5 631.9 202 651.3 c 1
 174.8 661.1 156 686.4 156 716 c 0
EndSplineSet
Refer: 655 775 N 1 0 0 1 388 -741 2
Colour: ff00ff
EndChar

StartChar: uni1E78
Encoding: 7800 7800 243
Width: 719
GlyphClass: 2
Flags: MW
LayerCount: 2
Fore
SplineSet
419.2 764.9 m 0
 437 764.9 449.8 771.5 460.8 811.1 c 1
 488 801.2 l 1
 476.1 730.8 446.4 683.5 403 683.5 c 0
 367.2 683.5 336.9 729.7 302.8 729.7 c 0
 278.1 729.7 267.9 716.5 261.1 682.4 c 1
 233 690.1 l 1
 245.8 760.5 272.2 810 313 810 c 0
 355.2 810 378 764.9 419.2 764.9 c 0
547 445 m 2
 547 520 545 588 537 645 c 1
 539 648 l 1
 539 648 565.7 645 590 645 c 0
 612.3 645 641 648 641 648 c 1
 642 645 l 1
 634 592 632 520 632 445 c 2
 632 295 l 2
 632 254.9 628.5 217.9 621 184.6 c 1
 627.6 183.1 634.1 177.9 634.1 168.3 c 0
 634.1 155.1 624.2 135.8 623.4 121.7 c 1
 641.9 131.4 647.2 148.1 661.1 148.1 c 0
 675 148.1 677.3 136.7 677.3 131.4 c 0
 677.3 117.3 664.2 112 648.8 112 c 0
 640.3 112 633.4 112.9 625.7 111.1 c 1
 640.3 93.5 661.1 95.3 661.1 69.8 c 0
 661.1 61 653.4 55.7 647.2 55.7 c 0
 627.2 55.7 628 84.7 618 104.1 c 1
 608 83 613.4 55.7 588 55.7 c 0
 581.1 55.7 575.6 61.9 575.6 69.8 c 0
 575.6 96.2 597.1 92.6 611 111.1 c 1
 606.7 111.9 601.8 114.3 596.7 114.6 c 1
 556.8 35.4 480.9 -10 358 -10 c 0
 253.7 -10 86 32 86 236 c 2
 86 445 l 2
 86 520 84 588 76 645 c 1
 78 648 l 1
 78 648 122 645 156 645 c 0
 191 645 239 648 239 648 c 1
 240 645 l 1
 232 592 230 520 230 445 c 2
 230 269 l 2
 230 194 246 55 379 55 c 0
 524.2 55 547 165 547 277 c 2
 547 445 l 2
608.5 141.9 m 1
 606.8 137.3 605 132.8 603.1 128.4 c 1
 606.1 126 609.5 123.7 613.4 121.7 c 1
 612.8 129.3 610.7 135.9 608.5 141.9 c 1
EndSplineSet
Colour: ff00ff
EndChar

StartChar: uni1E79
Encoding: 7801 7801 244
Width: 591
GlyphClass: 2
Flags: MW
LayerCount: 2
Fore
SplineSet
314.8 749.9 m 1
 317.1 750.8 323.2 751.7 327.1 751.7 c 0
 350.2 751.7 372.5 739.3 378.7 730.5 c 1
 386.4 710.3 l 1
 294 615.2 l 2
 292.3 613.5 290.4 612.1 288.5 610.7 c 1
 307 600.7 325.4 591 349 591 c 0
 370 591 385 597 398 633 c 1
 430 624 l 1
 416 560 381 517 330 517 c 0
 287.9 517 252.1 559 212 559 c 0
 183 559 171 547 163 516 c 1
 130 523 l 1
 145 587 176 632 224 632 c 0
 232.6 632 240.5 630.7 248 628.7 c 1
 248.8 630.6 249.8 632.6 250.9 634.6 c 2
 314.8 749.9 l 1
EndSplineSet
Refer: 294 117 N 1 0 0 1 0 0 2
Colour: ff00ff
EndChar

StartChar: ampersand
Encoding: 38 38 245
Width: 729
GlyphClass: 2
Flags: MW
LayerCount: 2
Fore
SplineSet
270 523 m 0
 270 502 285 458 311 420 c 1
 354 454 397 488 397 527 c 0
 397 581.1 376.1 613 337 613 c 0
 304 613 270 586 270 523 c 0
396 122 m 1
 347 187 276 286 253 322 c 1
 178 274 157 232 157 170 c 0
 157 82 205 31 256 31 c 0
 310 31 349 56 396 122 c 1
451 209 m 1
 510.5 301.3 529.6 370.9 537 432 c 1
 547 429 581 429 591 429 c 0
 601 429 638 429 648 432 c 1
 609 365 513.3 190 491 156 c 1
 519 111 550 51 581 51 c 0
 609.1 51 627 61 652 109 c 1
 684 86 l 1
 637 1 600 -10 555 -10 c 0
 508 -10 480 6 431 78 c 1
 386 28 336 -10 247 -10 c 0
 128 -10 39 36 39 150 c 0
 39 224 80 277 232 364 c 1
 192 426 170 474 170 521 c 0
 170 581 233 654 347 654 c 0
 439 654 490 613.1 490 537 c 0
 490 486 428 421 342 372 c 1
 358 344 389.9 293.8 451 209 c 1
EndSplineSet
EndChar

StartChar: quotesingle
Encoding: 39 39 246
Width: 215
GlyphClass: 2
Flags: MW
LayerCount: 2
Fore
SplineSet
98 421 m 1
 83 425 l 1
 83 425 51 585 51 591 c 0
 51 614 73 645 116 645 c 0
 158 645 161 626 161 608 c 0
 161 593 124 427 124 427 c 1
 98 421 l 1
EndSplineSet
EndChar

StartChar: comma
Encoding: 44 44 247
Width: 246
GlyphClass: 2
Flags: MW
LayerCount: 2
Fore
SplineSet
112 132 m 0
 159.759765625 132 201 96 201 0 c 0
 201 -89 125 -157 49 -171 c 1
 41 -164 40 -142 44 -129 c 1
 110 -111 141 -60 141 -34 c 0
 141 0 128 0 112 0 c 0
 76 0 46 30 46 66 c 0
 46 102 76 132 112 132 c 0
EndSplineSet
EndChar

StartChar: hyphen
Encoding: 45 45 248
Width: 344
GlyphClass: 2
Flags: MW
LayerCount: 2
Fore
SplineSet
279 221 m 2
 53 221 l 2
 44 221 38 234 38 243 c 0
 38 259 51 294 63 294 c 2
 292 294 l 2
 302 294 306 280 306 271 c 0
 306 260 292 221 279 221 c 2
EndSplineSet
EndChar

StartChar: period
Encoding: 46 46 249
Width: 246
GlyphClass: 2
Flags: MW
LayerCount: 2
Fore
SplineSet
54 51.3330078125 m 0
 54 90.525390625 85.8076171875 122.333007812 125 122.333007812 c 0
 164.192382812 122.333007812 196 90.525390625 196 51.3330078125 c 0
 196 12.1416015625 164.192382812 -19.6669921875 125 -19.6669921875 c 0
 85.8076171875 -19.6669921875 54 12.1416015625 54 51.3330078125 c 0
EndSplineSet
EndChar

StartChar: zero
Encoding: 48 48 250
Width: 514
GlyphClass: 2
Flags: MW
LayerCount: 2
Fore
SplineSet
260 565 m 0
 220 565 173 530 173 287 c 0
 173 202 172 33 256 33 c 0
 296.4 33 342 86.8 342 327 c 0
 342 503.8 298.8 565 260 565 c 0
255 -10 m 0
 109 -10 30 134 30 298 c 0
 30 498 131 610 260 610 c 0
 360.7 610 484 542.7 484 307 c 0
 484 69 354 -10 255 -10 c 0
EndSplineSet
EndChar

StartChar: I
Encoding: 73 73 251
Width: 330
GlyphClass: 2
Flags: MW
AnchorPoint: "cedilla" 168 1 basechar 0
AnchorPoint: "below" 166 -109 basechar 0
AnchorPoint: "top_punkt" 169 700 basechar 0
AnchorPoint: "above" 169 798 basechar 0
LayerCount: 2
Fore
SplineSet
93 445 m 2
 93 520 89 588 81 645 c 1
 83 648 l 1
 83 648 131 645 165 645 c 0
 200 645 248 648 248 648 c 1
 249 645 l 1
 241 592 237 520 237 445 c 2
 237 200 l 2
 237 125 241 57 249 0 c 1
 247 -3 l 1
 247 -3 199 0 165 0 c 0
 130 0 82 -3 82 -3 c 1
 81 0 l 1
 89 54 93 125 93 200 c 2
 93 445 l 2
EndSplineSet
Position2: "'cpsp' Versalabstaende 1" dx=2 dy=0 dh=5 dv=0
EndChar

StartChar: J
Encoding: 74 74 252
Width: 375
GlyphClass: 2
Flags: MW
AnchorPoint: "top_punkt" 218 723 basechar 0
AnchorPoint: "above" 219 806 basechar 0
LayerCount: 2
Fore
SplineSet
140 155 m 2
 140 445 l 2
 140 520 138 588 130 645 c 1
 132 648 l 1
 132 648 180 645 214 645 c 0
 249 645 293 648 293 648 c 1
 294 645 l 1
 286 592 285 522 284 445 c 0
 282.5 329.9 281.8 226 284 117 c 0
 286.4 0 263 -61 221 -110 c 0
 166.2 -174 88 -201 25 -201 c 0
 6 -201 -42 -197 -50 -192 c 1
 -51 -189 l 1
 -40 -170 -24 -97 -24 -68 c 1
 5 -62 l 1
 16 -82 52.9 -119 91 -119 c 0
 125 -119 142 -66.1 142 -24 c 0
 142 45.8 140 114 140 155 c 2
EndSplineSet
Position2: "'cpsp' Versalabstaende 1" dx=2 dy=0 dh=5 dv=0
EndChar

StartChar: K
Encoding: 75 75 253
Width: 712
GlyphClass: 2
Flags: MW
AnchorPoint: "cedilla" 148 -1 basechar 0
AnchorPoint: "below" 362 -109 basechar 0
AnchorPoint: "top_punkt" 355 719 basechar 0
AnchorPoint: "above" 356 798 basechar 0
LayerCount: 2
Fore
SplineSet
93 445 m 2
 93 520 89 588 81 645 c 1
 83 648 l 1
 83 648 131 645 165 645 c 0
 200 645 248 648 248 648 c 1
 249 645 l 1
 241 592 237 520 237 445 c 2
 237 354 l 2
 237.3 354 237.7 354 238 354 c 0
 242 354 254 356 262 363 c 0
 350 440 438 546 527 648 c 1
 540 645 593 645 606 645 c 0
 621 645 681 645 697 648 c 1
 609 571 451 433 383 354 c 1
 383 352 l 1
 707 -3 l 1
 688 0 624 0 605 0 c 0
 588 0 530 0 513 -3 c 1
 423 108 300 271 259 312 c 0
 253 317 240 319 237 319 c 1
 237 200 l 2
 237 125 241 57 249 0 c 1
 247 -3 l 1
 247 -3 199 0 165 0 c 0
 130 0 82 -3 82 -3 c 1
 81 0 l 1
 89 54 93 125 93 200 c 2
 93 445 l 2
EndSplineSet
Position2: "'cpsp' Versalabstaende 1" dx=2 dy=0 dh=5 dv=0
Colour: ff80cc
EndChar

StartChar: L
Encoding: 76 76 254
Width: 588
GlyphClass: 2
Flags: MW
AnchorPoint: "cedilla" 280 1 basechar 0
AnchorPoint: "below" 280 -110 basechar 0
AnchorPoint: "above" 178 804 basechar 0
AnchorPoint: "top_punkt" 177 721 basechar 0
LayerCount: 2
Fore
SplineSet
247 210 m 2
 247 193 248 105 255 81 c 1
 389 81 541 103 541 103 c 1
 543 99 l 1
 542 91 541 52 541 42 c 0
 541 32 542 14 543 0 c 1
 541 -3 l 1
 525 -1 502 0 481 0 c 2
 177 0 l 2
 143 0 94 -3 94 -3 c 1
 93 0 l 1
 101 54 103 125 103 200 c 2
 103 445 l 2
 103 520 100 588 92 645 c 1
 94 648 l 1
 94 648 139 645 173 645 c 0
 208 645 256 648 256 648 c 1
 257 645 l 1
 249 592 247 520 247 445 c 2
 247 210 l 2
EndSplineSet
Position2: "'cpsp' Versalabstaende 1" dx=2 dy=0 dh=5 dv=0
EndChar

StartChar: M
Encoding: 77 77 255
Width: 921
GlyphClass: 2
Flags: MW
AnchorPoint: "cedilla" 92 2 basechar 0
AnchorPoint: "below" 413 -110 basechar 0
AnchorPoint: "above" 487 804 basechar 0
AnchorPoint: "top_punkt" 486 721 basechar 0
LayerCount: 2
Fore
SplineSet
161 653 m 1
 263 653 l 1
 322.9 492 380.9 346 459 188 c 1
 463 188 l 1
 713 653 l 1
 802 653 l 1
 828 407 850 214 881 -3 c 1
 866 0 823 0 808 0 c 0
 793 0 745 0 730 -3 c 1
 716 163 703 312 684 470 c 1
 681 470 l 1
 596.9 316.5 516 166 443 0 c 1
 379 0 l 1
 325.9 149.5 261.9 309 189 469 c 1
 186 470 l 1
 159.9 314.5 134.9 102.5 131 -3 c 1
 120 0 86 0 75 0 c 0
 63 0 40 0 29 -3 c 1
 71.9 188 124.9 439 161 653 c 1
EndSplineSet
Position2: "'cpsp' Versalabstaende 1" dx=2 dy=0 dh=5 dv=0
EndChar

StartChar: N
Encoding: 78 78 256
Width: 748
GlyphClass: 2
Flags: MW
AnchorPoint: "cedilla" 124 -3 basechar 0
AnchorPoint: "below" 368 -109 basechar 0
AnchorPoint: "above" 366 804 basechar 0
AnchorPoint: "top_punkt" 365 721 basechar 0
LayerCount: 2
Fore
SplineSet
101 445 m 2
 103 520 99 588 91 645 c 1
 93 648 l 1
 93 648 129.7 645 153 645 c 0
 171.3 645 202 648 202 648 c 1
 314 500.9 459.2 331.9 584 200.3 c 1
 587 200 l 1
 587 445 l 1
 584.9 520 582 588 574 645 c 1
 576 648 l 1
 576 648 601.7 645 626 645 c 0
 648.3 645 675 648 675 648 c 1
 677 645 l 1
 669 592 667 520 667 445 c 1
 661 -3 l 1
 644.8 -1 629 0 613 0 c 0
 596.8 0 573.5 -1.5 557 -3 c 1
 442 144.9 307 303.9 176 455 c 1
 170 455 l 1
 166 200 l 2
 164.8 122 164 57 172 0 c 1
 170 -3 l 1
 170 -3 150.3 0 126 0 c 0
 103.7 0 81 -3 81 -3 c 1
 80 0 l 1
 88 53 92.8 122.2 96 200 c 1
 101 445 l 2
EndSplineSet
Position2: "'cpsp' Versalabstaende 1" dx=2 dy=0 dh=5 dv=0
EndChar

StartChar: O
Encoding: 79 79 257
Width: 799
GlyphClass: 2
Flags: MW
AnchorPoint: "cedilla" 381 0 basechar 0
AnchorPoint: "below" 381 -113 basechar 0
AnchorPoint: "above" 386 804 basechar 0
AnchorPoint: "top_punkt" 385 721 basechar 0
LayerCount: 2
Fore
SplineSet
384 603 m 0
 288 603 213 537 213 327 c 0
 213 135 298 45 418 45 c 0
 532 45 586 131 586 310 c 0
 586 518 525 603 384 603 c 0
747 329 m 0
 747 129 612.1 -10 398 -10 c 0
 200 -10 52 122 52 310 c 0
 52 506 194 658 397 658 c 0
 610 658 747 527 747 329 c 0
EndSplineSet
Position2: "'cpsp' Versalabstaende 1" dx=2 dy=0 dh=5 dv=0
EndChar

StartChar: P
Encoding: 80 80 258
Width: 598
GlyphClass: 2
Flags: MW
AnchorPoint: "cedilla" 160 -3 basechar 0
AnchorPoint: "below" 260 -110 basechar 0
AnchorPoint: "above" 317 803 basechar 0
AnchorPoint: "top_punkt" 316 720 basechar 0
LayerCount: 2
Fore
SplineSet
235 560 m 2
 235 335 l 1
 248 328 289 325 314 325 c 0
 372.1 325 422 367 422 468 c 0
 422 587 374 604 315 604 c 0
 243 604 235 589 235 560 c 2
93 445 m 2
 93 520 89 588 81 645 c 1
 83 648 l 1
 83 648 131 645 165 645 c 0
 195 645 316 652 342 652 c 0
 413.1 652 467.7 642.6 503 618 c 0
 559 579 573 522.3 573 486 c 0
 573 383 507 274 325 274 c 0
 290 274 257 277 235 284 c 1
 235 200 l 2
 235 125 239 57 247 0 c 1
 245 -3 l 1
 245 -3 199 0 165 0 c 0
 130 0 82 -3 82 -3 c 1
 81 0 l 1
 89 54 93 125 93 200 c 2
 93 445 l 2
EndSplineSet
Position2: "'cpsp' Versalabstaende 1" dx=2 dy=0 dh=5 dv=0
EndChar

StartChar: Q
Encoding: 81 81 259
Width: 799
GlyphClass: 2
Flags: MW
AnchorPoint: "above" 348 803 basechar 0
AnchorPoint: "top_punkt" 346 720 basechar 0
LayerCount: 2
Fore
SplineSet
384 603 m 0
 288 603 213 537 213 327 c 0
 213 135 298 45 418 45 c 0
 532 45 586 131 586 310 c 0
 586 518 525 603 384 603 c 0
590.3 37.2 m 1
 645.3 4.7 717.9 -40.6 810 -72 c 1
 810 -78 l 1
 774 -97 715 -129 696 -144 c 1
 589.6 -83.5 593.2 -65.1 478.3 -2.9 c 1
 453 -7.5 426.2 -10 398 -10 c 0
 200 -10 52 122 52 310 c 0
 52 506 194 658 397 658 c 0
 610 658 747 527 747 329 c 0
 747 198.6 689.6 94.1 590.3 37.2 c 1
EndSplineSet
Position2: "'cpsp' Versalabstaende 1" dx=2 dy=0 dh=5 dv=0
Colour: ff80cc
EndChar

StartChar: R
Encoding: 82 82 260
Width: 687
GlyphClass: 2
Flags: MW
AnchorPoint: "cedilla" 158 -1 basechar 0
AnchorPoint: "below" 278 -111 basechar 0
AnchorPoint: "above" 339 808 basechar 0
AnchorPoint: "top_punkt" 338 725 basechar 0
LayerCount: 2
Fore
SplineSet
334 602 m 0
 263 602 245 582 245 553 c 2
 245 352 l 1
 299 352 l 2
 396 352 442 357 442 482 c 0
 442 600 395 602 334 602 c 0
245 296 m 1
 245 200 l 2
 245 125 247 57 255 0 c 1
 253 -3 l 1
 253 -3 207 0 173 0 c 0
 138 0 92 -3 92 -3 c 1
 91 0 l 1
 99 54 103 125 103 200 c 2
 103 445 l 2
 103 520 99 588 91 645 c 1
 93 648 l 1
 93 648 143 645 177 645 c 0
 207 645 328 652 353 652 c 0
 418.9 652 485.7 648 532 618 c 0
 572.7 591.6 597 547.8 597 483 c 0
 597 382.7 528.6 336.1 444.3 314.5 c 1
 507.3 231 611 57.7 662 0 c 1
 660 -3 l 1
 640 0 587 0 567 0 c 0
 548 0 508 0 489 -3 c 1
 478 31 434 104 384 176 c 0
 356.7 214.8 330.1 262.1 301.6 296.8 c 1
 281.9 296.1 262.8 296 245 296 c 1
EndSplineSet
Position2: "'cpsp' Versalabstaende 1" dx=2 dy=0 dh=5 dv=0
EndChar

StartChar: S
Encoding: 83 83 261
Width: 542
GlyphClass: 2
Flags: MW
AnchorPoint: "cedilla" 227 2 basechar 0
AnchorPoint: "below" 247 -111 basechar 0
AnchorPoint: "above" 265 803 basechar 0
AnchorPoint: "top_punkt" 264 720 basechar 0
LayerCount: 2
Fore
SplineSet
253 42 m 0
 313.2 42 346 74 346 145 c 0
 346 186 306 226 259 250 c 0
 201.7 279.3 124.3 316.7 78 377 c 0
 54.2 408 47 446.9 47 485 c 0
 47 591 150 658 263 658 c 0
 385 658 467 613 467 613 c 1
 469 610 l 1
 460 580 453 526 449 490 c 1
 419 489 l 1
 393 538 334 609 274 609 c 0
 219.5 609 183 562 183 512 c 0
 183 438.9 231 414 285 389 c 0
 365.9 351.5 483 295 483 186 c 0
 483 84 391 -10 244 -10 c 0
 122 -10 29 35 29 35 c 1
 27 38 l 1
 35 68 43 124 47 160 c 1
 73 161 l 1
 108 108 192 42 253 42 c 0
EndSplineSet
Position2: "'cpsp' Versalabstaende 1" dx=2 dy=0 dh=5 dv=0
EndChar

StartChar: T
Encoding: 84 84 262
Width: 602
GlyphClass: 2
Flags: MW
AnchorPoint: "cedilla" 286 1 basechar 0
AnchorPoint: "below" 293 -107 basechar 0
AnchorPoint: "above" 308 803 basechar 0
AnchorPoint: "top_punkt" 306 720 basechar 0
LayerCount: 2
Fore
SplineSet
229 436 m 2
 229 453 228 543 221 567 c 1
 87 567 17 545 17 545 c 1
 15 549 l 1
 17 564 17 617 15 645 c 1
 17 648 l 1
 33 646 56 645 77 645 c 2
 525 645 l 2
 546 645 569 646 585 648 c 1
 587 645 l 1
 585 617 585 564 587 549 c 1
 585 545 l 1
 585 545 515 567 381 567 c 1
 374 543 373 453 373 436 c 2
 373 200 l 2
 373 125 375 57 383 0 c 1
 381 -3 l 1
 381 -3 335 0 301 0 c 0
 266 0 220 -3 220 -3 c 1
 219 0 l 1
 227 54 229 125 229 200 c 2
 229 436 l 2
EndSplineSet
Position2: "'cpsp' Versalabstaende 1" dx=2 dy=0 dh=5 dv=0
EndChar

StartChar: U
Encoding: 85 85 263
Width: 719
GlyphClass: 2
Flags: MW
AnchorPoint: "cedilla" 348 4 basechar 0
AnchorPoint: "below" 348 -109 basechar 0
AnchorPoint: "above" 366 805 basechar 0
AnchorPoint: "top_punkt" 365 722 basechar 0
LayerCount: 2
Fore
SplineSet
547 445 m 2
 547 520 545 588 537 645 c 1
 539 648 l 1
 539 648 565.7 645 590 645 c 0
 612.3 645 641 648 641 648 c 1
 642 645 l 1
 634 592 632 520 632 445 c 2
 632 295 l 2
 632 108 556 -10 358 -10 c 0
 253.7 -10 86 32 86 236 c 2
 86 445 l 2
 86 520 84 588 76 645 c 1
 78 648 l 1
 78 648 122 645 156 645 c 0
 191 645 239 648 239 648 c 1
 240 645 l 1
 232 592 230 520 230 445 c 2
 230 269 l 2
 230 194 246 55 379 55 c 0
 524.2 55 547 165 547 277 c 2
 547 445 l 2
EndSplineSet
Position2: "'cpsp' Versalabstaende 1" dx=2 dy=0 dh=5 dv=0
EndChar

StartChar: V
Encoding: 86 86 264
Width: 672
GlyphClass: 2
Flags: MW
AnchorPoint: "cedilla" 303 3 basechar 0
AnchorPoint: "below" 323 -108 basechar 0
AnchorPoint: "above" 351 805 basechar 0
AnchorPoint: "top_punkt" 349 722 basechar 0
LayerCount: 2
Fore
SplineSet
364.1 178.8 m 1
 432.9 337.7 516.8 531.1 548 648 c 1
 560 645 595 645 606 645 c 0
 617 645 642 645 654 648 c 1
 553 427 455 215 359 -7 c 1
 290 -7 l 1
 198 212 66 547 16 648 c 1
 33 645 100 645 117 645 c 0
 134 645 176 645 193 648 c 1
 202.4 615.2 247.7 454.2 364.1 178.8 c 1
EndSplineSet
Position2: "'cpsp' Versalabstaende 1" dx=2 dy=0 dh=5 dv=0
EndChar

StartChar: W
Encoding: 87 87 265
Width: 1043
GlyphClass: 2
Flags: MW
AnchorPoint: "cedilla" 305 3 basechar 0
AnchorPoint: "below" 479 -107 basechar 0
AnchorPoint: "above" 550 805 basechar 0
AnchorPoint: "top_punkt" 549 722 basechar 0
LayerCount: 2
Fore
SplineSet
735.2 178.6 m 1
 804.3 337.5 888.1 530.7 919 648 c 1
 931 645 959 645 970 645 c 0
 981 645 1013 645 1025 648 c 1
 924 427 826 215 730 -7 c 1
 661 -7 l 1
 621.5 87.1 576.4 202.5 533.9 311.6 c 1
 390 -7 l 1
 300 -7 l 1
 208 212 66 547 16 648 c 1
 33 645 100 645 117 645 c 0
 134 645 171 645 188 648 c 1
 197.8 613.8 257.1 442.5 385.5 145 c 1
 420.4 225.8 460.8 318.4 496.9 406.5 c 1
 455.4 512.6 419.1 603.3 397 648 c 1
 414 645 461 645 478 645 c 0
 495 645 557 645 574 648 c 1
 583.5 614.8 619.9 454.1 735.2 178.6 c 1
EndSplineSet
Position2: "'cpsp' Versalabstaende 1" dx=2 dy=0 dh=5 dv=0
EndChar

StartChar: X
Encoding: 88 88 266
Width: 672
GlyphClass: 2
Flags: MW
AnchorPoint: "cedilla" 117 0 basechar 0
AnchorPoint: "below" 327 -107 basechar 0
AnchorPoint: "above" 352 805 basechar 0
AnchorPoint: "top_punkt" 351 722 basechar 0
LayerCount: 2
Fore
SplineSet
661 -3 m 1
 641 0 593 0 573 0 c 0
 553 0 487 0 467 -3 c 1
 419.7 78.2 359.5 176.4 311.3 250.7 c 0
 308.3 256.6 305.9 255.2 303.7 252.3 c 0
 250.1 177.8 184.2 79.8 134 -3 c 1
 122 0 94 0 81 0 c 0
 69 0 23 0 11 -3 c 1
 113.5 132.7 196.4 239.9 253.5 314 c 1
 193.5 402.2 119.3 505.9 15 648 c 1
 34 645 105 645 124 645 c 0
 143 645 186 645 206 648 c 1
 234.3 595.4 275.1 532.8 340.9 437 c 0
 349 426.3 351 424 356.4 428.9 c 1
 426.9 520.9 454.1 559.4 508 648 c 1
 520 645 562 645 574 645 c 0
 586 645 620 645 632 648 c 1
 585.8 590 500.5 489.9 404.3 365 c 1
 466.8 275 559.2 144.7 661 -3 c 1
EndSplineSet
Position2: "'cpsp' Versalabstaende 1" dx=2 dy=0 dh=5 dv=0
EndChar

StartChar: Y
Encoding: 89 89 267
Width: 653
GlyphClass: 2
Flags: MW
AnchorPoint: "cedilla" 315 1 basechar 0
AnchorPoint: "below" 315 -109 basechar 0
AnchorPoint: "above" 355 805 basechar 0
AnchorPoint: "top_punkt" 353 722 basechar 0
LayerCount: 2
Fore
SplineSet
406.2 304.2 m 1
 406.9 205.1 409.7 48 414 -3 c 1
 398 0 346 0 331 0 c 0
 316 0 265 0 249 -3 c 1
 254.7 52.5 255.8 177.5 256 275.1 c 1
 217.9 340.2 56 588 16 648 c 1
 33 645 97 645 114 645 c 0
 131 645 175 645 192 648 c 1
 242.8 548.3 297.9 458.8 357.2 357.5 c 1
 412.3 445.1 473.7 549.7 521 648 c 1
 533 645 566 645 579 645 c 0
 591 645 613 645 626 648 c 1
 514.5 477.5 448 380.9 406.2 304.2 c 1
EndSplineSet
Position2: "'cpsp' Versalabstaende 1" dx=2 dy=0 dh=5 dv=0
EndChar

StartChar: Z
Encoding: 90 90 268
Width: 645
GlyphClass: 2
Flags: MW
AnchorPoint: "cedilla" 307 4 basechar 0
AnchorPoint: "below" 307 -107 basechar 0
AnchorPoint: "above" 340 803 basechar 0
AnchorPoint: "top_punkt" 339 720 basechar 0
LayerCount: 2
Fore
SplineSet
208 63 m 1
 339 63 608 84 608 84 c 1
 610 81 l 1
 609 73 608 48 608 38 c 0
 608 28 609 14 610 0 c 1
 608 -3 l 1
 592 -1 572.8 0 537 0 c 2
 154 0 l 2
 124 0 5 -3 5 -3 c 1
 2 1 l 1
 13 15 22 30 28 38 c 2
 419.5 582.6 l 2
 419.4 582.5 60 561 60 561 c 2
 58 564 l 1
 59 572 60 597 60 607 c 0
 60 617 59 631 58 645 c 1
 60 648 l 1
 76 646 99 645 121 645 c 2
 486 645 l 2
 517 645 595.5 648.8 612 651 c 0
 616.5 651 618 649 618 645 c 0
 618 634 608 619 588 591 c 0
 211.1 69.4 208 66.8 208 63 c 1
EndSplineSet
Position2: "'cpsp' Versalabstaende 1" dx=2 dy=0 dh=5 dv=0
EndChar

StartChar: bracketleft
Encoding: 91 91 269
Width: 409
GlyphClass: 2
Flags: MW
LayerCount: 2
Fore
SplineSet
110 -192 m 1
 110 703 l 1
 373 703 l 1
 373 664 l 1
 236 654 210 639 210 552 c 2
 210 -41 l 2
 210 -128 235 -143 373 -154 c 1
 373 -192 l 1
 110 -192 l 1
EndSplineSet
EndChar

StartChar: backslash
Encoding: 92 92 270
Width: 313
GlyphClass: 2
Flags: MW
LayerCount: 2
Fore
SplineSet
81 698 m 1
 311 -48 l 1
 241 -48 l 1
 11 698 l 1
 81 698 l 1
EndSplineSet
EndChar

StartChar: bracketright
Encoding: 93 93 271
Width: 409
GlyphClass: 2
Flags: MW
LayerCount: 2
Fore
SplineSet
299 703 m 1
 299 -192 l 1
 36 -192 l 1
 36 -153 l 1
 173 -143 199 -128 199 -41 c 2
 199 552 l 2
 199 639 174 654 36 665 c 1
 36 703 l 1
 299 703 l 1
EndSplineSet
Colour: ff00ff
EndChar

StartChar: underscore
Encoding: 95 95 273
Width: 486
GlyphClass: 2
Flags: MW
LayerCount: 2
Fore
SplineSet
482 -103 m 1
 482 -164 l 1
 5 -164 l 1
 5 -103 l 1
 482 -103 l 1
EndSplineSet
EndChar

StartChar: a
Encoding: 97 97 274
Width: 516
GlyphClass: 2
Flags: MW
AnchorPoint: "ogonek" 496 16 basechar 0
AnchorPoint: "cedilla" 206 -5 basechar 0
AnchorPoint: "below" 235 -108 basechar 0
AnchorPoint: "top_punkt" 249 550 basechar 0
AnchorPoint: "above" 248 645 basechar 0
LayerCount: 2
Fore
SplineSet
311 222 m 1
 231 201 l 2
 180.8 187.8 168 143.1 168 107 c 0
 168 80 190 50 220 50 c 0
 248 50 271 61 294 84 c 0
 301.1 91.1 309 116 309 129 c 2
 311 222 l 1
437 80 m 0
 437 47 458 44 498 44 c 1
 504 39 506.7 31.7 508 23 c 1
 478 0 428.1 -10 389 -10 c 0
 346 -10 324 7 310 48 c 1
 308 48 l 1
 263 3 210.1 -10 171 -10 c 0
 101 -10 34 29 34 98 c 0
 34 166 92 217 188 240 c 1
 305 271 l 2
 308 272 311 276 311 283 c 0
 311 360.1 286 385 242 385 c 0
 197 385 153 356 119 306 c 1
 86 307 l 1
 66 382 l 1
 69 386 l 1
 93 407 189 439 261 439 c 0
 309.1 439 369.3 427.5 401 399.1 c 0
 428.6 374.3 441 337.1 441 277 c 0
 441 266 437 109 437 80 c 0
EndSplineSet
EndChar

StartChar: b
Encoding: 98 98 275
Width: 586
GlyphClass: 2
Flags: MW
AnchorPoint: "above" -1422 -1053 basechar 0
AnchorPoint: "below" 300 -108 basechar 0
AnchorPoint: "top_punkt" 318 553 basechar 0
LayerCount: 2
Fore
SplineSet
235.3 53.8 m 0
 250.6 44 274 40 308 40 c 0
 336.3 40 366.5 51.5 384 87.5 c 0
 399.4 119.1 406 165.2 406 222 c 0
 406 319 373 371 312 371 c 0
 287.9 371 267 363 218 328 c 1
 218 108 l 2
 218 80.4 220.9 63 235.3 53.8 c 0
218 500 m 2
 218 384 l 1
 278 429 313 439 356 439 c 0
 409.1 439 453.6 425.2 493 389 c 0
 529.8 355.2 548 301 548 242 c 0
 548 152.6 512.5 84.6 464 43 c 0
 420.2 5.5 366.2 -10 314 -10 c 0
 278.4 -10 233.8 -8.7 217.7 -2 c 0
 201.7 4.6 171.7 11 161 11 c 0
 146.5 11 101.2 -9 89 -11 c 1
 83 -9.7 80.7 -8 78 -6 c 1
 82.2 15.8 86 95 86 134 c 2
 86 474 l 2
 86 550 81.7 619.3 74 662 c 1
 76 665 l 1
 116.5 668 195.9 688 221 698 c 1
 227.3 698 230 695 230 688 c 0
 222.3 626.7 218 574 218 500 c 2
EndSplineSet
EndChar

StartChar: c
Encoding: 99 99 276
Width: 472
GlyphClass: 2
Flags: MW
AnchorPoint: "ogonek" 415 51 basechar 0
AnchorPoint: "cedilla" 308 3 basechar 0
AnchorPoint: "below" 292 -113 basechar 0
AnchorPoint: "top_punkt" 301 550 basechar 0
AnchorPoint: "above" 298 645 basechar 0
LayerCount: 2
Fore
SplineSet
297 389 m 0
 261.8 389 227.7 372.2 208.4 341 c 0
 191.5 313.8 184 275.6 184 228 c 0
 184 170.8 196 123 214 94 c 0
 232 65 272 40 301 40 c 0
 341 40 390 54 418 88 c 1
 434 83 l 1
 434 67 436.8 53.5 439 44 c 1
 394 6 350.4 -10 274 -10 c 0
 198.8 -10 131.7 15 96 54 c 0
 62.4 90.7 42 139.5 42 202 c 0
 42 359 154 439 288 439 c 0
 338 439 406 422 437 406 c 1
 439 403 l 1
 415 306 l 1
 387 305 l 1
 365 360 335.5 389 297 389 c 0
EndSplineSet
EndChar

StartChar: d
Encoding: 100 100 277
Width: 591
GlyphClass: 2
Flags: MW
AnchorPoint: "above" 281 645 basechar 0
AnchorPoint: "top_punkt" 282 550 basechar 0
AnchorPoint: "ogonek" 375 20 basechar 0
AnchorPoint: "below" 322 -107 basechar 0
LayerCount: 2
Fore
SplineSet
373 133 m 1
 373 303 l 1
 362.5 354.5 325 389 278 389 c 0
 229.6 389 186 356 186 221 c 0
 186 96 222 48 276 48 c 0
 316.5 48 348.5 69 373 133 c 1
373 54 m 1
 346 7.5 293 -10 230 -10 c 0
 119 -10 44 80 44 203 c 0
 44 274.9 68 347.5 130 392.5 c 0
 175.9 425.8 212 439 279 439 c 0
 307.5 439 354 421 373 394 c 1
 373 474 l 2
 373 550 368.7 619.3 361 662 c 1
 363 665 l 1
 403.5 668 480.9 688 506 698 c 1
 512.3 698 517 695 517 688 c 0
 509.3 626.7 505 574 505 500 c 2
 505 192 l 2
 505 117 516 43 524 0 c 1
 522 -3 l 1
 509 -1 465.1 0 452.5 0 c 0
 438 0 402.3 -1.3 389 -3 c 0
 383 -3 380 -2 380 0 c 2
 375 54 l 1
 373 54 l 1
EndSplineSet
EndChar

StartChar: e
Encoding: 101 101 278
Width: 508
GlyphClass: 2
Flags: MW
AnchorPoint: "ogonek" 447 56 basechar 0
AnchorPoint: "above" 291 645 basechar 0
AnchorPoint: "top_punkt" 277.3 550 basechar 0
AnchorPoint: "below" 258.9 -108 basechar 0
LayerCount: 2
Fore
SplineSet
173 255 m 1
 329 255 l 1
 329 342.5 304.9 389 264 389 c 0
 235.7 389 216.2 376.3 203.5 359 c 0
 188.7 338.8 176.5 304 173 255 c 1
448 107 m 1
 458 107 464 89 464 76 c 1
 409.5 13 338 -10 266 -10 c 0
 191 -10 132.2 6.5 98 42 c 0
 56.7 84.9 35 147 35 206 c 0
 35 288.9 68 349 116.5 389 c 0
 156.2 421.7 216 439 271 439 c 0
 425 439 460 339 460 214 c 1
 454 208 l 1
 454 208 368.5 210 268.5 210 c 2
 169 210 l 1
 169 164.1 180.2 129 202.2 105 c 0
 226 79.1 262.4 66 311 66 c 0
 353 66 401.5 69.5 448 107 c 1
EndSplineSet
EndChar

StartChar: f
Encoding: 102 102 279
Width: 366
GlyphClass: 2
Flags: MW
AnchorPoint: "cedilla" 162 10 basechar 0
AnchorPoint: "below" 161 -111 basechar 0
LayerCount: 2
Fore
SplineSet
222 379 m 1
 225 200 l 2
 226.3 124.9 226 58 233 0 c 1
 231 -3 l 1
 231 -3 196.3 0 162 0 c 0
 127 0 87 -3 87 -3 c 1
 86 0 l 1
 93 51 93 125 93 200 c 2
 93 379 l 1
 70.2 378.9 39.2 378.3 22 377 c 1
 17 384 l 1
 26.7 399 33.5 415 39 432 c 1
 51.4 430.4 72.5 429.1 93 429 c 1
 93 459 l 2
 93 520 118 583 162 629 c 0
 204 672.9 264.4 698 340 698 c 0
 371.4 698 407 689 415 684 c 1
 416 681 l 1
 407 660.5 396 608 393 580 c 1
 363 579 l 1
 355.4 607.9 328 629 299 629 c 0
 245 629 215 590.2 215 535 c 0
 215 513 222 464.5 222 439 c 2
 222 429 l 1
 269 429 l 2
 292 429 320.4 430.4 339 432 c 1
 344 424 l 1
 338 409.3 333.5 392 332 377 c 1
 318.7 378.3 284 379 260 379 c 2
 222 379 l 1
EndSplineSet
EndChar

StartChar: g
Encoding: 103 103 280
Width: 561
GlyphClass: 2
Flags: MW
AnchorPoint: "below" 245 -88 basechar 0
AnchorPoint: "above" 240 645 basechar 0
AnchorPoint: "top_punkt" 270 549 basechar 0
LayerCount: 2
Fore
SplineSet
459 289 m 0
 459 195.9 374 141 258 141 c 0
 223.9 141 196.8 146 182.5 152 c 1
 171.5 135 171 123.1 171 107 c 0
 171 64 201 59 229 59 c 0
 234 59 234 60 248 61 c 0
 271 64 294 66 311 66 c 0
 403 66 530 46 530 -68 c 0
 530 -121.4 485.5 -171.5 426.5 -200.5 c 0
 366.1 -230.2 290.3 -238 225 -238 c 0
 135.8 -238 32 -211 32 -124 c 0
 32 -99.2 37 -68 54 -46 c 1
 78 -32 116.4 -17.6 138 -4 c 1
 82.5 4.5 59 32 59 74 c 0
 59 106.8 101.5 145 146 160 c 1
 148 165 l 1
 148 165 123.3 172.6 108.5 183 c 0
 82.8 201 54 229 54 285 c 0
 54 381 143 439 251 439 c 0
 272.5 439 305.4 436 323.3 430.4 c 1
 397.9 434.3 461.2 434.9 509 439 c 1
 512 436 l 1
 510 427 509 416 509 407 c 0
 509 398 510 389 512 380 c 1
 509 377 l 1
 474.2 379.4 437.7 385.1 407.9 385.6 c 1
 439 364.6 459 323.5 459 289 c 0
326 288 m 0
 326 363 315 399 255 399 c 0
 203 399 187 356 187 290 c 0
 187 217 197 181 258 181 c 0
 306 181 326 217 326 288 c 0
183 -16 m 1
 157 -43 151 -70.9 151 -104 c 0
 151 -172 219 -193 253 -193 c 0
 339 -193 400 -152 400 -91 c 0
 400 -21.8 332 -17 276 -17 c 0
 262.2 -17 235.5 -18 206 -18 c 0
 197 -18 189.4 -16.8 183 -16 c 1
EndSplineSet
EndChar

StartChar: h
Encoding: 104 104 281
Width: 606
GlyphClass: 2
Flags: MW
AnchorPoint: "ogonek" 494 10 basechar 0
AnchorPoint: "top_punkt" 355 550 basechar 0
AnchorPoint: "above" 354 645 basechar 0
AnchorPoint: "below" 340 -111 basechar 0
LayerCount: 2
Fore
SplineSet
86 474 m 2
 86 550 81.7 619.3 74 662 c 1
 76 665 l 1
 116.5 668 193.9 688 219 698 c 1
 225.3 698 228 695 228 688 c 0
 220.3 626.7 218 575 218 500 c 2
 218 438 l 1
 214 351 l 1
 218 349 l 1
 264 408 338 439 389 439 c 0
 479 439 518 381 518 291 c 2
 518 180 l 2
 518 104 519 57 528 0 c 1
 526 -3 l 1
 526 -3 499 0 465 0 c 0
 430 0 381 -3 381 -3 c 1
 380 0 l 1
 386 53 386 105 386 180 c 2
 386 269 l 2
 386 342 361 362 334 362 c 0
 298 362 256 332 218 282 c 1
 218 180 l 2
 218 104 219 57 224 0 c 1
 222 -3 l 1
 222 -3 189.3 0 155 0 c 0
 120 0 75 -3 75 -3 c 1
 74 0 l 1
 82.5 53.5 86 105 86 180 c 2
 86 474 l 2
EndSplineSet
EndChar

StartChar: k
Encoding: 107 107 284
Width: 582
GlyphClass: 2
Flags: MW
AnchorPoint: "cedilla" 149 9 basechar 0
AnchorPoint: "top_punkt" 266 551 basechar 0
AnchorPoint: "above" 265 646 basechar 0
AnchorPoint: "below" 253 -107 basechar 0
LayerCount: 2
Fore
SplineSet
86 200 m 2
 86 474 l 2
 86 550 81.7 619.3 74 662 c 1
 76 665 l 1
 116.5 668 193.9 688 219 698 c 1
 225.3 698 230 695 230 688 c 0
 222.3 626.7 218 575 218 500 c 2
 218 249.6 l 1
 231.7 251.2 252.7 256.1 263 264 c 0
 302.6 294.5 356 364 395 429 c 1
 422 429 533 429 552 432 c 1
 554 429 l 1
 472.9 367.9 388.5 293 352 252 c 1
 447 136.5 500.6 78.6 575 0 c 1
 573 -3 l 1
 564 -1.2 485.7 0 469 0 c 0
 452 0 404.3 -1.2 389 -3 c 1
 335.9 92.9 305.9 136.9 244 206 c 0
 237.7 211.6 226.5 213.8 218 214.6 c 1
 218 200 l 2
 218 124.8 221.5 57 230 0 c 1
 228 -3 l 1
 228 -3 186.3 0 152 0 c 0
 117 0 75 -3 75 -3 c 1
 74 0 l 1
 82.5 53.5 86 125 86 200 c 2
EndSplineSet
Colour: ff80cc
EndChar

StartChar: uni02E1
Encoding: 737 737 285
Width: 261
GlyphClass: 2
Flags: MW
LayerCount: 2
Fore
SplineSet
80 619 m 2
 80.7 701.7 79 755 75 779 c 1
 76 780 l 1
 115.3 782 150.3 788 181 798 c 1
 185 798 187 796.3 187 793 c 0
 183 758.3 180.7 705 180 633 c 2
 180 471 l 2
 180 428.3 182 392.7 186 364 c 1
 185 362 l 1
 169.7 363.3 151.3 364 130 364 c 0
 108 364 89.7 363.3 75 362 c 1
 74 364 l 1
 78 390.7 80 426.3 80 471 c 2
 80 619 l 2
EndSplineSet
Colour: ff00ff
EndChar

StartChar: m
Encoding: 109 109 286
Width: 892
GlyphClass: 2
Flags: MW
AnchorPoint: "cedilla" 146 9 basechar 0
AnchorPoint: "top_punkt" 450 550 basechar 0
AnchorPoint: "above" 449 645 basechar 0
AnchorPoint: "below" 444 -105 basechar 0
LayerCount: 2
Fore
SplineSet
216 349 m 1
 254 398 316 439 365 439 c 0
 454.6 439 482 409 502 359 c 1
 559 419 611 439 661 439 c 0
 769 439 804 380 804 280 c 2
 804 180 l 2
 804 104 808 57 816 0 c 1
 814 -3 l 1
 814 -3 775 0 741 0 c 0
 706 0 661 -3 661 -3 c 1
 660 0 l 1
 668 54 672 105 672 180 c 2
 672 273 l 2
 672 340 649 362 617 362 c 0
 578 362 556 351 508 298 c 1
 509 286 509 282 509 268 c 2
 509 180 l 2
 509 104 513 57 521 0 c 1
 519 -3 l 1
 519 -3 480 0 446 0 c 0
 411 0 366 -3 366 -3 c 1
 365 0 l 1
 373 54 377 105 377 180 c 2
 377 281 l 2
 377 348 356 362 318 362 c 0
 290 362 254 332 212 281 c 1
 212 180 l 2
 212 104 214 57 222 0 c 1
 220 -3 l 1
 220 -3 180 0 146 0 c 0
 111 0 69 -3 69 -3 c 1
 68 0 l 1
 76 54 80 105 80 180 c 2
 80 235 l 2
 80 309.7 76.7 386.3 69 429 c 1
 71 432 l 1
 106 430.3 171 430.3 200 435 c 1
 206.3 435 207.8 431.9 209 425 c 0
 210.5 416.5 211.8 374.8 211.8 352 c 1
 216 349 l 1
EndSplineSet
EndChar

StartChar: n
Encoding: 110 110 287
Width: 600
GlyphClass: 2
Flags: MW
AnchorPoint: "cedilla" 133 9 basechar 0
AnchorPoint: "top_punkt" 289 550 basechar 0
AnchorPoint: "below" 289 -111 basechar 0
AnchorPoint: "above" 288 646 basechar 0
LayerCount: 2
Fore
SplineSet
512 180 m 2
 512 104 514 57 523 0 c 1
 521 -3 l 1
 521 -3 477 0 443 0 c 0
 408 0 376 -3 376 -3 c 1
 374 0 l 1
 380 53 380 105 380 180 c 2
 380 269 l 2
 380 342 355 362 328 362 c 0
 292 362 250 332 212 282 c 1
 212 180 l 2
 212 104 213 57 218 0 c 1
 215 -3 l 1
 215 -3 187.3 0 153 0 c 0
 118 0 71 -3 71 -3 c 1
 69 0 l 1
 77.5 53.5 80 105 80 180 c 2
 80 235 l 2
 80 309.7 76.7 386.3 69 429 c 1
 71 432 l 1
 106 430.3 171 430.3 200 435 c 1
 206.3 435 207.8 431.9 209 425 c 0
 210.5 416.5 211.8 374.8 211.8 352 c 1
 216 349 l 1
 262 408 322 439 373 439 c 0
 463 439 512 396 512 291 c 2
 512 180 l 2
EndSplineSet
EndChar

StartChar: o
Encoding: 111 111 288
Width: 566
GlyphClass: 2
Flags: MW
AnchorPoint: "cedilla" 291.1 -3 basechar 0
AnchorPoint: "ogonek" 438.2 44 basechar 0
AnchorPoint: "below" 298.8 -107 basechar 0
AnchorPoint: "top_punkt" 297.7 550 basechar 0
AnchorPoint: "above" 287.8 645 basechar 0
LayerCount: 2
Fore
SplineSet
41 205 m 0
 41 360 142 439 285 439 c 0
 454 439 525 340 525 214 c 0
 525 75.8 436 -10 283 -10 c 0
 134 -10 41 72 41 205 c 0
278 389 m 0
 192 389 183 315 183 228 c 0
 183 151 193 40 297 40 c 0
 342 40 383 72 383 187 c 0
 383 326 363 389 278 389 c 0
EndSplineSet
EndChar

StartChar: p
Encoding: 112 112 289
Width: 585
GlyphClass: 2
Flags: MW
AnchorPoint: "top_punkt" 291 551 basechar 0
AnchorPoint: "above" 290 646 basechar 0
LayerCount: 2
Fore
SplineSet
212 282 m 1
 212 76 l 1
 249 45 276 40 301 40 c 0
 357 40 401 101.5 401 208 c 0
 401 304.5 385 369 324 369 c 0
 290 369 234 335 212 282 c 1
216 358 m 1
 265 425 328 439 371 439 c 0
 414.5 439 449.1 426.7 472.5 406.5 c 0
 520 365.5 543 309.5 543 235 c 0
 543 94.1 445.1 -10 319 -10 c 0
 282 -10 245 -3 212 18 c 1
 212 -32 l 2
 212 -107 213.5 -175 222 -232 c 1
 220 -235 l 1
 220 -235 179.3 -232 145 -232 c 0
 110 -232 71 -235 71 -235 c 1
 70 -232 l 1
 78.5 -178.5 80 -106.5 80 -32 c 2
 80 235 l 2
 80 309.7 76.7 386.3 69 429 c 1
 71 432 l 1
 106 430.3 171 430.3 200 435 c 1
 206.3 435 207.8 431.9 209 425 c 0
 210.5 416.5 211.8 383.8 211.8 361 c 1
 216 358 l 1
EndSplineSet
EndChar

StartChar: q
Encoding: 113 113 290
Width: 595
GlyphClass: 2
Flags: MW
AnchorPoint: "top_punkt" 263 550 basechar 0
AnchorPoint: "above" 262 645 basechar 0
LayerCount: 2
Fore
SplineSet
383 367 m 1
 353.5 385.5 328 389 286 389 c 0
 216 389 196 316 196 222 c 0
 196 78 247 49 305 49 c 0
 324 49 357 70 383 90 c 1
 383 367 l 1
404 433 m 0
 448.5 430 489 430.3 524 432 c 1
 526 429 l 1
 518.3 386.3 515 309.7 515 235 c 2
 515 -32 l 2
 515 -107.2 516.5 -175 525 -232 c 1
 523 -235 l 1
 523 -235 484.3 -232 450 -232 c 0
 415 -232 374 -235 374 -235 c 1
 373 -232 l 1
 381.5 -178.5 383 -106 383 -32 c 2
 383 38 l 1
 350 10 310.4 -10 262 -10 c 0
 195 -10 150 1 113 41 c 0
 78.9 77.9 54 136.2 54 207 c 0
 54 339 146 439 287 439 c 0
 313.9 439 362.3 435.8 404 433 c 0
EndSplineSet
EndChar

StartChar: r
Encoding: 114 114 291
Width: 421
GlyphClass: 2
Flags: MW
AnchorPoint: "cedilla" 147 7 basechar 0
AnchorPoint: "top_punkt" 249 551 basechar 0
AnchorPoint: "above" 248 646 basechar 0
AnchorPoint: "below" 192 -108 basechar 0
LayerCount: 2
Fore
SplineSet
225 349 m 1
 251 388 299 439 346 439 c 0
 364 439 380 437 397 432 c 1
 401 428 l 1
 381 325 l 1
 363 323 l 1
 345 337 324 342 305 342 c 0
 289.9 342 221 330.4 221 253 c 2
 221 180 l 2
 221 104 223 57 231 0 c 1
 229 -3 l 1
 229 -3 181 0 147 0 c 0
 112 0 80 -3 80 -3 c 1
 79 0 l 1
 87 54 89 105 89 180 c 2
 89 235 l 2
 89 309.7 85.7 386.3 78 429 c 1
 80 432 l 1
 115 430.3 180 430.3 209 435 c 1
 215.3 435 216.8 431.9 218 425 c 0
 219.5 416.5 220.8 374.8 220.8 352 c 1
 225 349 l 1
EndSplineSet
EndChar

StartChar: uni02E2
Encoding: 738 738 292
Width: 307
GlyphClass: 2
Flags: MW
LayerCount: 2
Fore
SplineSet
69 443 m 1
 86.3 410.3 107.7 394 133 394 c 0
 147 394 157 395.3 163 398 c 0
 171 402 175 407.3 175 414 c 0
 175 426 171 436 163 444 c 0
 155.7 451.3 140.3 461.7 117 475 c 0
 73 499 51 527.3 51 560 c 0
 51 582.7 61.3 601 82 615 c 0
 102 628.3 132.7 635 174 635 c 0
 209.3 635 236.7 629.3 256 618 c 1
 257 617 l 1
 245 551 l 1
 225 550 l 1
 210.3 581.3 192.7 597 172 597 c 0
 152 597 142 590 142 576 c 0
 142 562 154.3 548.3 179 535 c 0
 211.7 517.7 232 505.7 240 499 c 0
 258 483 267 462.7 267 438 c 0
 267 414.7 258 395.7 240 381 c 0
 219.3 365 187.7 357 145 357 c 0
 103.7 357 68 362.3 38 373 c 1
 48 443 l 1
 69 443 l 1
EndSplineSet
Colour: ff00ff
EndChar

StartChar: t
Encoding: 116 116 293
Width: 354
GlyphClass: 2
Flags: MW
AnchorPoint: "cedilla" 184 -3 basechar 0
AnchorPoint: "ogonek" 289 15 basechar 0
AnchorPoint: "below" 200 -106.9 basechar 0
LayerCount: 2
Fore
SplineSet
90 429 m 1
 90 468.7 90.7 503.3 94 530 c 1
 96 533 l 1
 136 542 190 568 215 578 c 1
 221 578 224 575 224 568 c 0
 219.5 515 219 485 219 429 c 1
 266 429 l 2
 289 429 317.4 430.4 336 432 c 1
 341 424 l 1
 335 409.3 330.5 392 329 377 c 1
 315.7 378.3 281 379 257 379 c 2
 219 379 l 1
 217 272.1 l 2
 215.9 212.1 216 161.1 216 131.1 c 0
 216 90.1 226 51.1 253 51.1 c 0
 279 51.1 289 52.1 311 63.1 c 1
 322 56.1 328 41.1 328 25.1 c 1
 285 -0.9 233 -9.9 181 -9.9 c 0
 117 -9.9 84 41.1 84 88.1 c 0
 84 118.1 85.5 201.1 87 261.1 c 2
 90 379 l 1
 67.2 378.9 36.2 378.3 19 377 c 1
 14 384 l 1
 23.7 399 30.5 415 36 432 c 1
 48.4 430.4 69.5 429.1 90 429 c 1
EndSplineSet
EndChar

StartChar: u
Encoding: 117 117 294
Width: 591
GlyphClass: 2
Flags: MW
AnchorPoint: "cedilla" 195 0 basechar 0
AnchorPoint: "ogonek" 418 7 basechar 0
AnchorPoint: "below" 270 -111 basechar 0
AnchorPoint: "top_punkt" 324 550 basechar 0
AnchorPoint: "above" 324 646 basechar 0
LayerCount: 2
Fore
SplineSet
372 64 m 1
 316 4 245 -10 204 -10 c 0
 105 -10 70 57 71 126 c 2
 73 249 l 2
 74.2 321 71 372 65 429 c 1
 67 432 l 1
 67 432 103 429 137 429 c 0
 172 429 212 432 212 432 c 1
 213 429 l 1
 208 377.5 206.7 324 205 249 c 2
 203 159 l 2
 201 77 230 67 260 67 c 0
 304.8 67 372 111 372 169 c 2
 372 249 l 2
 372 325 372 373 365 429 c 1
 367 432 l 1
 367 432 401 429 435 429 c 0
 470 429 512 432 512 432 c 1
 513 429 l 1
 504 376 504 324 504 249 c 2
 504 192 l 2
 504 117 513 43 521 0 c 1
 519 -3 l 1
 506 -1 458.1 0 445.5 0 c 0
 431 0 401.3 -1.3 388 -3 c 0
 382 -3 379 -2 379 0 c 2
 374 64 l 1
 372 64 l 1
EndSplineSet
EndChar

StartChar: v
Encoding: 118 118 295
Width: 550
GlyphClass: 2
Flags: MW
AnchorPoint: "below" 303 -113 basechar 0
AnchorPoint: "above" 325 646 basechar 0
AnchorPoint: "top_punkt" 326 551 basechar 0
LayerCount: 2
Fore
SplineSet
214 -3 m 1
 158 143 91 285 20 432 c 1
 36 429 91 429 107 429 c 0
 121 429 168 429 181 432 c 1
 210.9 337.6 254.4 217.5 294 123 c 1
 300.3 122.5 l 1
 346.5 205 398.6 340.8 430 432 c 1
 439 429 463 429 473 429 c 0
 483 429 521 429 530 432 c 1
 454.5 288.5 373.5 132.5 311 -3 c 1
 302.5 -1 279 0 269 0 c 0
 259 0 225 -1 214 -3 c 1
EndSplineSet
EndChar

StartChar: w
Encoding: 119 119 296
Width: 811
GlyphClass: 2
Flags: MW
AnchorPoint: "top_punkt" 413 552 basechar 0
AnchorPoint: "above" 412 646 basechar 0
AnchorPoint: "below" 419 -111 basechar 0
LayerCount: 2
Fore
SplineSet
201 -4 m 1
 146 142 84 283 18 431 c 1
 32 428 92 428 106 428 c 0
 119 428 158 428 170 431 c 1
 202 319.5 238.7 210.8 281.9 99.5 c 1
 287.5 99.5 l 1
 316.2 161.3 349.9 240.8 379.2 319 c 1
 363.5 356.5 347.5 394.2 331 432 c 1
 345 430 400 429 414 429 c 0
 427 429 471 430 483 432 c 1
 508 321 537 216.5 571 110 c 1
 575 110 l 1
 619 203.5 667 326.5 700 432 c 1
 708 429 735 429 744 429 c 0
 753 429 785 429 793 432 c 1
 727 289 661 139 600 -3 c 1
 592 0 565 0 556 0 c 0
 547 0 513 0 504 -3 c 1
 474.6 79.4 443.6 160.9 410.6 242.5 c 1
 372.7 159.5 335.8 77.8 300 -4 c 1
 292 -1 263 -1 254 -1 c 0
 245 -1 210 -1 201 -4 c 1
EndSplineSet
EndChar

StartChar: uni02E3
Encoding: 739 739 297
Width: 307
GlyphClass: 2
Flags: MW
LayerCount: 2
Fore
SplineSet
20 631 m 1
 34.7 629 58.3 628 91 628 c 0
 114.3 628 132.7 629 146 631 c 1
 161.3 606.3 178 581.7 196 557 c 1
 226 598 226 598 249 631 c 1
 258.3 629 274 628 296 628 c 0
 310 628 321.3 629 330 631 c 1
 232 515 l 1
 281 447 281 447 347 361 c 1
 333 363 314.7 364 292 364 c 0
 258.7 364 235.7 363 223 361 c 1
 210.3 381.7 191 410 165 446 c 1
 107 361 l 1
 99 363 86 364 68 364 c 0
 49.3 364 36.3 363 29 361 c 1
 128 489 l 1
 20 631 l 1
EndSplineSet
Colour: ff00ff
EndChar

StartChar: y
Encoding: 121 121 298
Width: 539
GlyphClass: 2
Flags: MW
AnchorPoint: "above" 258 644 basechar 0
AnchorPoint: "top_punkt" 267 550 basechar 0
LayerCount: 2
Fore
SplineSet
20 432 m 1
 34 429 95 429 108 429 c 0
 122 429 158 429 171 432 c 1
 204.4 329.7 242.6 227.6 289 125 c 1
 298 124 l 1
 341 220 381.1 331.9 413 432 c 1
 423 429 460 429 470 429 c 0
 480 429 509 429 519 432 c 1
 486 365 257 -112 219 -237 c 1
 209 -234 180 -232 170 -232 c 0
 160 -232 116 -234 106 -237 c 1
 151.2 -161.7 195 -84.7 227 -10 c 1
 215.2 8.5 l 1
 177.1 109.2 64.5 341.1 20 432 c 1
EndSplineSet
EndChar

StartChar: z
Encoding: 122 122 299
Width: 484
GlyphClass: 2
Flags: MW
AnchorPoint: "above" 220 646 basechar 0
AnchorPoint: "top_punkt" 221 551 basechar 0
AnchorPoint: "cedilla" 208 4 basechar 0
AnchorPoint: "below" 207 -111 basechar 0
LayerCount: 2
Fore
SplineSet
271 370 m 1
 159 368 59 359 59 359 c 1
 57 362 l 1
 58 370 59 388 59 397 c 0
 59 406 58 416 57 429 c 1
 59 432 l 1
 74 430 95 429 115 429 c 2
 367 429 l 2
 396 429 443 435 448 435 c 0
 452 435 453 433 453 429 c 1
 447 422 440 412 423 387 c 2
 200 59 l 1
 320 60 444 70 444 70 c 1
 446 67 l 1
 445 59 444 41 444 32 c 0
 444 23 445 13 446 0 c 1
 444 -3 l 1
 429 -1 408 0 388 0 c 2
 162 0 l 2
 134 0 23 -3 23 -3 c 1
 21 7 l 1
 30 16 34 20 42 32 c 2
 271 370 l 1
EndSplineSet
EndChar

StartChar: braceleft
Encoding: 123 123 300
Width: 307
GlyphClass: 2
Flags: MW
LayerCount: 2
Fore
SplineSet
208 552 m 2
 216 386 l 2
 220.3 297 178.2 268.2 111 249 c 1
 111 245 l 1
 178.8 216.8 220.4 177.3 216 95 c 2
 208 -54 l 2
 203.5 -138 244 -188 288 -188 c 1
 294 -194 294 -206 288 -212 c 1
 187 -212 101 -179 106 -49 c 2
 112 121 l 2
 114 182 87.5 222 14 231 c 1
 6 239 5 254 14 263 c 1
 88 270 112 320 112 370 c 1
 106 554 l 2
 102 667 198 707 288 707 c 1
 294 701 294 689 288 683 c 1
 250 672 203 654.9 208 552 c 2
EndSplineSet
EndChar

StartChar: bar
Encoding: 124 124 301
Width: 240
GlyphClass: 2
Flags: MW
LayerCount: 2
Fore
SplineSet
160 -232 m 1
 80 -232 l 1
 80 698 l 1
 160 698 l 1
 160 -232 l 1
EndSplineSet
EndChar

StartChar: braceright
Encoding: 125 125 302
Width: 307
GlyphClass: 2
Flags: MW
LayerCount: 2
Fore
SplineSet
99 -58 m 2
 91 108 l 2
 86.7 197 128.8 225.8 196 245 c 1
 196 249 l 1
 128.2 277.2 86.6 316.7 91 399 c 2
 99 548 l 2
 103.5 632 63 682 19 682 c 1
 13 688 13 700 19 706 c 1
 120 706 206 673 201 543 c 2
 195 373 l 2
 193 312 219.5 272 293 263 c 1
 301 255 302 240 293 231 c 1
 219 224 195 174 195 124 c 1
 201 -60 l 2
 205 -173 109 -213 19 -213 c 1
 13 -207 13 -195 19 -189 c 1
 57 -178 104 -160.9 99 -58 c 2
EndSplineSet
Colour: ff00ff
EndChar

StartChar: asciitilde
Encoding: 126 126 303
Width: 449
GlyphClass: 2
Flags: MW
LayerCount: 2
Fore
SplineSet
26 204 m 1
 39 269 93 351 154 351 c 0
 177 351 202 335 228 319 c 0
 253 303 279 286 301 286 c 0
 329 286 359 294 381 344 c 1
 417 328 l 1
 386 221 321 198 297 198 c 0
 271 198 246 214 222 231 c 0
 197 248 173 263 148 263 c 0
 113 263 81 235 58 191 c 1
 26 204 l 1
EndSplineSet
EndChar

StartChar: cent
Encoding: 162 162 305
Width: 480
GlyphClass: 2
Flags: MW
LayerCount: 2
Fore
SplineSet
265 578 m 1
 309 578 l 1
 309 486.4 l 1
 351.2 483.2 400.9 470 425.3 457.4 c 1
 427.1 454.7 l 1
 405.5 367.4 l 1
 380.3 366.5 l 1
 362.4 411.3 339 436.9 309 441.4 c 1
 309 128.1 l 1
 343.8 129.4 384.4 142.3 408.2 171.2 c 1
 422.6 166.7 l 1
 422.6 152.3 425.1 140.2 427.1 131.6 c 1
 393 102.8 359.8 88 309 84.1 c 1
 309 -12 l 1
 265 -12 l 1
 265 83.3 l 1
 202.9 86.1 148.4 107.8 118.4 140.6 c 0
 88.2 173.6 69.8 217.5 69.8 273.8 c 0
 69.8 404.7 156.3 476.1 265 485.9 c 1
 265 578 l 1
265 139.6 m 1
 265 435.9 l 1
 246.7 429 230.5 416.5 219.6 398.9 c 0
 204.4 374.4 197.6 340 197.6 297.2 c 0
 197.6 245.7 208.4 202.7 224.6 176.6 c 0
 233.6 162.1 248.8 148.6 265 139.6 c 1
EndSplineSet
Colour: ff80cc
EndChar

StartChar: sterling
Encoding: 163 163 306
Width: 505
GlyphClass: 2
Flags: MW
LayerCount: 2
Fore
SplineSet
258 415 m 2
 262 351 l 1
 384 351 l 2
 390 351 392 349 392 345 c 2
 392 315 l 2
 392 306 377 302 365 302 c 2
 262 302 l 1
 261 181 211 134 174 102 c 1
 175 102 177 102 179 102 c 0
 306 102 292 55 366 55 c 0
 399 55 452 60 482 96 c 1
 502 78 l 1
 475 26 419 -10 346 -10 c 0
 245 -10 245 54 148 54 c 0
 109 54 105 37 105 25 c 0
 105 -1 84 -15 56 -15 c 0
 33 -15 16 -2 16 16 c 0
 16 37 45 55 79 71 c 1
 140 116 144 193 144 285 c 2
 144 302 l 1
 74 302 l 2
 68 302 67 303 67 308 c 2
 67 330 l 2
 67 339 74 351 94 351 c 2
 144 351 l 1
 144 364 l 2
 144 450 172 494 231 546 c 0
 291 598 358 610 424 610 c 0
 444 610 462 605 471 601 c 1
 472 598 l 1
 460 580 456 543 451 514 c 1
 429 513 l 1
 417 531 405 553 375 553 c 0
 315 553 251.7 515.7 258 415 c 2
EndSplineSet
EndChar

StartChar: currency
Encoding: 164 164 307
Width: 463
GlyphClass: 2
Flags: MW
LayerCount: 2
Fore
SplineSet
114 300 m 0
 114 230 164 177 230 177 c 0
 297 177 346 231 346 299 c 0
 346 371 290.1 422 232 422 c 0
 167 422 114 369 114 300 c 0
230 122 m 0
 192 122 159 131 130 147 c 1
 116 129 95 103 84 89 c 1
 23 148 l 1
 76 191 l 1
 48 226 33 261 33 299 c 0
 33 338 48 374 77 409 c 1
 61 421 40 437 25 450 c 1
 80 507 l 1
 130 452 l 1
 160 468 193 477 232 477 c 0
 272 477 302 467 331 451 c 1
 347 470 371 498 382 512 c 1
 440 451 l 1
 385 406 l 1
 413 372 427 337 427 299 c 0
 427 263 412 228 386 193 c 1
 402 180 423 162 438 149 c 1
 384 91 l 1
 333 149 l 1
 303 132 269 122 230 122 c 0
EndSplineSet
EndChar

StartChar: yen
Encoding: 165 165 308
Width: 514
GlyphClass: 2
Flags: MW
LayerCount: 2
Fore
SplineSet
64 229 m 2
 58 229 58 230 58 235 c 2
 58 255 l 2
 58 263 63 275 82 275 c 2
 182.2 275 l 1
 134.4 356.3 43.6 522.2 9 575 c 1
 25 572 56 572 72 572 c 0
 88 572 132 572 148 575 c 1
 188.8 479.1 222.5 402.2 280.6 309 c 1
 333.3 387.1 368.2 472.8 414 575 c 1
 425 572 451 572 464 572 c 0
 476 572 493 572 505 575 c 1
 414.1 430.2 365.3 342.8 326.6 275 c 1
 464 275 l 2
 468 275 472 273 472 269 c 2
 472 242 l 2
 472 233 458 229 447 229 c 2
 324.5 229 l 1
 324.7 208.8 325 187.4 325.4 166 c 1
 464 166 l 2
 468 166 472 164 472 160 c 2
 472 134 l 2
 472 125 458 120 447 120 c 2
 326.4 120 l 1
 327.6 67.4 329.2 20.1 331 -3 c 1
 316 0 285 0 271 0 c 0
 257 0 206 0 191 -3 c 1
 194.2 24.1 196 69.9 196.9 120 c 1
 64 120 l 2
 58 120 58 121 58 126 c 2
 58 146 l 2
 58 154 63 166 82 166 c 2
 197.5 166 l 1
 197.7 187.3 197.8 208.7 197.9 229 c 1
 64 229 l 2
EndSplineSet
EndChar

StartChar: brokenbar
Encoding: 166 166 309
Width: 240
GlyphClass: 2
Flags: MW
LayerCount: 2
Fore
SplineSet
160 674 m 1
 160 312 l 1
 80 312 l 1
 80 674 l 1
 160 674 l 1
160 161 m 1
 160 -201 l 1
 80 -201 l 1
 80 161 l 1
 160 161 l 1
EndSplineSet
EndChar

StartChar: section
Encoding: 167 167 310
Width: 565
GlyphClass: 2
Flags: MW
LayerCount: 2
Fore
SplineSet
187.4 385.2 m 1
 170.7 365.3 163 334.8 163 305 c 0
 163 278.9 168.5 254.6 180 235 c 0
 210 184 279.1 154.2 334 126 c 0
 350.9 117.2 368.3 109.7 384.9 102.1 c 1
 394.5 123.4 396 151.4 396 181 c 0
 396 275 307 321 231 360 c 0
 215.8 367.9 201.2 376.3 187.4 385.2 c 1
148.4 413.8 m 1
 110.1 445.8 85 481.3 85 516 c 0
 85 545.6 97.9 589.1 130 615 c 0
 169.5 646.8 229.8 658 285 658 c 0
 354 658 438 618 465 595 c 1
 468 590 l 1
 451 508 l 1
 417 506 l 1
 388 556 331 609 276 609 c 0
 237 609 202 573 202 536 c 0
 202 494 220 467 271 446 c 0
 352 413 515 342 515 219 c 0
 515 163.7 470.7 110 431.1 77.4 c 1
 439.7 71.6 447.4 65.3 454 58 c 0
 482 27 484 -6.9 484 -35 c 0
 484 -71 457.2 -107.8 419 -135 c 0
 380.4 -162.4 330.2 -172 280 -172 c 0
 211 -172 127 -132 100 -109 c 1
 97 -104 l 1
 114 -22 l 1
 148 -20 l 1
 177 -70 234 -123 289 -123 c 0
 336 -123 363 -98 363 -50 c 0
 363 -3 345 28 294 49 c 0
 213 82 50 148 50 267 c 0
 50 318.7 93 381.3 148.4 413.8 c 1
EndSplineSet
EndChar

StartChar: copyright
Encoding: 169 169 312
Width: 633
GlyphClass: 2
Flags: MW
LayerCount: 2
Fore
SplineSet
449 216 m 1
 429 185 386 152 331 152 c 0
 242 152 165 198 165 301 c 0
 165 402 245 457 333 457 c 0
 403 457 403 442 432 442 c 1
 446 364 l 1
 426 360 l 1
 409 406 386 424 329 424 c 0
 289 424 247 409 247 311 c 0
 247 238 272 191 340 191 c 0
 391 191 419 215 430 231 c 1
 449 216 l 1
EndSplineSet
Refer: 2077 -1 N 1 0 0 1 0 0 2
Colour: ff80cc
EndChar

StartChar: ordfeminine
Encoding: 170 170 313
Width: 372
GlyphClass: 2
Flags: MW
LayerCount: 2
Fore
SplineSet
321 421 m 2
 321 411.7 324 405.3 330 402 c 0
 334.7 400 344 399 358 399 c 1
 361.3 396.3 363.3 388.7 364 376 c 1
 346.7 362.7 319.3 356 282 356 c 0
 250.7 356 231 367.7 223 391 c 1
 222 391 l 1
 198.7 367.7 167.7 356 129 356 c 0
 99 356 76 361.7 60 373 c 0
 42.7 385.7 34 402 34 422 c 0
 34 468.7 69 499.7 139 515 c 2
 220 533 l 2
 222.7 534.3 224 537 224 541 c 0
 224 573.7 206.7 590 172 590 c 0
 137.3 590 109 574 87 542 c 1
 67 542 l 1
 55 600 l 1
 56 603 l 1
 80.7 624.3 121 635 177 635 c 0
 226.3 635.7 263.7 627.7 289 611 c 1
 311.7 593 323 566.3 323 531 c 2
 321 421 l 2
175 479 m 2
 149.7 472.3 137 458.3 137 437 c 0
 137 428.3 140 420.7 146 414 c 0
 152 406.7 159.3 403 168 403 c 0
 184.7 403 200 409.7 214 423 c 0
 220 429 223 438.3 223 451 c 2
 224 492 l 1
 175 479 l 2
EndSplineSet
EndChar

StartChar: guillemotleft
Encoding: 171 171 314
Width: 555
GlyphClass: 2
Flags: MW
LayerCount: 2
Fore
SplineSet
74 207 m 1
 74 223 l 1
 141.9 284.1 187.1 323.3 258 407 c 1
 267.5 404 282 395 287 385 c 1
 247.5 309.5 214 254 183 215 c 1
 214 176 247.5 120.5 287 45 c 1
 282 35 267.5 26 258 23 c 1
 187.1 106.7 141.9 145.9 74 207 c 1
262 207 m 1
 262 223 l 1
 329.9 284.1 375.1 323.3 446 407 c 1
 455.5 404 470 395 475 385 c 1
 435.5 309.5 402 254 371 215 c 1
 402 176 435.5 120.5 475 45 c 1
 470 35 455.5 26 446 23 c 1
 375.1 106.7 329.9 145.9 262 207 c 1
EndSplineSet
EndChar

StartChar: logicalnot
Encoding: 172 172 315
Width: 560
GlyphClass: 2
Flags: MW
LayerCount: 2
Fore
SplineSet
463 133 m 1
 463 347 l 1
 24 347 l 1
 24 401 l 1
 537 401 l 1
 537 133 l 1
 463 133 l 1
EndSplineSet
EndChar

StartChar: registered
Encoding: 174 174 317
Width: 633
GlyphClass: 2
Flags: MW
LayerCount: 2
Fore
SplineSet
423 372 m 0
 423 320 366 296 366 296 c 1
 414 214 l 2
 427 192 438 183 454 183 c 1
 454 170 l 1
 444 167 436 166 431 166 c 0
 402 166 375 178 363 204 c 1
 315 282 l 1
 311 284 293 285 288 285 c 1
 288 194 l 2
 288 189 288 187 295 187 c 2
 307 187 l 2
 315 187 318 185 318 181 c 2
 318 167 l 1
 318 167 264 169 250 169 c 2
 194 167 l 1
 194 181 l 2
 194 185 198 187 205 187 c 2
 217 187 l 2
 223 187 225 188 225 195 c 2
 225 413 l 2
 225 418 224 424 221 424 c 2
 205 423 l 2
 198 423 195 425 195 429 c 2
 195 442 l 1
 216 445 254 447 328 447 c 0
 403 447 423 402 423 372 c 0
361 372 m 0
 361 406 350 427 316 427 c 0
 305 427 293 426 288 424 c 1
 288 309 l 1
 319 309 361 310 361 372 c 0
EndSplineSet
Refer: 2077 -1 N 1 0 0 1 0 0 2
Colour: ff80cc
EndChar

StartChar: macron
Encoding: 175 175 318
Width: 397
GlyphClass: 2
Flags: MW
LayerCount: 2
Fore
SplineSet
315 519 m 2
 71 519 l 2
 62 519 59 532 59 539 c 0
 59 551 69 573 81 573 c 2
 325 573 l 2
 335 573 339 560 339 554 c 0
 339 542 328 519 315 519 c 2
EndSplineSet
EndChar

StartChar: degree
Encoding: 176 176 319
Width: 267
GlyphClass: 2
Flags: MW
LayerCount: 2
Fore
SplineSet
196 524 m 0
 196 555 176 593 134 593 c 0
 94 593 71 558 71 524 c 0
 71 491 95 458 134 458 c 0
 173 458 196 492 196 524 c 0
28 525 m 0
 28 584 76 631 134 631 c 0
 192 631 239 584 239 525 c 0
 239 467 192 420 134 420 c 0
 76 420 28 467 28 525 c 0
EndSplineSet
EndChar

StartChar: uni00B2
Encoding: 178 178 321
Width: 340
GlyphClass: 2
Flags: MW
LayerCount: 2
Fore
SplineSet
151 682 m 0
 119 682 107 652 86 619 c 1
 58 620 l 1
 44 685 l 1
 46 687 l 1
 64 697.5 109 718 156 718 c 0
 233 718 291 681 291 620 c 0
 291 577 272 555 235 524 c 2
 170 469 l 2
 156 458 134 430 134 421 c 1
 187 421 l 2
 252 421 256 424 294 426 c 1
 292 419 290 395 290 388 c 0
 290 381 292 369 294 362 c 1
 245 364 243 364 194 364 c 0
 145 364 95.8 362.8 33 362 c 1
 33 364 l 2
 33 397 52 423 115 480 c 1
 163 521 l 1
 201 555 200 585 200 621 c 0
 200 656 174 682 151 682 c 0
EndSplineSet
EndChar

StartChar: uni00B3
Encoding: 179 179 322
Width: 340
GlyphClass: 2
Flags: MW
LayerCount: 2
Fore
SplineSet
138 388 m 0
 161 388 204 398 204 464 c 0
 204 518 168 528 131 528 c 0
 125 528 113 528 105 527 c 1
 105 558 l 1
 168 561 201 586 201 633 c 0
 201 663 173 688 148 688 c 0
 102 688 94 662 73 629 c 1
 45 629 l 1
 31 684 l 1
 33 686 l 1
 49 698 97 718 154 718 c 0
 233 718 283 695 283 642 c 0
 283 594 254.5 563.5 210 550 c 1
 210 548 l 1
 258 544 302 520 302 466 c 0
 302 397 230 358 137 358 c 0
 77 358 42 377 26 389 c 1
 23 392 l 1
 38 447 l 1
 66 448 l 1
 87 415 89 388 138 388 c 0
EndSplineSet
EndChar

StartChar: paragraph
Encoding: 182 182 325
Width: 602
GlyphClass: 2
Flags: MW
LayerCount: 2
Fore
SplineSet
367 574 m 2
 367 -161 l 2
 367 -188 384 -199 407 -199 c 0
 430 -199 448 -192 448 -161 c 2
 448 574 l 2
 448 605 430 612 407 612 c 0
 384 612 367 601 367 574 c 2
408 645 m 0
 443 645 507 648 507 648 c 1
 508 645 l 1
 500 592 498 520 498 445 c 2
 498 -32 l 2
 498 -107 500 -175 508 -232 c 1
 506 -235 l 1
 506 -235 441 -232 407 -232 c 0
 373 -232 309 -235 309 -235 c 1
 307 -232 l 1
 315 -175 317 -107 317 -32 c 2
 317 285 l 1
 308 283 300 282 285 282 c 0
 139 282 57 347 57 481 c 0
 57 560 115 647 247 647 c 0
 322 647 381 645 408 645 c 0
EndSplineSet
EndChar

StartChar: uni00B9
Encoding: 185 185 328
Width: 340
GlyphClass: 2
Flags: MW
LayerCount: 2
Fore
SplineSet
226 468 m 2
 226 425 228 397 234 364 c 1
 233 362 l 1
 233 362 205 364 182 364 c 0
 158 364 132 362 132 362 c 1
 131 364 l 1
 137 395 138 425 138 468 c 2
 138 609 l 2
 138 629 137 643.5 127 645 c 0
 114.1 646.9 84 645.5 56 647 c 1
 55 680 l 1
 115 692 187 710 229 722 c 0
 232 722 234 722 234 719 c 0
 233 711 226 688 226 629 c 2
 226 468 l 2
EndSplineSet
EndChar

StartChar: ordmasculine
Encoding: 186 186 329
Width: 417
GlyphClass: 2
Flags: MW
LayerCount: 2
Fore
SplineSet
157 563 m 0
 151 549 148 528 148 500 c 0
 148 430.700195312 171 396 217 396 c 0
 252.299804688 396 270 422.299804688 270 475 c 0
 270 515.700195312 265.700195312 545 257 563 c 0
 247.700195312 582.299804688 230.700195312 592 206 592 c 0
 182 592 165.700195312 582.299804688 157 563 c 0
83 598 m 1
 109 622 151.299804688 634 210 634 c 0
 272 634 316 620.700195312 342 594 c 1
 364.700195312 566.700195312 376 532.700195312 376 492 c 0
 376 449.299804688 363 416 337 392 c 0
 311 367.299804688 268.299804688 355 209 355 c 0
 149.700195312 355 107 366.700195312 81 390 c 0
 54.2998046875 413.299804688 41 445.299804688 41 486 c 0
 41 532 55 569.299804688 83 598 c 1
EndSplineSet
EndChar

StartChar: guillemotright
Encoding: 187 187 330
Width: 555
GlyphClass: 2
Flags: MW
LayerCount: 2
Fore
SplineSet
480 223 m 1
 480 207 l 1
 412.1 145.9 366.9 106.7 296 23 c 1
 286.5 26 272 35 267 45 c 1
 306.5 120.5 340 176 371 215 c 1
 340 254 306.5 309.5 267 385 c 1
 272 395 286.5 404 296 407 c 1
 366.9 323.3 412.1 284.1 480 223 c 1
292 223 m 1
 292 207 l 1
 224.1 145.9 178.9 106.7 108 23 c 1
 98.5 26 84 35 79 45 c 1
 118.5 120.5 152 176 183 215 c 1
 152 254 118.5 309.5 79 385 c 1
 84 395 98.5 404 108 407 c 1
 178.9 323.3 224.1 284.1 292 223 c 1
EndSplineSet
Colour: ff00ff
EndChar

StartChar: onequarter
Encoding: 188 188 331
Width: 700
GlyphClass: 2
Flags: MW
LayerCount: 2
Fore
SplineSet
557 591 m 1
 598 573 l 1
 140 -82 l 1
 98 -64 l 1
 557 591 l 1
EndSplineSet
Refer: 1032 8308 N 1 0 0 1 348 -499 2
Refer: 328 185 N 1 0 0 1 -3 -49 2
LCarets2: 2 215 424
Colour: ff80cc
EndChar

StartChar: onehalf
Encoding: 189 189 332
Width: 700
GlyphClass: 2
Flags: MW
LayerCount: 2
Fore
SplineSet
532 611 m 1
 574 593 l 1
 115 -62 l 1
 74 -44 l 1
 532 611 l 1
EndSplineSet
Refer: 328 185 N 1 0 0 1 -1 -49 2
Refer: 321 178 N 1 0 0 1 358 -443 2
LCarets2: 2 208 414
Colour: ff80cc
EndChar

StartChar: threequarters
Encoding: 190 190 333
Width: 700
GlyphClass: 2
Flags: MW
LayerCount: 2
Fore
SplineSet
562 611 m 1
 603 593 l 1
 145 -62 l 1
 103 -44 l 1
 562 611 l 1
EndSplineSet
Refer: 1032 8308 N 1 0 0 1 352 -497 2
Refer: 322 179 N 1 0 0 1 -2 -51 2
LCarets2: 2 260 447
Colour: ff80cc
EndChar

StartChar: Adieresis.alt
Encoding: 1114112 -1 339
Width: 701
GlyphClass: 2
Flags: MW
LayerCount: 2
Fore
SplineSet
436 703 m 0
 436 735 461 760 493 760 c 0
 524 760 551 735 551 703 c 0
 551 672 524 647 493 647 c 0
 461 647 436 672 436 703 c 0
138 703 m 0
 138 735 165 760 196 760 c 0
 228 760 253 735 253 703 c 0
 253 672 228 647 196 647 c 0
 165 647 138 672 138 703 c 0
EndSplineSet
Refer: 24 65 N 1 0 0 1 0 0 2
Position2: "'cpsp' Versalabstaende 1" dx=2 dy=0 dh=5 dv=0
Colour: ff80cc
EndChar

StartChar: Aring
Encoding: 197 197 340
Width: 701
GlyphClass: 2
Flags: MW
LayerCount: 2
Fore
SplineSet
361 789 m 0
 326 789 300 759 300 725 c 0
 300 694 326 661 361 661 c 0
 396 661 422 694 422 725 c 0
 422 760 395 789 361 789 c 0
254 725 m 0
 254 783 302 828 360 828 c 0
 418 828 467 784 467 725 c 0
 467 686.8 445.1 652.7 412.1 635 c 1
 498.4 416 630.4 95.3 679 -3 c 1
 662 0 605 0 588 0 c 0
 571 0 524 0 507 -3 c 1
 501 18.7 479.3 93.7 432.5 219.7 c 1
 399.8 220.4 365.1 221 333 221 c 0
 297.3 221 238.3 220.1 200.3 219.2 c 1
 166.2 135.1 136.8 56.2 121 -3 c 1
 109 0 87 0 76 0 c 0
 65 0 32 0 20 -3 c 1
 118.3 212.2 213.8 419.7 307.4 635.4 c 1
 275.6 652.9 254 686.1 254 725 c 0
411.5 275.1 m 1
 387.3 338.5 358.7 412 323 494 c 1
 317.1 494 l 1
 223.6 275.9 l 1
 255 274.5 299.1 274 328 274 c 0
 351.7 274 383.1 274.5 411.5 275.1 c 1
EndSplineSet
Position2: "'cpsp' Versalabstaende 1" dx=2 dy=0 dh=5 dv=0
EndChar

StartChar: AE
Encoding: 198 198 341
Width: 842
GlyphClass: 2
Flags: MW
AnchorPoint: "top_punkt" 452 700 basechar 0
AnchorPoint: "above" 452 820 basechar 0
AnchorPoint: "cedilla" 58 8 basechar 0
AnchorPoint: "below" 270 -108 basechar 0
LayerCount: 2
Fore
SplineSet
205.2 213.3 m 1
 164.7 130.8 129.9 54.3 108 -3 c 1
 96 0 74 0 63 0 c 0
 52 0 11 0 -1 -3 c 1
 105 200 214 402 357 647.7 c 1
 392 645.2 l 1
 440 645.2 l 1
 478.1 645 l 1
 722 645 l 2
 743 645 766 646 782 648 c 1
 784 645 l 1
 783 631 782 612 782 604 c 0
 782 595 783 576 784 568 c 1
 782 564 l 1
 782 564 654.7 574.3 549 574.3 c 0
 537.3 574.3 527.1 574.2 518.2 574 c 1
 519.3 515.4 520.1 444.9 521.1 373.1 c 1
 619.6 373.9 671.1 378.4 725 383 c 1
 728 380 l 1
 726 371 725 356 725 347 c 0
 725 338 726 313 728 304 c 1
 725 301 l 1
 667.8 306.8 578.4 309.8 522.1 310.7 c 1
 523.5 221.4 525.5 134.8 529.1 70.8 c 1
 630.7 74.5 792 91 792 91 c 1
 794 87 l 1
 793 79 792 54 792 44 c 0
 792 34 793 14 794 0 c 1
 792 -3 l 1
 776 -1 753 0 732 0 c 2
 535 0 l 1
 523.5 0 l 1
 440 0 l 2
 423 0 402 0 385 -3 c 1
 385 22.9 385.3 109.6 385.6 214.8 c 1
 373.6 214.9 361.6 215 350 215 c 0
 316.6 215 246.1 214.2 205.2 213.3 c 1
385.7 269.3 m 1
 386 357.3 386.3 452.5 386.5 533.5 c 1
 374.5 533.5 l 1
 328.9 453.2 279.1 360.3 233.8 270.7 c 1
 269.1 270.2 319.4 269 345 269 c 0
 357.1 269 371.1 269.1 385.7 269.3 c 1
EndSplineSet
Position2: "'cpsp' Versalabstaende 1" dx=2 dy=0 dh=5 dv=0
EndChar

StartChar: Ccedilla
Encoding: 199 199 342
Width: 706
GlyphClass: 2
Flags: MW
LayerCount: 2
Fore
SplineSet
301 -100 m 1
 295 -94 l 1
 339.9 -8.5 l 1
 275.3 -3.5 225.2 14.3 175 48 c 0
 96 101 52 205 52 310 c 0
 52 419.9 97.1 522.3 176 584 c 0
 238.5 632.8 323 658 414 658 c 0
 536 658 639 613 639 613 c 1
 641 610 l 1
 629.2 560.7 624.6 531 621 480 c 1
 591 479 l 1
 550 561 497 603 407 603 c 0
 325 603 215 532 215 329 c 0
 215 158.8 297 50 406 50 c 0
 499 50 554 67 629 139 c 1
 653 105 l 1
 569 18 469.2 -10 380 -10 c 0
 378.2 -10 376.4 -10 374.6 -10 c 1
 360 -45 l 1
 405.4 -54.1 452.9 -69.5 452.9 -124.1 c 0
 452.9 -174.3 402.1 -216 337.3 -216 c 0
 305.3 -216 289.3 -208 272 -197 c 1
 272 -187 275.3 -175 285.3 -165.5 c 1
 312.3 -175.5 323.3 -179.5 343.3 -179.5 c 0
 373.3 -179.5 390 -171 390 -144 c 0
 390 -106.4 337 -102 301 -100 c 1
EndSplineSet
Position2: "'cpsp' Versalabstaende 1" dx=2 dy=0 dh=5 dv=0
Colour: ff00ff
EndChar

StartChar: Eth
Encoding: 208 208 351
Width: 761
GlyphClass: 2
Flags: MW
LayerCount: 2
Fore
SplineSet
245 101 m 2
 245 69 266.9 51 343 51 c 0
 484 51 548 92 548 294 c 0
 548 448 534 595 318 595 c 0
 269 595 245 580 245 545 c 2
 245 337.4 l 1
 288.4 338 332.7 339.2 368 341 c 1
 358 280 l 1
 325.4 281.7 285.2 282.9 245 283.5 c 1
 245 101 l 2
175 645 m 0
 245.6 645 285.4 648 356 648 c 0
 548 648 709 514.5 709 318 c 0
 709 72 515 -2 374 -2 c 0
 286.9 -2 252.6 0 175 0 c 0
 140 0 90 -3 90 -3 c 1
 89 0 l 1
 97 54 101 125 101 200 c 2
 101 283.3 l 1
 63.2 282.6 25.6 281.5 -3 280 c 1
 7 341 l 1
 33.1 339.6 66.7 338.6 101 337.9 c 1
 101 445 l 2
 101 520 97 588 89 645 c 1
 91 648 l 1
 91 648 141 645 175 645 c 0
EndSplineSet
Position2: "'cpsp' Versalabstaende 1" dx=2 dy=0 dh=5 dv=0
Colour: ff80cc
EndChar

StartChar: Odieresis.alt
Encoding: 1114113 -1 357
Width: 799
GlyphClass: 2
Flags: MW
LayerCount: 2
Fore
SplineSet
564 703 m 0
 564 735 590 760 622 760 c 0
 653 760 679 735 679 703 c 0
 679 672 653 647 622 647 c 0
 590 647 564 672 564 703 c 0
122 703 m 0
 122 735 148 760 179 760 c 0
 211 760 237 735 237 703 c 0
 237 672 211 647 179 647 c 0
 148 647 122 672 122 703 c 0
EndSplineSet
Refer: 257 79 N 1 0 0 1 0 0 2
Position2: "'cpsp' Versalabstaende 1" dx=2 dy=0 dh=5 dv=0
Colour: ff80cc
EndChar

StartChar: multiply
Encoding: 215 215 358
Width: 545
GlyphClass: 2
Flags: MW
LayerCount: 2
Fore
SplineSet
151 402 m 1
 272 282 l 1
 393 402 l 1
 442 352 l 1
 322 232 l 1
 442 112 l 1
 393 63 l 1
 272 183 l 1
 152 63 l 1
 103 112 l 1
 223 232 l 1
 102 353 l 1
 151 402 l 1
EndSplineSet
EndChar

StartChar: Oslash
Encoding: 216 216 359
Width: 799
GlyphClass: 2
Flags: MW
AnchorPoint: "below" 381 -113 basechar 0
AnchorPoint: "cedilla" 381 0 basechar 0
LayerCount: 2
Fore
SplineSet
138 -42 m 1
 94 -6 l 1
 158.2 72.9 l 1
 92 129.7 52 212.3 52 310 c 0
 52 506 194 658 397 658 c 0
 473.7 658 540.6 641 594.7 610 c 1
 650 678 l 1
 694 644 l 1
 640.5 578 l 1
 708.5 520.2 747 434 747 329 c 0
 747 129 612.1 -10 398 -10 c 0
 325.1 -10 258.9 7.9 204.4 39.9 c 1
 138 -42 l 1
384 603 m 0
 288 603 213 537 213 327 c 0
 213 264.5 222 212.8 238.3 171.5 c 1
 535.8 537.5 l 1
 502.9 582.7 453 603 384 603 c 0
563.4 482.9 m 1
 267.6 117.9 l 1
 304 68.8 356.4 45 418 45 c 0
 532 45 586 131 586 310 c 0
 586 381.8 578.7 438.9 563.4 482.9 c 1
EndSplineSet
Position2: "'cpsp' Versalabstaende 1" dx=2 dy=0 dh=5 dv=0
Colour: ff80cc
EndChar

StartChar: Udieresis.alt
Encoding: 1114114 -1 363
Width: 719
GlyphClass: 2
Flags: MW
LayerCount: 2
Fore
SplineSet
419 713 m 0
 419 745 444 770 476 770 c 0
 507 770 533 745 533 713 c 0
 533 682 507 657 476 657 c 0
 444 657 419 682 419 713 c 0
236 713 m 0
 236 745 262 770 293 770 c 0
 325 770 350 745 350 713 c 0
 350 682 325 657 293 657 c 0
 262 657 236 682 236 713 c 0
EndSplineSet
Refer: 263 85 N 1 0 0 1 0 0 2
Position2: "'cpsp' Versalabstaende 1" dx=2 dy=0 dh=5 dv=0
Colour: ff9cb0
EndChar

StartChar: Thorn
Encoding: 222 222 365
Width: 606
GlyphClass: 2
Flags: MW
LayerCount: 2
Fore
SplineSet
82 445 m 2
 82 520 78 588 70 645 c 1
 72 648 l 1
 72 648 120 645 154 645 c 0
 189 645 237 648 237 648 c 1
 238 645 l 1
 232.9 611.1 229.4 569.4 227.6 524.1 c 1
 263.3 526 307.3 526 326 526 c 0
 511 526 572 439 572 343 c 0
 572 231.9 490 147 312 147 c 0
 277.4 147 241.8 148.9 226.5 153.8 c 1
 227.8 97 231.7 45.1 238 0 c 1
 236 -3 l 1
 236 -3 188 0 154 0 c 0
 119 0 71 -3 71 -3 c 1
 70 0 l 1
 78 54 82 125 82 200 c 2
 82 445 l 2
226 202 m 1
 235 199 249 197 287 197 c 0
 359 197 412 231.9 412 343 c 0
 412 439 364 476 305 476 c 0
 286 476 247.1 471 226.1 465 c 1
 226 458.4 226 451.7 226 445 c 2
 226 202 l 1
EndSplineSet
Position2: "'cpsp' Versalabstaende 1" dx=2 dy=0 dh=5 dv=0
EndChar

StartChar: germandbls
Encoding: 223 223 366
Width: 638
GlyphClass: 2
Flags: MW
LayerCount: 2
Fore
SplineSet
424 -10 m 0
 373.5 -10 303 13 295 18 c 1
 294 21 l 1
 305 40 306 61 313 88 c 1
 334 89 l 1
 345 69 365 46 394 46 c 0
 436 46 451 88 451 156 c 0
 451 249 405 330 320 394 c 1
 320 415 l 1
 392 459 408 497 408 570 c 0
 408 621 378 654 337 654 c 0
 256.9 654 228 586 228 538 c 0
 228 501 230 481 230 442 c 2
 230 200 l 2
 230 125 232 55 236 0 c 1
 234 -3 l 1
 234 -3 208 0 174 0 c 0
 139 0 91 -3 91 -3 c 1
 90 0 l 1
 97 53 98 125 98 200 c 2
 98 347 l 2
 98 359 94.1 362.1 86 363 c 2
 42 368 l 2
 38.2 368.4 32 370 32 374 c 2
 32 409 l 2
 32 417 42.4 425.1 59 429 c 0
 89 436 98 450 98 477 c 0
 98 524 133.5 594.5 190 645 c 0
 237 687 307.4 698 344 698 c 0
 389.4 698 452 692.5 480 675 c 0
 516 652.4 542 618 542 578 c 0
 542 501 487 454 419 419 c 1
 419 409 l 1
 498 357 597 289 597 173 c 0
 597 115.4 579.2 59.9 542 27 c 0
 511.4 -0.1 465.5 -10 424 -10 c 0
EndSplineSet
EndChar

StartChar: ae
Encoding: 230 230 373
Width: 771
GlyphClass: 2
Flags: MW
AnchorPoint: "cedilla" 162 -5 basechar 0
AnchorPoint: "below" 372 -109 basechar 0
AnchorPoint: "ogonek" 659 30 basechar 0
AnchorPoint: "top_punkt" 376 549 basechar 0
AnchorPoint: "above" 395 645 basechar 0
LayerCount: 2
Fore
SplineSet
311 210 m 1
 165 198 152 157 152 106 c 0
 152 61 179.7 40 208 40 c 0
 248 40 289 61 304 100 c 0
 311 118 311 160 311 210 c 1
450 258 m 1
 604 266 621 245 621 306 c 0
 621 338 599 394 546 394 c 0
 482.9 394 453 321 450 258 c 1
219 394 m 0
 170 394 122 340 93 295 c 1
 63 296 l 1
 46 373 l 1
 49 377 l 1
 76 397 149 439 229 439 c 0
 268 439 371 429 393 358 c 1
 427 409 494 439 557 439 c 0
 607.1 439 651.1 430.7 681 410 c 0
 725.7 379.1 744 329.4 744 309 c 0
 744 278 741 247 724 227 c 1
 685 207 598 215 449 208 c 1
 449 102 517 50 576 50 c 0
 635 50 677 72 710 107 c 1
 721.1 102.9 731.2 93.6 737 84 c 1
 705 30 633 -10 560 -10 c 0
 460 -10 414 34 392 59 c 1
 354 12 264 -10 204 -10 c 0
 88 -10 23 33 23 101 c 0
 23 147 48.4 186.7 110 214 c 0
 159.6 236 227.5 249.6 311 255 c 1
 310 349 299 394 219 394 c 0
EndSplineSet
EndChar

StartChar: ccedilla
Encoding: 231 231 374
Width: 472
GlyphClass: 2
Flags: MW
LayerCount: 2
Fore
SplineSet
191 -96 m 1
 185 -90 l 1
 228.7 -6.9 l 1
 172.4 0.9 124.3 23 96 54 c 0
 62.4 90.7 42 139.5 42 202 c 0
 42 359 154 439 288 439 c 0
 338 439 406 422 437 406 c 1
 439 403 l 1
 415 306 l 1
 387 305 l 1
 365 360 335.5 389 297 389 c 0
 261.8 389 227.7 372.2 208.4 341 c 0
 191.5 313.8 184 275.6 184 228 c 0
 184 170.8 196 123 214 94 c 0
 232 65 272 40 301 40 c 0
 341 40 390 54 418 88 c 1
 434 83 l 1
 434 67 436.8 53.5 439 44 c 1
 394 6 350.4 -10 274 -10 c 0
 270.3 -10 266.6 -9.9 263 -9.8 c 1
 250 -41 l 1
 295.4 -50.1 342.9 -65.5 342.9 -120.1 c 0
 342.9 -170.3 292.1 -212 227.3 -212 c 0
 195.3 -212 179.3 -204 162 -193 c 1
 162 -183 165.3 -171 175.3 -161.5 c 1
 202.3 -171.5 213.3 -175.5 233.3 -175.5 c 0
 263.3 -175.5 280 -167 280 -140 c 0
 280 -102.4 227 -98 191 -96 c 1
EndSplineSet
Colour: ff00ff
EndChar

StartChar: eth
Encoding: 240 240 383
Width: 550
GlyphClass: 2
Flags: MW
LayerCount: 2
Fore
SplineSet
276 40 m 0
 355.5 40 373 110.2 373 217 c 0
 373 263 366 310 354 353 c 1
 331 382 317 389 274 389 c 0
 185.5 389 183 301 183 225 c 0
 183 111 205 40 276 40 c 0
41 208 m 0
 41 364.2 168 439 276 439 c 0
 302 439 318 435 343 425 c 1
 325.5 477.2 305 523 262 562 c 1
 161 492 l 1
 135 529 l 1
 233 596 l 1
 212 619 177.5 640.2 119.7 668.7 c 1
 117.5 688.5 126 702 150 705 c 1
 192.5 691.2 262 660 297 632 c 1
 405.5 706 l 1
 434 670 l 1
 327 600 l 1
 436 507 515 402.7 515 247 c 0
 515 117.2 438.2 -10 259 -10 c 0
 92 -10 41 104 41 208 c 0
EndSplineSet
EndChar

StartChar: oslash
Encoding: 248 248 385
Width: 566
GlyphClass: 2
Flags: MW
AnchorPoint: "below" 298.8 -107 basechar 0
AnchorPoint: "ogonek" 438.2 44 basechar 0
AnchorPoint: "cedilla" 291.1 -3 basechar 0
LayerCount: 2
Fore
SplineSet
480 472 m 1
 516 449 l 1
 457.2 384.4 l 1
 503.8 343.4 525 282.7 525 214 c 0
 525 75.8 436 -10 283 -10 c 0
 223.1 -10 172.2 3.3 132.8 27.8 c 1
 73 -38 l 1
 38 -12 l 1
 98.8 54.5 l 1
 61.6 91.3 41 142.5 41 205 c 0
 41 360 142 439 285 439 c 0
 341.3 439 386.7 428 422.2 408.7 c 1
 480 472 l 1
278 389 m 0
 192 389 183 315 183 228 c 0
 183 204.6 183.9 178 188.1 152.4 c 1
 361.4 342.1 l 1
 345.7 373.9 319.6 389 278 389 c 0
375.9 294.9 m 1
 201.7 103.5 l 1
 217.4 67 245.8 40 297 40 c 0
 342 40 383 72 383 187 c 0
 383 230.2 381.1 266 375.9 294.9 c 1
EndSplineSet
Colour: ff80cc
EndChar

StartChar: thorn
Encoding: 254 254 388
Width: 588
GlyphClass: 2
Flags: MW
AnchorPoint: "above" 316 646 basechar 0
AnchorPoint: "top_punkt" 317 551 basechar 0
LayerCount: 2
Fore
SplineSet
215 18 m 1
 215 -32 l 2
 215 -107.2 216.5 -175 225 -232 c 1
 223 -235 l 1
 223 -235 166.3 -232 132 -232 c 0
 97 -232 74 -235 74 -235 c 1
 73 -232 l 1
 81.5 -178.5 83 -106.5 83 -32 c 2
 83 482 l 2
 83 558 80.7 627.3 73 670 c 1
 75 673 l 1
 115.5 676 190.9 688 216 698 c 1
 222.3 698 225 695 225 688 c 0
 217.3 626.7 215 575 215 500 c 2
 215 402 l 1
 214.8 361 l 1
 219 358 l 1
 268 425 316 439 359 439 c 0
 409 439 440.8 426.5 470 403 c 0
 516 366 546 314 546 235 c 0
 546 94.1 448.1 -10 322 -10 c 0
 285 -10 248 -3 215 18 c 1
215 282 m 1
 215 76 l 1
 252 45 279 40 304 40 c 0
 360 40 404 102 404 198 c 0
 404 304 383 374 322 374 c 0
 288 374 237 335 215 282 c 1
EndSplineSet
EndChar

StartChar: Aogonek
Encoding: 260 260 394
Width: 701
GlyphClass: 2
Flags: MW
LayerCount: 2
Fore
SplineSet
704 -139 m 1
 687 -189 636 -222 577 -222 c 0
 528 -222 480 -183 480 -122 c 0
 480 -76.2 485.7 -46.3 509.4 -2.6 c 1
 508.6 -2.7 507.7 -2.9 507 -3 c 0
 501 18.7 479.3 93.7 432.5 219.7 c 1
 399.8 220.4 365.1 221 333 221 c 0
 297.3 221 238.3 220.1 200.3 219.2 c 1
 166.2 135.1 136.8 56.2 121 -3 c 1
 109 0 87 0 76 0 c 0
 65 0 32 0 20 -3 c 1
 121 218 219 431 315 653 c 1
 405 653 l 1
 491 434 629 98 679 -3 c 1
 662 0 605 0 588 0 c 0
 586.4 0 584.5 0 582.4 -0 c 1
 566.7 -35.8 566 -72.8 566 -93 c 0
 566 -119.9 586 -142 613 -142 c 0
 636 -142 664.5 -134.8 680 -112 c 1
 693 -116 700 -126 704 -139 c 1
411.5 275.1 m 1
 387.3 338.5 358.7 412 323 494 c 1
 317.1 494 l 1
 223.6 275.9 l 1
 255 274.5 299.1 274 328 274 c 0
 351.7 274 383.1 274.5 411.5 275.1 c 1
EndSplineSet
Position2: "'cpsp' Versalabstaende 1" dx=2 dy=0 dh=5 dv=0
Colour: ff80cc
EndChar

StartChar: aogonek
Encoding: 261 261 395
Width: 516
GlyphClass: 2
Flags: MW
LayerCount: 2
Fore
SplineSet
594 -139 m 1
 577 -189 526 -222 467 -222 c 0
 418 -222 370 -183 370 -122 c 0
 370 -78.8 375 -49.8 395.5 -9.9 c 1
 393.3 -10 391.1 -10 389 -10 c 0
 346 -10 324 7 310 48 c 1
 308 48 l 1
 263 3 210.1 -10 171 -10 c 0
 101 -10 34 29 34 98 c 0
 34 166 92 217 188 240 c 1
 305 271 l 2
 308 272 311 276 311 283 c 0
 311 360.1 286 385 242 385 c 0
 197 385 153 356 119 306 c 1
 86 307 l 1
 66 382 l 1
 69 386 l 1
 93 407 189 439 261 439 c 0
 309.1 439 369.3 427.5 401 399.1 c 0
 428.6 374.3 441 337.1 441 277 c 0
 441 266 437 109 437 80 c 0
 437 47 458 44 498 44 c 1
 504 39 506.7 31.7 508 23 c 1
 498.6 15.8 487.2 9.9 474.8 5.1 c 1
 456.9 -32.2 456 -71.9 456 -93 c 0
 456 -119.9 476 -142 503 -142 c 0
 526 -142 554.5 -134.8 570 -112 c 1
 583 -116 590 -126 594 -139 c 1
311 222 m 1
 231 201 l 2
 180.8 187.8 168 143.1 168 107 c 0
 168 80 190 50 220 50 c 0
 248 50 271 61 294 84 c 0
 301.1 91.1 309 116 309 129 c 2
 311 222 l 1
EndSplineSet
Colour: ff80cc
EndChar

StartChar: Dcroat
Encoding: 272 272 406
Width: 761
GlyphClass: 2
Flags: MW
LayerCount: 2
Fore
SplineSet
90 297 m 2
 67.2 297 30.2 296.3 13 295 c 1
 8 302 l 1
 17.7 317 24.5 333 30 350 c 1
 42.4 348.4 69.5 347 90 347 c 2
 101 347 l 1
 101 445 l 2
 101 520 97 588 89 645 c 1
 91 648 l 1
 91 648 141 645 175 645 c 0
 245.6 645 285.4 648 356 648 c 0
 548 648 709 514.5 709 318 c 0
 709 72 515 -2 374 -2 c 0
 286.9 -2 252.6 0 175 0 c 0
 140 0 90 -3 90 -3 c 1
 89 0 l 1
 97 54 101 125 101 200 c 2
 101 297 l 1
 90 297 l 2
245 101 m 2
 245 69 266.9 51 343 51 c 0
 484 51 548 92 548 294 c 0
 548 448 534 595 318 595 c 0
 269 595 245 580 245 545 c 2
 245 347 l 1
 275 347 l 2
 298 347 326.4 348.4 345 350 c 1
 350 342 l 1
 344 327.3 339.5 310 338 295 c 1
 324.7 296.3 290 297 266 297 c 2
 245 297 l 1
 245 101 l 2
EndSplineSet
Position2: "'cpsp' Versalabstaende 1" dx=2 dy=0 dh=5 dv=0
Colour: ff80cc
EndChar

StartChar: dcroat
Encoding: 273 273 407
Width: 591
GlyphClass: 2
Flags: MW
LayerCount: 2
Fore
SplineSet
340 527 m 2
 317.2 527 280.2 526.3 263 525 c 1
 258 532 l 1
 267.7 547 274.5 563 280 580 c 1
 292.4 578.4 319.5 577 340 577 c 2
 370.1 577 l 1
 368.1 610.6 365 639.9 361 662 c 1
 363 665 l 1
 403.5 668 480.9 688 506 698 c 1
 512.3 698 517 695 517 688 c 0
 512.3 650.1 508.8 615.4 506.8 577 c 1
 525 577 l 2
 548 577 576.4 578.4 595 580 c 1
 600 572 l 1
 594 557.3 589.5 540 588 525 c 1
 574.7 526.3 540 527 516 527 c 2
 505.2 527 l 1
 505.1 518.3 505 509.3 505 500 c 2
 505 192 l 2
 505 117 516 43 524 0 c 1
 522 -3 l 1
 509 -1 465.1 0 452.5 0 c 0
 438 0 402.3 -1.3 389 -3 c 0
 383 -3 380 -2 380 0 c 2
 375 54 l 1
 373 54 l 1
 346 7.5 293 -10 230 -10 c 0
 119 -10 44 80 44 203 c 0
 44 274.9 68 347.5 130 392.5 c 0
 175.9 425.8 212 439 279 439 c 0
 307.5 439 354 421 373 394 c 1
 373 474 l 2
 373 492.1 372.8 509.9 372.3 527 c 1
 340 527 l 2
373 133 m 1
 373 303 l 1
 362.5 354.5 325 389 278 389 c 0
 229.6 389 186 356 186 221 c 0
 186 96 222 48 276 48 c 0
 316.5 48 348.5 69 373 133 c 1
EndSplineSet
Colour: ff80cc
EndChar

StartChar: dotlessi
Encoding: 305 305 411
Width: 312
GlyphClass: 2
Flags: MW
AnchorPoint: "cedilla" 156 10 basechar 0
AnchorPoint: "below" 161 -108 basechar 0
AnchorPoint: "top_punkt" 159 550 basechar 0
AnchorPoint: "above" 157 645 basechar 0
LayerCount: 2
Fore
SplineSet
90 235 m 2
 90 310 88 385 80 428 c 1
 83 432 l 1
 100.7 430.7 128 429 154 429 c 0
 182 429 209.3 432 223 434 c 0
 229 434 232 431 232 424 c 0
 225.7 364 222 321 222 246 c 2
 222 180 l 2
 222 104 224 57 232 0 c 1
 230 -3 l 1
 211.3 -1 190 0 156 0 c 0
 121 0 102.7 -0.7 82 -3 c 1
 80 0 l 1
 88 54 90 105 90 180 c 2
 90 235 l 2
EndSplineSet
EndChar

StartChar: kgreenlandic
Encoding: 312 312 418
Width: 556
GlyphClass: 2
Flags: MW
AnchorPoint: "below" 263 -107 basechar 0
AnchorPoint: "above" 275 646 basechar 0
AnchorPoint: "top_punkt" 276 551 basechar 0
AnchorPoint: "cedilla" 125 9 basechar 0
LayerCount: 2
Fore
SplineSet
76 235 m 2
 76 310 74 385 66 428 c 1
 69 432 l 1
 86.7 430.7 114 429 140 429 c 0
 168 429 195.3 432 209 434 c 0
 215 434 218 431 218 424 c 0
 211.7 364 208 321 208 246 c 2
 208 242.2 l 1
 215.4 244.2 222.7 248.8 232 256 c 0
 271.6 286.5 343.9 366.5 387 429 c 1
 414 429 507 429 526 432 c 1
 528 429 l 1
 463 373.9 380.4 278.9 341 238 c 1
 436.4 122.8 474.6 78.6 549 0 c 1
 547 -3 l 1
 538 -1.2 479.7 0 463 0 c 0
 446 0 398.3 -1.2 383 -3 c 1
 312 95.8 293 130 228 198 c 0
 222.1 203.2 214.5 205.5 208 206.4 c 1
 208 180 l 2
 208 104 210 57 218 0 c 1
 216 -3 l 1
 197.3 -1 176 0 142 0 c 0
 107 0 88.7 -0.7 68 -3 c 1
 66 0 l 1
 74 54 76 105 76 180 c 2
 76 235 l 2
EndSplineSet
Comment: "Ist das so richtig?"
EndChar

StartChar: Lslash
Encoding: 321 321 427
Width: 588
GlyphClass: 2
Flags: MW
LayerCount: 2
Fore
SplineSet
326 461 m 1
 350 419 l 1
 247 365 l 1
 247 210 l 2
 247 193 248 105 255 81 c 1
 389 81 541 103 541 103 c 1
 543 99 l 1
 542 91 541 52 541 42 c 0
 541 32 542 14 543 0 c 1
 541 -3 l 1
 525 -1 502 0 481 0 c 2
 177 0 l 2
 143 0 94 -3 94 -3 c 1
 93 0 l 1
 101 54 103 125 103 200 c 2
 103 289.4 l 1
 24 248 l 1
 0 289 l 1
 103 343.3 l 1
 103 445 l 2
 103 520 100 588 92 645 c 1
 94 648 l 1
 94 648 139 645 173 645 c 0
 208 645 256 648 256 648 c 1
 257 645 l 1
 249 592 247 520 247 445 c 2
 247 419.3 l 1
 326 461 l 1
EndSplineSet
Position2: "'cpsp' Versalabstaende 1" dx=2 dy=0 dh=5 dv=0
Colour: ff80cc
EndChar

StartChar: lslash
Encoding: 322 322 428
Width: 304
GlyphClass: 2
Flags: MW
LayerCount: 2
Fore
SplineSet
296 461 m 1
 320 419 l 1
 218 366.2 l 1
 218 200 l 2
 218 124.8 221.5 57 230 0 c 1
 228 -3 l 1
 228 -3 186.3 0 152 0 c 0
 117 0 75 -3 75 -3 c 1
 74 0 l 1
 82.5 53.5 86 125 86 200 c 2
 86 297.8 l 1
 13 260 l 1
 -11 301 l 1
 86 351.6 l 1
 86 474 l 2
 86 550 81.7 619.3 74 662 c 1
 76 665 l 1
 116.5 668 193.9 688 219 698 c 1
 225.3 698 230 695 230 688 c 0
 222.3 626.7 218 575 218 500 c 2
 218 420.3 l 1
 296 461 l 1
EndSplineSet
Colour: ff80cc
EndChar

StartChar: Eng
Encoding: 330 330 436
Width: 728
GlyphClass: 2
Flags: MW
AnchorPoint: "top_punkt" 345 721 basechar 0
AnchorPoint: "above" 346 804 basechar 0
AnchorPoint: "below" 359 -109 basechar 0
AnchorPoint: "cedilla" 124 -3 basechar 0
LayerCount: 2
Fore
SplineSet
93 445 m 2
 93 520 89 588 81 645 c 1
 83 648 l 1
 83 648 131 645 165 645 c 3
 200 645 248 648 248 648 c 1
 249 645 l 1
 244 613 241 574 239 532 c 1
 306 616 375 655 456 655 c 3
 537 655 668 620 668 449 c 2
 668 117 l 2
 668 0 647 -61 605 -110 c 0
 550 -174 472 -201 409 -201 c 3
 390 -201 342 -197 334 -192 c 1
 333 -189 l 1
 344 -170 360 -97 360 -68 c 1
 389 -62 l 1
 400 -82 437 -119 475 -119 c 3
 509 -119 526 -66 526 -24 c 3
 526 46 524 114 524 155 c 2
 524 416 l 2
 524 470 514 570 435 570 c 3
 366 570 296 522 237 446 c 1
 237 445 l 1
 237 200 l 2
 237 125 241 57 249 0 c 1
 247 -3 l 1
 247 -3 199 0 165 0 c 3
 130 0 82 -3 82 -3 c 1
 81 0 l 1
 89 54 93 125 93 200 c 2
 93 445 l 2
EndSplineSet
Position2: "'cpsp' Versalabstaende 1" dx=2 dy=0 dh=5 dv=0
Comment: "Sieht in Times anders aus"
EndChar

StartChar: eng
Encoding: 331 331 437
Width: 622
GlyphClass: 2
Flags: MW
AnchorPoint: "below" 132 -146 basechar 0
AnchorPoint: "above" 294 646 basechar 0
AnchorPoint: "top_punkt" 295 550 basechar 0
AnchorPoint: "cedilla" 148 9 basechar 0
LayerCount: 2
Fore
SplineSet
212 282 m 1
 212 180 l 2
 212 104 213 57 218 0 c 1
 215 -3 l 1
 215 -3 187.3 0 153 0 c 0
 118 0 71 -3 71 -3 c 1
 69 0 l 1
 77.5 53.5 80 105 80 180 c 2
 80 235 l 2
 80 309.7 76.7 386.3 69 429 c 1
 71 432 l 1
 106 430.3 172 430.3 201 435 c 1
 207.3 435 208.8 431.9 210 425 c 0
 211.5 416.5 211.8 374.8 211.8 352 c 1
 216 349 l 1
 282 429 343.2 439 397 439 c 0
 487 439 536.7 380 536 291 c 2
 534 29 l 2
 533.5 -42.1 519 -111 486 -158 c 0
 453.1 -204.8 389 -232 331 -232 c 0
 313 -232 260 -228 253 -224 c 1
 252 -221 l 1
 257 -203 257 -141 257 -108 c 1
 284 -101 l 1
 294 -119 321 -144 348 -144 c 0
 415 -144 410 11 406 116 c 2
 401 235 l 2
 397.4 321.6 392.4 367 348 367 c 0
 302 367 249 333.9 212 282 c 1
EndSplineSet
EndChar

StartChar: OE
Encoding: 338 338 444
Width: 964
GlyphClass: 2
Flags: MW
AnchorPoint: "top_punkt" 322 700 basechar 0
AnchorPoint: "below" 321 -107 basechar 0
AnchorPoint: "cedilla" 321 4 basechar 0
AnchorPoint: "above" 560 820 basechar 0
LayerCount: 2
Fore
SplineSet
620 200 m 2
 620 183 621 97 628 73 c 1
 762 73 914 95 914 95 c 1
 916 91 l 1
 915 83 914 46 914 36 c 0
 914 26 915 14 916 0 c 1
 914 -3 l 1
 898 -1 875 0 854 0 c 2
 560 0 l 2
 515.7 -0.6 380 -2 380 -2 c 1
 192 -1 60 138 60 318 c 0
 60 498 183 646 369 646 c 1
 369 646 421.9 645.5 474.1 645.2 c 0
 504.1 645.2 844 645 844 645 c 2
 865 645 888 646 904 648 c 1
 906 645 l 1
 905 631 904 618 904 610 c 0
 904 601 905 577 906 569 c 1
 904 565 l 1
 904 565 762 577 628 577 c 1
 621 553 620 462 620 445 c 2
 620 372 l 1
 738 372 788 377 847 382 c 1
 850 379 l 1
 848 370 847 351 847 342 c 0
 847 333 848 313 850 304 c 1
 847 301 l 1
 778 308 668 311 620 311 c 1
 620 200 l 2
418 43 m 2
 431 43 l 2
 471 43 482 55 482 83 c 2
 482 564 l 2
 482 594.8 469.1 601 431 601 c 2
 396 601 l 2
 299 601 215 541 215 327 c 0
 215 120 315 43 418 43 c 2
EndSplineSet
Position2: "'cpsp' Versalabstaende 1" dx=2 dy=0 dh=5 dv=0
EndChar

StartChar: oe
Encoding: 339 339 445
Width: 863
GlyphClass: 2
Flags: MW
AnchorPoint: "above" 460 645 basechar 0
LayerCount: 2
Fore
SplineSet
529 255 m 1
 685 255 l 1
 685 342.5 660.9 389 620 389 c 0
 591.7 389 572.2 376.3 559.5 359 c 0
 544.7 338.8 532.5 304 529 255 c 1
804 107 m 1
 814 107 820 89 820 76 c 1
 765.5 13 694 -10 622 -10 c 0
 547 -10 488.2 6.5 454 42 c 0
 453.7 42.3 453.4 42.6 453.1 42.9 c 0
 412.1 8.8 354.6 -10 283 -10 c 0
 134 -10 41 72 41 205 c 0
 41 360 142 439 285 439 c 0
 365.1 439 423.3 416.7 462.2 379.9 c 1
 465.6 383 469 386.1 472.5 389 c 0
 512.2 421.7 572 439 627 439 c 0
 781 439 816 339 816 214 c 1
 810 208 l 1
 810 208 724.5 210 624.5 210 c 2
 525 210 l 1
 525 164.1 536.2 129 558.2 105 c 0
 582 79.1 618.4 66 667 66 c 0
 709 66 757.5 69.5 804 107 c 1
278 389 m 0
 192 389 183 315 183 228 c 0
 183 151 193 40 297 40 c 0
 342 40 383 72 383 187 c 0
 383 326 363 389 278 389 c 0
EndSplineSet
EndChar

StartChar: Scedilla
Encoding: 350 350 456
Width: 542
GlyphClass: 2
Flags: MW
LayerCount: 2
Fore
SplineSet
176 -96 m 1
 170 -90 l 1
 212.6 -9 l 1
 106.4 -2.4 29 35 29 35 c 1
 27 38 l 1
 35 68 43 124 47 160 c 1
 73 161 l 1
 108 108 192 42 253 42 c 0
 313.2 42 346 74 346 145 c 0
 346 186 306 226 259 250 c 0
 201.7 279.3 124.3 316.7 78 377 c 0
 54.2 408 47 446.9 47 485 c 0
 47 591 150 658 263 658 c 0
 385 658 467 613 467 613 c 1
 469 610 l 1
 460 580 453 526 449 490 c 1
 419 489 l 1
 393 538 334 609 274 609 c 0
 219.5 609 183 562 183 512 c 0
 183 438.9 231 414 285 389 c 0
 365.9 351.5 483 295 483 186 c 0
 483 84.9 392.6 -8.3 247.9 -10 c 1
 235 -41 l 1
 280.4 -50.1 327.9 -65.5 327.9 -120.1 c 0
 327.9 -170.3 277.1 -212 212.3 -212 c 0
 180.3 -212 164.3 -204 147 -193 c 1
 147 -183 150.3 -171 160.3 -161.5 c 1
 187.3 -171.5 198.3 -175.5 218.3 -175.5 c 0
 248.3 -175.5 265 -167 265 -140 c 0
 265 -102.4 212 -98 176 -96 c 1
EndSplineSet
Position2: "'cpsp' Versalabstaende 1" dx=2 dy=0 dh=5 dv=0
Colour: ff00ff
EndChar

StartChar: scedilla
Encoding: 351 351 457
Width: 419
GlyphClass: 2
Flags: MW
LayerCount: 2
Fore
SplineSet
136 -96 m 1
 130 -90 l 1
 172.4 -9.3 l 1
 135.1 -7.1 82.5 0.5 38 17 c 1
 54 113 l 1
 84 114 l 1
 114 56 155.9 34 191 34 c 0
 229 34 260 36 260 83 c 0
 260 123 238 141 165 181 c 0
 108.1 212.2 59 248 59 318 c 0
 59 395 138 439 228 439 c 0
 276 439 334 428 361 413 c 1
 363 410 l 1
 344 320 l 1
 317 319 l 1
 304 347 275 394 226 394 c 0
 187 394 177 373 177 345 c 0
 177 313 204.4 295.5 237 278 c 0
 308 240 379 212.1 379 122 c 0
 379 55.5 327.9 -5.3 208 -9.7 c 1
 195 -41 l 1
 240.4 -50.1 287.9 -65.5 287.9 -120.1 c 0
 287.9 -170.3 237.1 -212 172.3 -212 c 0
 140.3 -212 124.3 -204 107 -193 c 1
 107 -183 110.3 -171 120.3 -161.5 c 1
 147.3 -171.5 158.3 -175.5 178.3 -175.5 c 0
 208.3 -175.5 225 -167 225 -140 c 0
 225 -102.4 172 -98 136 -96 c 1
EndSplineSet
Colour: ff00ff
EndChar

StartChar: uni0162
Encoding: 354 354 460
Width: 602
GlyphClass: 2
Flags: MW
LayerCount: 2
Fore
SplineSet
242 -96 m 1
 236 -90 l 1
 283.2 -0.2 l 1
 252.2 -0.9 220 -3 220 -3 c 1
 219 0 l 1
 227 54 229 125 229 200 c 2
 229 436 l 2
 229 453 228 543 221 567 c 1
 87 567 17 545 17 545 c 1
 15 549 l 1
 17 564 17 617 15 645 c 1
 17 648 l 1
 33 646 56 645 77 645 c 2
 525 645 l 2
 546 645 569 646 585 648 c 1
 587 645 l 1
 585 617 585 564 587 549 c 1
 585 545 l 1
 585 545 515 567 381 567 c 1
 374 543 373 453 373 436 c 2
 373 200 l 2
 373 125 375 57 383 0 c 1
 381 -3 l 1
 381 -3 348.5 -0.9 318 -0.2 c 1
 301 -41 l 1
 346.4 -50.1 393.9 -65.5 393.9 -120.1 c 0
 393.9 -170.3 343.1 -212 278.3 -212 c 0
 246.3 -212 230.3 -204 213 -193 c 1
 213 -183 216.3 -171 226.3 -161.5 c 1
 253.3 -171.5 264.3 -175.5 284.3 -175.5 c 0
 314.3 -175.5 331 -167 331 -140 c 0
 331 -102.4 278 -98 242 -96 c 1
EndSplineSet
Position2: "'cpsp' Versalabstaende 1" dx=2 dy=0 dh=5 dv=0
Colour: ff00ff
EndChar

StartChar: uni0163
Encoding: 355 355 461
Width: 354
GlyphClass: 2
Flags: MW
LayerCount: 2
Fore
SplineSet
126 -106 m 1
 120 -100 l 1
 167.8 -9.1 l 1
 112.5 -2.6 84 44.5 84 88.1 c 0
 84 118.1 85.5 201.1 87 261.1 c 2
 90 379 l 1
 67.2 378.9 36.2 378.3 19 377 c 1
 14 384 l 1
 23.7 399 30.5 415 36 432 c 1
 48.4 430.4 69.5 429.1 90 429 c 1
 90 468.7 90.7 503.3 94 530 c 1
 96 533 l 1
 136 542 190 568 215 578 c 1
 221 578 224 575 224 568 c 0
 219.5 515 219 485 219 429 c 1
 266 429 l 2
 289 429 317.4 430.4 336 432 c 1
 341 424 l 1
 335 409.3 330.5 392 329 377 c 1
 315.7 378.3 281 379 257 379 c 2
 219 379 l 1
 217 272.1 l 2
 215.9 212.1 216 161.1 216 131.1 c 0
 216 90.1 226 51.1 253 51.1 c 0
 279 51.1 289 52.1 311 63.1 c 1
 322 56.1 328 41.1 328 25.1 c 1
 290.9 2.7 247 -7.1 202.3 -9.4 c 1
 185 -51 l 1
 230.4 -60.1 277.9 -75.5 277.9 -130.1 c 0
 277.9 -180.3 227.1 -222 162.3 -222 c 0
 130.3 -222 114.3 -214 97 -203 c 1
 97 -193 100.3 -181 110.3 -171.5 c 1
 137.3 -181.5 148.3 -185.5 168.3 -185.5 c 0
 198.3 -185.5 215 -177 215 -150 c 0
 215 -112.4 162 -108 126 -106 c 1
EndSplineSet
Colour: ff00ff
EndChar

StartChar: Tbar
Encoding: 358 358 464
Width: 602
GlyphClass: 2
Flags: MW
LayerCount: 2
Fore
SplineSet
121 317 m 1
 121 368 l 1
 155.9 365.8 191.7 364 229 363 c 1
 229 436 l 2
 229 453 228 543 221 567 c 1
 87 567 17 545 17 545 c 1
 15 549 l 1
 17 564 17 617 15 645 c 1
 17 648 l 1
 33 646 56 645 77 645 c 2
 525 645 l 2
 546 645 569 646 585 648 c 1
 587 645 l 1
 585 617 585 564 587 549 c 1
 585 545 l 1
 585 545 515 567 381 567 c 1
 374 543 373 453 373 436 c 2
 373 363.3 l 1
 403.4 364.2 435 365.7 468 368 c 1
 468 317 l 1
 436.7 319.2 405.1 320.7 373 321.7 c 1
 373 200 l 2
 373 125 375 57 383 0 c 1
 381 -3 l 1
 381 -3 335 0 301 0 c 0
 266 0 220 -3 220 -3 c 1
 219 0 l 1
 227 54 229 125 229 200 c 2
 229 322.1 l 1
 193.5 321.2 157.5 319.5 121 317 c 1
EndSplineSet
Position2: "'cpsp' Versalabstaende 1" dx=2 dy=0 dh=5 dv=0
Colour: ff80cc
EndChar

StartChar: tbar
Encoding: 359 359 465
Width: 354
GlyphClass: 2
Flags: MW
LayerCount: 2
Fore
SplineSet
332 284 m 1
 332 245 l 1
 216.6 245 l 1
 215.9 196.9 216 156.5 216 131.1 c 0
 216 90.1 226 51.1 253 51.1 c 0
 279 51.1 289 52.1 311 63.1 c 1
 322 56.1 328 41.1 328 25.1 c 1
 285 -0.9 233 -9.9 181 -9.9 c 0
 117 -9.9 84 41.1 84 88.1 c 0
 84 115.5 85.2 187.1 86.6 245 c 1
 16 245 l 1
 16 284 l 1
 87.6 284 l 1
 90 379 l 1
 67.2 378.9 36.2 378.3 19 377 c 1
 14 384 l 1
 23.7 399 30.5 415 36 432 c 1
 48.4 430.4 69.5 429.1 90 429 c 1
 90 468.7 90.7 503.3 94 530 c 1
 96 533 l 1
 136 542 190 568 215 578 c 1
 221 578 224 575 224 568 c 0
 219.5 515 219 485 219 429 c 1
 266 429 l 2
 289 429 317.4 430.4 336 432 c 1
 341 424 l 1
 335 409.3 330.5 392 329 377 c 1
 315.7 378.3 281 379 257 379 c 2
 219 379 l 1
 217.2 284 l 1
 332 284 l 1
EndSplineSet
Colour: ff80cc
EndChar

StartChar: Uogonek
Encoding: 370 370 476
Width: 719
GlyphClass: 2
Flags: MW
LayerCount: 2
Fore
SplineSet
560.4 -157.4 m 1
 535.5 -185.5 496.2 -203.6 456 -203.6 c 0
 394.4 -203.6 348.2 -161.8 348.2 -104.7 c 0
 348.2 -73.8 376.2 -39.4 413.5 -6.5 c 1
 396.2 -8.8 377.7 -10 358 -10 c 0
 253.7 -10 86 32 86 236 c 2
 86 445 l 2
 86 520 84 588 76 645 c 1
 78 648 l 1
 78 648 122 645 156 645 c 0
 191 645 239 648 239 648 c 1
 240 645 l 1
 232 592 230 520 230 445 c 2
 230 269 l 2
 230 194 246 55 379 55 c 0
 524.2 55 547 165 547 277 c 2
 547 445 l 2
 547 520 545 588 537 645 c 1
 539 648 l 1
 539 648 565.7 645 590 645 c 0
 612.3 645 641 648 641 648 c 1
 642 645 l 1
 634 592 632 520 632 445 c 2
 632 295 l 2
 632 164 594.7 66.8 504.2 20.4 c 1
 467.4 -9.4 438.7 -43 438.7 -79.6 c 0
 438.7 -116.2 463.3 -134.6 503.3 -134.6 c 0
 519.5 -134.6 536.3 -131.3 548.7 -123.2 c 1
 557.5 -130.5 560.7 -140.2 560.7 -151.1 c 0
 560.7 -153.2 560.6 -155.3 560.4 -157.4 c 1
EndSplineSet
Position2: "'cpsp' Versalabstaende 1" dx=2 dy=0 dh=5 dv=0
Colour: ff00ff
EndChar

StartChar: uogonek
Encoding: 371 371 477
Width: 591
GlyphClass: 2
Flags: MW
LayerCount: 2
Fore
SplineSet
551.4 -177.4 m 1
 526.5 -205.5 487.2 -223.6 447 -223.6 c 0
 385.4 -223.6 339.2 -181.8 339.2 -124.7 c 0
 339.2 -85.4 384.6 -40.4 436.6 -0.1 c 1
 421.1 -0.5 399 -1.6 388 -3 c 0
 382 -3 379 -2 379 0 c 2
 374 64 l 1
 372 64 l 1
 316 4 245 -10 204 -10 c 0
 105 -10 70 57 71 126 c 2
 73 249 l 2
 74.2 321 71 372 65 429 c 1
 67 432 l 1
 67 432 103 429 137 429 c 0
 172 429 212 432 212 432 c 1
 213 429 l 1
 208 377.5 206.7 324 205 249 c 2
 203 159 l 2
 201 77 230 67 260 67 c 0
 304.8 67 372 111 372 169 c 2
 372 249 l 2
 372 325 372 373 365 429 c 1
 367 432 l 1
 367 432 401 429 435 429 c 0
 470 429 512 432 512 432 c 1
 513 429 l 1
 504 376 504 324 504 249 c 2
 504 192 l 2
 504 117 513 43 521 0 c 1
 519 -3 l 1
 514.1 -2.2 504.3 -1.7 493.3 -1.2 c 1
 457.5 -30.6 429.7 -63.7 429.7 -99.6 c 0
 429.7 -136.2 454.3 -154.6 494.3 -154.6 c 0
 510.5 -154.6 527.3 -151.3 539.7 -143.2 c 1
 548.5 -150.5 551.7 -160.2 551.7 -171.1 c 0
 551.7 -173.2 551.6 -175.3 551.4 -177.4 c 1
EndSplineSet
Colour: ff80cc
EndChar

StartChar: longs
Encoding: 383 383 489
Width: 312
GlyphClass: 2
Flags: MW
AnchorPoint: "cedilla" 162 10 basechar 0
LayerCount: 2
Fore
SplineSet
93 346 m 2
 93 359 89.1 362.1 81 363 c 2
 37 368 l 2
 33.2 368.4 27 370 27 374 c 2
 27 409 l 2
 27 417 37.4 425.1 54 429 c 0
 84 436 93 450 93 477 c 0
 93 556 110 576 150 622 c 0
 189.9 667.9 277 698 340 698 c 0
 359 698 397 694 405 689 c 1
 406 686 l 1
 395 667 385 611 378 584 c 1
 347 583 l 1
 336 603 318 628 289 628 c 0
 250 628 226 590.2 226 535 c 0
 226 517 231 464.5 231 439 c 2
 231 200 l 2
 231 124.8 232.5 57 241 0 c 1
 239 -3 l 1
 239 -3 206.3 0 172 0 c 0
 137 0 84 -3 84 -3 c 1
 83 0 l 1
 91.5 53.5 93 125 93 200 c 2
 93 346 l 2
EndSplineSet
EndChar

StartChar: uni0186
Encoding: 390 390 490
Width: 706
GlyphClass: 2
Flags: MW
LayerCount: 2
Fore
SplineSet
232 -10 m 0
 110 -10 7 35 7 35 c 1
 5 38 l 1
 16.8 87.3 21.4 117 25 168 c 1
 55 169 l 1
 96 87 149 45 239 45 c 0
 321 45 431 116 431 319 c 0
 431 489.2 349 598 240 598 c 0
 147 598 92 581 17 509 c 1
 -7 543 l 1
 77 630 176.8 658 266 658 c 0
 350.8 658 410.9 640.3 471 600 c 0
 550 547 594 443 594 338 c 0
 594 228.1 548.9 125.7 470 64 c 0
 407.5 15.2 323 -10 232 -10 c 0
EndSplineSet
Colour: ff00ff
EndChar

StartChar: Ohorn
Encoding: 416 416 493
Width: 799
GlyphClass: 2
Flags: MW
AnchorPoint: "below" 381 -113 basechar 0
AnchorPoint: "cedilla" 381 0 basechar 0
LayerCount: 2
Fore
SplineSet
384 603 m 0
 288 603 213 537 213 327 c 0
 213 135 298 45 418 45 c 0
 532 45 586 131 586 310 c 0
 586 518 525 603 384 603 c 0
747 329 m 0
 747 129 612.1 -10 398 -10 c 0
 200 -10 52 122 52 310 c 0
 52 506 194 658 397 658 c 0
 461 658 518.1 646.2 566.7 624.3 c 1
 585.8 618.1 598.3 616 615 616 c 0
 626 616 660 625 660 659 c 0
 660 672 653 682 639 684 c 0
 605 688 592 711 592 731 c 0
 592 755 608 770 638 770 c 0
 695.5 770 717 727 717 679 c 0
 717 629.5 686.8 590.2 633.3 583.9 c 1
 705.7 526.2 747 437.7 747 329 c 0
EndSplineSet
Colour: ff80cc
EndChar

StartChar: ohorn
Encoding: 417 417 494
Width: 578
GlyphClass: 2
Flags: MW
AnchorPoint: "below" 298.8 -107 basechar 0
AnchorPoint: "ogonek" 438.2 44 basechar 0
AnchorPoint: "cedilla" 291.1 -3 basechar 0
LayerCount: 2
Fore
SplineSet
41 205 m 0
 41 360 142 439 285 439 c 0
 338 439 381.3 429.3 415.8 412.1 c 1
 427.8 408.9 438.6 407 449 407 c 0
 460 407 484 416 484 450 c 0
 484 463 477 473 463 475 c 0
 429 479 416 502 416 522 c 0
 416 546 432 561 462 561 c 0
 519.5 561 541 518 541 470 c 0
 541 420.6 519.3 381.2 467.3 374.9 c 1
 506.9 334.3 525 277.6 525 214 c 0
 525 75.8 436 -10 283 -10 c 0
 134 -10 41 72 41 205 c 0
278 389 m 0
 192 389 183 315 183 228 c 0
 183 151 193 40 297 40 c 0
 342 40 383 72 383 187 c 0
 383 326 363 389 278 389 c 0
EndSplineSet
Colour: ff80cc
EndChar

StartChar: Uhorn
Encoding: 431 431 496
Width: 779
GlyphClass: 2
Flags: MW
LayerCount: 2
Fore
SplineSet
749 689 m 0
 749 635 707 615 644 615 c 0
 642.1 615 640.2 615 638.3 614.9 c 1
 633.4 566.2 632 506.6 632 445 c 2
 632 295 l 2
 632 108 556 -10 358 -10 c 0
 253.7 -10 86 32 86 236 c 2
 86 445 l 2
 86 520 84 588 76 645 c 1
 78 648 l 1
 78 648 122 645 156 645 c 0
 191 645 239 648 239 648 c 1
 240 645 l 1
 232 592 230 520 230 445 c 2
 230 269 l 2
 230 194 246 55 379 55 c 0
 524.2 55 547 165 547 277 c 2
 547 445 l 2
 547 520 545 588 537 645 c 1
 539 648 l 1
 539 648 565.7 645 590 645 c 0
 606.4 645 626.4 646.6 635.7 647.5 c 0
 637.4 647.8 639.1 648 641 648 c 0
 652 648 692 652.2 692 668 c 0
 692 679.1 685 692 671 694 c 0
 637 698 624 721 624 741 c 0
 624 765 640 780 670 780 c 0
 727.5 780 749 737 749 689 c 0
EndSplineSet
EndChar

StartChar: uhorn
Encoding: 432 432 497
Width: 644
GlyphClass: 2
Flags: MW
LayerCount: 2
Fore
SplineSet
619 478 m 0
 619 424 577 399 514 399 c 0
 512.3 399 510.6 399 508.8 398.9 c 1
 504 355.5 504 309.8 504 249 c 2
 504 192 l 2
 504 117 513 43 521 0 c 1
 519 -3 l 1
 506 -1 458.1 0 445.5 0 c 0
 431 0 401.3 -1.3 388 -3 c 0
 382 -3 379 -2 379 0 c 2
 374 64 l 1
 372 64 l 1
 316 4 245 -10 204 -10 c 0
 105 -10 70 57 71 126 c 2
 73 249 l 2
 74.2 321 71 372 65 429 c 1
 67 432 l 1
 67 432 103 429 137 429 c 0
 172 429 212 432 212 432 c 1
 213 429 l 1
 208 377.5 206.7 324 205 249 c 2
 203 159 l 2
 201 77 230 67 260 67 c 0
 304.8 67 372 111 372 169 c 2
 372 249 l 2
 372 325 372 373 365 429 c 1
 367 432 l 1
 367 432 401 429 435 429 c 0
 462.3 429 494 430.8 506.5 431.6 c 0
 507.9 431.8 509.4 432 511 432 c 0
 522 432 562 442.2 562 458 c 0
 562 469.1 555 481 541 483 c 0
 507 487 494 510 494 530 c 0
 494 554 510 569 540 569 c 0
 597.5 569 619 526 619 478 c 0
EndSplineSet
Colour: ff80cc
EndChar

StartChar: uni01B5
Encoding: 439 439 498
Width: 546
GlyphClass: 2
Flags: MW
LayerCount: 2
Fore
SplineSet
281 408 m 2
 306.3 453.3 332 494.3 358 531 c 1
 284 528.3 192.7 523 84 515 c 1
 87.3 541.7 89 568 89 594 c 0
 89 606 87.3 625 84 651 c 1
 130.7 643.7 237.3 640 404 640 c 0
 426.7 640 448 643 468 649 c 1
 482 628 l 1
 358 401 l 1
 386.7 395 412.3 382.3 435 363 c 0
 477 327 498 280.3 498 223 c 0
 498 155.7 475.7 100 431 56 c 0
 388.3 14 336 -7 274 -7 c 0
 181.3 -7 117.3 9 82 41 c 1
 79 46 l 1
 100 130 l 1
 134 131 l 1
 164 73.7 204.7 45 256 45 c 0
 282 45 304.3 56.7 323 80 c 0
 345 107.3 356 145 356 193 c 0
 356 260.3 342.3 305.3 315 328 c 1
 294.3 342 272.7 349.7 250 351 c 1
 281 408 l 2
EndSplineSet
EndChar

StartChar: uni01B8
Encoding: 440 440 499
Width: 546
GlyphClass: 2
Flags: MW
LayerCount: 2
Fore
SplineSet
336 351 m 1
 286 354.2 252 342 231 328 c 1
 204 305 190 253 190 186 c 0
 190 91.8 237 40 290 40 c 0
 361 40 409 92.2 457 188.2 c 1
 480 184.2 l 1
 468 46 l 1
 465 41 l 1
 421 12.2 365 -10 272 -10 c 0
 133 -10 48 69 48 187 c 0
 48 268 100 367.2 188 381 c 1
 31 644.7 l 1
 34 648 l 1
 76.3 646.3 120 644.9 163 645 c 2
 371 645 l 1
 412 646 447.2 648.8 462 651 c 1
 459.3 637.3 457 616 457 604 c 0
 457 587.3 459 567.3 462 555 c 1
 400.7 559.7 295.3 561 222 561 c 1
 241 522.9 280 453 305 408 c 2
 336 351 l 1
EndSplineSet
EndChar

StartChar: uni01B9
Encoding: 441 441 500
Width: 470
GlyphClass: 2
Flags: MW
LayerCount: 2
Fore
SplineSet
352 98.3 m 1
 337.4 102.9 307.7 108 282 108 c 0
 252 108 232 99.3 209 76.3 c 0
 183.6 50.9 174 18 174 -48 c 0
 174 -104 206.7 -183 273 -183 c 0
 324.3 -183 365 -146 395 -92 c 1
 429 -93 l 1
 450 -165 l 1
 447 -170 l 1
 411.7 -200 347.7 -232 255 -232 c 0
 193 -232 133 -217.7 101 -190 c 0
 55 -150.2 32 -111.3 32 -48 c 0
 32 6 57 60 99 94 c 1
 133.7 120.7 169.3 136.7 216 138 c 1
 61 387 l 2
 46.5 410.2 35.7 423.7 31 429 c 1
 30.7 432 32.7 435 36 435 c 0
 58.7 432.8 98.4 429 117 429 c 2
 369 429 l 2
 391 429 409.7 430 425 432 c 1
 427 429 l 1
 427 429 425 407.3 425 397 c 0
 425 384.3 425.7 372.7 427 362 c 1
 425 359 l 1
 358.3 365 287.7 368.7 213 370 c 1
 366 108.3 l 1
 352 98.3 l 1
EndSplineSet
EndChar

StartChar: uni01C0
Encoding: 448 448 501
Width: 185
GlyphClass: 2
Flags: MW
LayerCount: 2
Fore
SplineSet
112 -10 m 1
 73 -10 l 1
 73 698 l 1
 112 698 l 1
 112 -10 l 1
EndSplineSet
EndChar

StartChar: uni01C2
Encoding: 450 450 503
Width: 332
GlyphClass: 2
Flags: MW
LayerCount: 2
Fore
SplineSet
291 323 m 1
 291 289 l 1
 175 289 l 1
 175 -10 l 1
 136 -10 l 1
 136 289 l 1
 25 289 l 1
 25 323 l 1
 136 323 l 1
 136 395 l 1
 25 395 l 1
 25 429 l 1
 136 429 l 1
 136 698 l 1
 175 698 l 1
 175 429 l 1
 291 429 l 1
 291 395 l 1
 175 395 l 1
 175 323 l 1
 291 323 l 1
EndSplineSet
Colour: ff80cc
EndChar

StartChar: uni01C3
Encoding: 451 451 504
Width: 270
GlyphClass: 2
Flags: MW
LayerCount: 2
Fore
SplineSet
132 658 m 0
 162 658 204 635 204 585 c 0
 204 520 186 478 175 392 c 0
 161 284 160 224 158 210 c 0
 157 199 143 190 132 190 c 0
 120 190 108 197 107 203 c 0
 105 224 99 314 90 392 c 0
 80 480 63 515 63 585 c 0
 63 639 108 658 132 658 c 0
EndSplineSet
Refer: 1523 8228 N 1 0 0 1 8 0 2
Colour: ff00ff
EndChar

StartChar: uni01C6
Encoding: 454 454 507
Width: 897
GlyphClass: 2
Flags: MW
LayerCount: 2
Fore
SplineSet
373 133 m 1
 373 303 l 1
 362.5 354.5 325 389 278 389 c 0
 229.6 389 186 356 186 221 c 0
 186 96 222 48 276 48 c 0
 316.5 48 348.5 69 373 133 c 1
373 54 m 1
 346 7.5 293 -10 230 -10 c 0
 119 -10 44 80 44 203 c 0
 44 274.9 68 347.5 130 392.5 c 0
 175.9 425.8 212 439 279 439 c 0
 307.5 439 354 421 373 394 c 1
 373 474 l 2
 373 550 368.7 619.3 361 662 c 1
 363 665 l 1
 403.5 668 480.9 688 506 698 c 1
 512.3 698 517 695 517 688 c 0
 509.3 626.7 505 574 505 500 c 2
 505 192 l 2
 505 128.2 513 65.1 520.3 21.2 c 1
 522.6 24.1 525 27.5 528 32 c 2
 757 370 l 1
 645 368 545 359 545 359 c 1
 543 362 l 1
 544 370 545 388 545 397 c 0
 545 406 544 416 543 429 c 1
 545 432 l 1
 560 430 581 429 601 429 c 2
 853 429 l 2
 882 429 929 435 934 435 c 0
 938 435 939 433 939 429 c 1
 933 422 926 412 909 387 c 2
 686 59 l 1
 806 60 930 70 930 70 c 1
 932 67 l 1
 931 59 930 41 930 32 c 0
 930 23 931 13 932 0 c 1
 930 -3 l 1
 915 -1 894 0 874 0 c 2
 648 0 l 2
 626 0 552.5 -1.8 522.2 -2.6 c 1
 522 -3 l 2
 521.4 -2.9 520.7 -2.8 519.9 -2.7 c 0
 513.1 -2.9 509 -3 509 -3 c 2
 508.8 -1.8 l 1
 490.4 -0.6 462.2 0 452.5 0 c 0
 438 0 402.3 -1.3 389 -3 c 0
 383 -3 380 -2 380 0 c 2
 375 54 l 1
 373 54 l 1
EndSplineSet
Refer: 658 780 N 1 0 0 1 923 -15 2
Colour: ff00ff
EndChar

StartChar: uni01D7
Encoding: 471 471 524
Width: 719
GlyphClass: 2
Flags: MW
LayerCount: 2
Fore
SplineSet
487 894.8 m 1
 508.1 878.3 524 849.1 530.9 823.6 c 1
 525.5 811.3 l 1
 408.4 772.5 l 2
 391.3 766.8 384.6 764.6 378.4 764.6 c 0
 372.2 764.6 366.1 778.7 366.1 786.6 c 0
 366.1 792.8 367.5 799.6 377.6 807.7 c 2
 487 894.8 l 1
EndSplineSet
Refer: 363 -1 N 1 0 0 1 0 0 2
Colour: ff00ff
EndChar

StartChar: uni01D8
Encoding: 472 472 525
Width: 591
GlyphClass: 2
Flags: MW
LayerCount: 2
Fore
SplineSet
337 601 m 0
 337 638 366 667 403 667 c 0
 438 667 467 638 467 601 c 0
 467 566 438 536 403 536 c 0
 366 536 337 566 337 601 c 0
128 601 m 0
 128 638 157 667 192 667 c 0
 214.5 667 234 656.3 245.9 639.6 c 1
 246.9 643.1 248.4 646.8 250.6 650.5 c 2
 317 768.4 l 1
 319.4 769.3 325.8 770.2 329.8 770.2 c 0
 353.8 770.2 377 757.6 383.4 748.6 c 1
 391.4 727.9 l 1
 295.4 630.7 l 2
 284.2 619.9 269 616.3 261 616.3 c 0
 259.5 616.3 257.8 616.7 256 617.4 c 1
 257.3 612.2 258 606.7 258 601 c 0
 258 566 229 536 192 536 c 0
 157 536 128 566 128 601 c 0
EndSplineSet
Refer: 294 117 N 1 0 0 1 0 0 2
Colour: ff00ff
EndChar

StartChar: uni01D9
Encoding: 473 473 526
Width: 719
GlyphClass: 2
Flags: MW
LayerCount: 2
Fore
SplineSet
281.2 852.8 m 1
 293.5 880 l 1
 328.9 864.2 361.3 848.4 394.4 830.8 c 1
 426.7 848.4 460.6 864.2 496 880 c 1
 508.3 852.8 l 1
 473.7 821.1 435.9 783.2 405.9 748.9 c 1
 382.8 748.9 l 1
 352.8 785 315.5 821.1 281.2 852.8 c 1
EndSplineSet
Refer: 363 -1 N 1 0 0 1 0 0 2
Colour: ff00ff
EndChar

StartChar: uni01DA
Encoding: 474 474 527
Width: 591
GlyphClass: 2
Flags: MW
LayerCount: 2
Fore
SplineSet
174.8 768.5 m 1
 196.4 785.6 l 1
 234 762.2 260.4 745.1 290.8 711.8 c 1
 324.4 746.9 349.2 762.2 384.4 785.6 c 1
 406 768.5 l 1
 340.4 691.1 330 675.8 302.8 632.6 c 1
 276.4 632.6 l 1
 246 681.2 234 701.9 174.8 768.5 c 1
EndSplineSet
Refer: 386 252 N 1 0 0 1 0 0 2
Colour: ff00ff
EndChar

StartChar: uni01DB
Encoding: 475 475 528
Width: 719
GlyphClass: 2
Flags: MW
LayerCount: 2
Fore
SplineSet
305.7 892.8 m 1
 415 805.7 l 2
 425.1 797.6 426.6 790.8 426.6 784.6 c 0
 426.6 776.7 420.4 762.6 414.2 762.6 c 0
 408 762.6 401.3 764.8 384.2 770.5 c 2
 267.2 809.3 l 1
 261.8 821.6 l 1
 268.7 847.1 284.6 876.3 305.7 892.8 c 1
EndSplineSet
Refer: 363 -1 N 1 0 0 1 0 0 2
Colour: ff00ff
EndChar

StartChar: uni01DC
Encoding: 476 476 529
Width: 591
GlyphClass: 2
Flags: MW
LayerCount: 2
Fore
SplineSet
241.2 822.9 m 1
 296.4 711.3 l 2
 299.6 705 303.6 695.1 303.6 687.9 c 0
 303.6 679.8 291.6 673.5 284.4 673.5 c 0
 278 673.5 267.6 678 254 691.5 c 2
 157.2 786 l 1
 158.8 795.9 l 1
 165.2 804 196.4 824.7 225.2 824.7 c 0
 229.2 824.7 238 823.8 241.2 822.9 c 1
EndSplineSet
Refer: 386 252 N 1 0 0 1 0 0 2
Colour: ff00ff
EndChar

StartChar: uni01DF
Encoding: 479 479 532
Width: 516
GlyphClass: 2
Flags: MW
LayerCount: 2
Fore
SplineSet
121.8 666 m 1
 104 666 l 2
 93 666 89 680 89 689 c 0
 89 701 101 726 114 726 c 2
 390 726 l 2
 400 726 404 712 404 704 c 0
 404 691 392 666 378 666 c 2
 371.2 666 l 1
 397 657.7 416 633 416 603 c 0
 416 568 387 538 352 538 c 0
 315 538 286 568 286 603 c 0
 286 633 305 657.7 331.9 666 c 1
 161.1 666 l 1
 188 657.7 207 633 207 603 c 0
 207 568 178 538 141 538 c 0
 106 538 77 568 77 603 c 0
 77 633 96 657.7 121.8 666 c 1
EndSplineSet
Refer: 274 97 N 1 0 0 1 0 0 2
Colour: ff00ff
EndChar

StartChar: uni01E0
Encoding: 480 480 533
Width: 701
GlyphClass: 2
Flags: MW
LayerCount: 2
Fore
SplineSet
483 777 m 1
 567 777 l 2
 577 777 581 769 581 762 c 0
 581 750 570 733 558 733 c 2
 475 733 l 1
 483 777 l 1
256 733 m 1
 171 733 l 2
 162 733 159 741 159 748 c 0
 159 759 169 777 181 777 c 2
 265 777 l 1
 256 733 l 1
EndSplineSet
Refer: 595 550 N 1 0 0 1 0 0 2
Colour: ff80cc
EndChar

StartChar: uni01E4
Encoding: 484 484 537
Width: 753
GlyphClass: 2
Flags: MW
LayerCount: 2
Fore
SplineSet
677.8 203 m 1
 751 203 l 1
 741 164 l 1
 677.1 164 l 1
 677 155.5 677 146.5 677 137 c 0
 677 104.6 680.9 90.5 687 83 c 1
 687 80 l 1
 619.5 23.4 506.5 -10 390 -10 c 0
 307.7 -10 253.8 7.6 194 48 c 0
 107.8 106.3 52 204.8 52 307 c 0
 52 420 96.4 515.5 171 575 c 0
 240 630 305 658 405 658 c 0
 527 658 644 613 644 613 c 1
 646 610 l 1
 634.2 560.7 629.6 531 626 480 c 1
 596 479 l 1
 555 561 469.1 602 391 602 c 0
 256 602 213 488 213 327 c 0
 213 195 277 45 413 45 c 0
 467 45 505 51 539 83 c 1
 539 117 l 2
 539 133.4 538.9 149 538.7 164 c 1
 458 164 l 1
 468 203 l 1
 537.7 203 l 1
 536.3 240.1 533.7 273.7 529 307 c 1
 531 310 l 1
 531 310 579 307 613 307 c 0
 648 307 686 310 686 310 c 1
 687 307 l 1
 681.7 271.8 679 241.4 677.8 203 c 1
EndSplineSet
Colour: ff80cc
EndChar

StartChar: uni01E5
Encoding: 485 485 538
Width: 561
GlyphClass: 2
Flags: MW
LayerCount: 2
Fore
SplineSet
459 289 m 0
 459 195.9 374 141 258 141 c 0
 223.9 141 196.8 146 182.5 152 c 1
 171.5 135 171 123.1 171 107 c 0
 171 64 201 59 229 59 c 0
 234 59 234 60 248 61 c 0
 271 64 294 66 311 66 c 0
 403 66 530 46 530 -68 c 0
 530 -75.4 529.1 -82.8 527.5 -90 c 1
 565 -90 l 1
 565 -127 l 1
 512 -127 l 1
 493.7 -156.7 462.9 -182.6 426.5 -200.5 c 0
 366.1 -230.2 290.3 -238 225 -238 c 0
 136.8 -238 34.4 -211.6 32 -127 c 1
 -1 -127 l 1
 -1 -90 l 1
 35.3 -90 l 1
 38.5 -74.3 44.3 -58.6 54 -46 c 1
 78 -32 116.4 -17.6 138 -4 c 1
 82.5 4.5 59 32 59 74 c 0
 59 106.8 101.5 145 146 160 c 1
 148 165 l 1
 148 165 123.3 172.6 108.5 183 c 0
 82.8 201 54 229 54 285 c 0
 54 381 143 439 251 439 c 0
 272.5 439 305.4 436 323.3 430.4 c 1
 397.9 434.3 461.2 434.9 509 439 c 1
 512 436 l 1
 510 427 509 416 509 407 c 0
 509 398 510 389 512 380 c 1
 509 377 l 1
 474.2 379.4 437.7 385.1 407.9 385.6 c 1
 439 364.6 459 323.5 459 289 c 0
326 288 m 0
 326 363 315 399 255 399 c 0
 203 399 187 356 187 290 c 0
 187 217 197 181 258 181 c 0
 306 181 326 217 326 288 c 0
400 -90 m 1
 399.3 -21.8 331.7 -17 276 -17 c 0
 262.2 -17 235.5 -18 206 -18 c 0
 197 -18 189.4 -16.8 183 -16 c 1
 160.7 -39.1 153.1 -62.9 151.4 -90 c 1
 400 -90 l 1
392.1 -127 m 1
 153.9 -127 l 1
 167.2 -176.8 223.2 -193 253 -193 c 0
 320.7 -193 373 -167.6 392.1 -127 c 1
EndSplineSet
Colour: ff80cc
EndChar

StartChar: uni01EA
Encoding: 490 490 543
Width: 799
GlyphClass: 2
Flags: MW
LayerCount: 2
Fore
SplineSet
618.4 -157.4 m 1
 593.5 -185.5 554.2 -203.6 514 -203.6 c 0
 452.4 -203.6 406.2 -161.8 406.2 -104.7 c 0
 406.2 -72.9 436 -37.4 474.9 -3.6 c 1
 450.6 -7.8 424.9 -10 398 -10 c 0
 200 -10 52 122 52 310 c 0
 52 506 194 658 397 658 c 0
 610 658 747 527 747 329 c 0
 747 189.8 681.7 80.1 569.7 26.3 c 1
 529.4 -4.9 496.7 -40.6 496.7 -79.6 c 0
 496.7 -116.2 521.3 -134.6 561.3 -134.6 c 0
 577.5 -134.6 594.3 -131.3 606.7 -123.2 c 1
 615.5 -130.5 618.7 -140.2 618.7 -151.1 c 0
 618.7 -153.2 618.6 -155.3 618.4 -157.4 c 1
384 603 m 0
 288 603 213 537 213 327 c 0
 213 135 298 45 418 45 c 0
 532 45 586 131 586 310 c 0
 586 518 525 603 384 603 c 0
EndSplineSet
Colour: ff80cc
EndChar

StartChar: uni01EB
Encoding: 491 491 544
Width: 566
GlyphClass: 2
Flags: MW
LayerCount: 2
Fore
SplineSet
476.4 -157.4 m 1
 451.5 -185.5 412.2 -203.6 372 -203.6 c 0
 310.4 -203.6 264.2 -161.8 264.2 -104.7 c 0
 264.2 -74 291.8 -39.9 328.7 -7.2 c 1
 314.2 -9 298.9 -10 283 -10 c 0
 134 -10 41 72 41 205 c 0
 41 360 142 439 285 439 c 0
 454 439 525 340 525 214 c 0
 525 125.2 488.2 58.1 421.4 21.4 c 1
 384.1 -8.6 354.7 -42.6 354.7 -79.6 c 0
 354.7 -116.2 379.3 -134.6 419.3 -134.6 c 0
 435.5 -134.6 452.3 -131.3 464.7 -123.2 c 1
 473.5 -130.5 476.7 -140.2 476.7 -151.1 c 0
 476.7 -153.2 476.6 -155.3 476.4 -157.4 c 1
278 389 m 0
 192 389 183 315 183 228 c 0
 183 151 193 40 297 40 c 0
 342 40 383 72 383 187 c 0
 383 326 363 389 278 389 c 0
EndSplineSet
Colour: ff00ff
EndChar

StartChar: uni01F6
Encoding: 502 502 555
Width: 1115
GlyphClass: 2
Flags: MW
AnchorPoint: "above" 401 798 basechar 0
AnchorPoint: "top_punkt" 401 700 basechar 0
AnchorPoint: "below" 400 -107 basechar 0
AnchorPoint: "cedilla" 174 0 basechar 0
LayerCount: 2
Fore
SplineSet
103 445 m 2
 103 520 99 588 91 645 c 1
 93 648 l 1
 93 648 141 645 175 645 c 0
 210 645 258 648 258 648 c 1
 259 645 l 1
 251 592 247 520 247 445 c 2
 247 363 l 1
 551 363 l 1
 551 445 l 2
 551 520 547 588 539 645 c 1
 541 648 l 1
 541 648 589 645 623 645 c 0
 658 645 706 648 706 648 c 1
 707 645 l 1
 699 592 695 520 695 445 c 2
 695 188 l 2
 695 111 698 40 798 40 c 0
 843 40 904 72 904 187 c 2
 904 256 l 2
 904 331 900 382 892 436 c 1
 893 439 l 1
 893 439 938 436 973 436 c 0
 1007 436 1046 439 1046 439 c 1
 1048 436 l 1
 1040 379 1036 332 1036 256 c 2
 1036 214 l 2
 1036 75.8 937 -10 784 -10 c 0
 635 -10 551 32 551 165 c 2
 551 311 l 1
 247 311 l 1
 247 200 l 2
 247 125 251 57 259 0 c 1
 257 -3 l 1
 257 -3 209 0 175 0 c 0
 140 0 92 -3 92 -3 c 1
 91 0 l 1
 99 54 103 125 103 200 c 2
 103 445 l 2
EndSplineSet
EndChar

StartChar: uni01F7
Encoding: 503 503 556
Width: 587
GlyphClass: 2
Flags: MW
LayerCount: 2
Fore
SplineSet
218 516.8 m 1
 218 103 l 1
 326 196 407 304 407 426 c 0
 407 548 403 603 352 603 c 0
 317.3 603 270.3 570.7 218 516.8 c 1
223.6 589.7 m 1
 269.4 627.6 317.3 658 374 658 c 0
 510 658 558 566 558 456 c 0
 558 303.6 393.7 163.7 218 27.9 c 1
 218 8 l 2
 218 -68 222.3 -137.3 230 -180 c 1
 228 -183 l 1
 187.5 -186 110.1 -206 85 -216 c 1
 78.7 -216 74 -213 74 -206 c 0
 81.7 -144.7 86 -93 86 -17 c 2
 86 434 l 2
 86 510 81.7 579.3 74 622 c 1
 76 625 l 1
 116.5 628 193.9 648 219 658 c 1
 225.3 658 230 655 230 648 c 0
 227.5 627.9 225.4 608.9 223.6 589.7 c 1
EndSplineSet
EndChar

StartChar: Aringacute
Encoding: 506 506 559
Width: 701
GlyphClass: 2
Flags: MW
LayerCount: 2
Fore
SplineSet
361 789 m 0
 326 789 300 759 300 725 c 0
 300 694 326 661 361 661 c 0
 396 661 422 694 422 725 c 0
 422 735 419.8 744.6 415.8 753.1 c 1
 409.6 754.3 403.7 764.4 401.7 772.7 c 1
 390.9 782.8 376.7 789 361 789 c 0
254 725 m 0
 254 783 302 828 360 828 c 0
 383.8 828 406.2 820.6 424.2 807.7 c 1
 558 901 l 1
 585.4 882.3 606 849 615 820 c 1
 608 806.1 l 1
 459.7 763.1 l 1
 464.4 751.4 467 738.6 467 725 c 0
 467 686.8 445.1 652.7 412.1 635 c 1
 498.4 416 630.4 95.3 679 -3 c 1
 662 0 605 0 588 0 c 0
 571 0 524 0 507 -3 c 1
 501 18.7 479.3 93.7 432.5 219.7 c 1
 399.8 220.4 365.1 221 333 221 c 0
 297.3 221 238.3 220.1 200.3 219.2 c 1
 166.2 135.1 136.8 56.2 121 -3 c 1
 109 0 87 0 76 0 c 0
 65 0 32 0 20 -3 c 1
 118.3 212.2 213.8 419.7 307.4 635.4 c 1
 275.6 652.9 254 686.1 254 725 c 0
411.5 275.1 m 1
 387.3 338.5 358.7 412 323 494 c 1
 317.1 494 l 1
 223.6 275.9 l 1
 255 274.5 299.1 274 328 274 c 0
 351.7 274 383.1 274.5 411.5 275.1 c 1
EndSplineSet
Colour: ff00ff
EndChar

StartChar: aringacute
Encoding: 507 507 560
Width: 516
GlyphClass: 2
Flags: MW
LayerCount: 2
Fore
SplineSet
299 863.4 m 1
 301.4 864.3 307.8 865.2 311.8 865.2 c 0
 335.8 865.2 359 852.6 365.4 843.6 c 1
 373.4 822.9 l 1
 277.4 725.7 l 2
 266.2 714.9 251 711.3 243 711.3 c 0
 236.6 711.3 226.2 718.5 226.2 723.9 c 0
 226.2 729.3 227.8 737.4 232.6 745.5 c 2
 299 863.4 l 1
EndSplineSet
Refer: 1327 778 N 1 0 0 1 433 -71 2
Refer: 274 97 N 1 0 0 1 0 0 2
Colour: ff00ff
EndChar

StartChar: uni020B
Encoding: 523 523 576
Width: 312
GlyphClass: 2
Flags: MW
LayerCount: 2
Fore
SplineSet
259.4 506 m 1
 245 564.5 211.7 584 163.1 584 c 0
 115.9 584 77.6 561.5 67.7 506 c 1
 38 506 l 1
 42.5 609 99.2 660 163.1 660 c 0
 226.1 660 284.2 611.5 289.1 506 c 1
 259.4 506 l 1
EndSplineSet
Refer: 411 305 N 1 0 0 1 0 0 2
Colour: ff00ff
EndChar

StartChar: uni0228
Encoding: 552 552 597
Width: 594
GlyphClass: 2
Flags: MW
LayerCount: 2
Fore
SplineSet
263 -96 m 1
 257 -90 l 1
 304.3 0 l 1
 170 0 l 2
 135 0 85 -3 85 -3 c 1
 84 0 l 1
 92 54 96 125 96 200 c 2
 96 445 l 2
 96 520 92 588 84 645 c 1
 86 648 l 1
 86 648 136 645 170 645 c 2
 474 645 l 2
 495 645 518 646 534 648 c 1
 536 645 l 1
 534.8 631 534 618 534 610 c 0
 534 601 535 577 536 569 c 1
 534 565 l 1
 534 565 382 577 248 577 c 1
 241 553 240 462 240 445 c 2
 240 372 l 1
 358 372 418 377 477 382 c 1
 480 379 l 1
 478 370 477 351 477 342 c 0
 477 333 478 313 480 304 c 1
 477 301 l 1
 408 308 288 311 240 311 c 1
 240 200 l 2
 240 183 241 97 248 73 c 1
 382 73 544 95 544 95 c 1
 546 91 l 1
 545 83 544 46 544 36 c 0
 544 26 544.5 13.2 546 0 c 1
 544 -3 l 1
 528 -1 505 0 484 0 c 2
 339.1 0 l 1
 322 -41 l 1
 367.4 -50.1 414.9 -65.5 414.9 -120.1 c 0
 414.9 -170.3 364.1 -212 299.3 -212 c 0
 267.3 -212 251.3 -204 234 -193 c 1
 234 -183 237.3 -171 247.3 -161.5 c 1
 274.3 -171.5 285.3 -175.5 305.3 -175.5 c 0
 335.3 -175.5 352 -167 352 -140 c 0
 352 -102.4 299 -98 263 -96 c 1
EndSplineSet
Colour: ff00ff
EndChar

StartChar: uni0229
Encoding: 553 553 598
Width: 508
GlyphClass: 2
Flags: MW
LayerCount: 2
Fore
SplineSet
227 -101 m 1
 221 -95 l 1
 265.7 -10 l 1
 190.8 -10 132.2 6.5 98 42 c 0
 56.7 84.9 35 147 35 206 c 0
 35 288.9 68 349 116.5 389 c 0
 156.2 421.7 216 439 271 439 c 0
 425 439 460 339 460 214 c 1
 454 208 l 1
 454 208 368.5 210 268.5 210 c 2
 169 210 l 1
 169 164.1 180.2 129 202.2 105 c 0
 226 79.1 262.4 66 311 66 c 0
 353 66 401.5 69.5 448 107 c 1
 458 107 464 89 464 76 c 1
 418.6 23.5 361.3 -1.2 301.8 -8 c 1
 286 -46 l 1
 331.4 -55.1 378.9 -70.5 378.9 -125.1 c 0
 378.9 -175.3 328.1 -217 263.3 -217 c 0
 231.3 -217 215.3 -209 198 -198 c 1
 198 -188 201.3 -176 211.3 -166.5 c 1
 238.3 -176.5 249.3 -180.5 269.3 -180.5 c 0
 299.3 -180.5 316 -172 316 -145 c 0
 316 -107.4 263 -103 227 -101 c 1
173 255 m 1
 329 255 l 1
 329 342.5 304.9 389 264 389 c 0
 235.7 389 216.2 376.3 203.5 359 c 0
 188.7 338.8 176.5 304 173 255 c 1
EndSplineSet
Colour: ff00ff
EndChar

StartChar: uni022A
Encoding: 554 554 599
Width: 799
GlyphClass: 2
Flags: MW
AnchorPoint: "below" 381 -113 basechar 0
AnchorPoint: "cedilla" 381 0 basechar 0
LayerCount: 2
Fore
SplineSet
516.8 744 m 2
 283.9 744 l 2
 274.5 744 271.2 758 271.2 767 c 0
 271.2 779 281.3 804 292.4 804 c 2
 527 804 l 2
 535.5 804 538.9 790 538.9 782 c 0
 538.9 769 528.7 744 516.8 744 c 2
EndSplineSet
Refer: 357 -1 N 1 0 0 1 0 0 2
Colour: ff00ff
EndChar

StartChar: uni022C
Encoding: 556 556 601
Width: 799
GlyphClass: 2
Flags: MW
AnchorPoint: "below" 381 -113 basechar 0
AnchorPoint: "cedilla" 381 0 basechar 0
LayerCount: 2
Fore
SplineSet
531 776 m 1
 592 776 l 2
 602 776 605 768 605 761 c 0
 605 750 595 732 582 732 c 2
 522 732 l 1
 531 776 l 1
201 732 m 1
 139 732 l 2
 130 732 126 740 126 747 c 0
 126 758 136 776 148 776 c 2
 209 776 l 1
 201 732 l 1
429.2 764.9 m 0
 447 764.9 459.8 771.5 470.9 811.1 c 1
 498.1 801.2 l 1
 486.2 730.8 456.5 683.5 413.1 683.5 c 0
 377.3 683.5 346.9 729.7 312.8 729.7 c 0
 288.2 729.7 278 716.5 271.2 682.4 c 1
 243.1 690.1 l 1
 255.9 760.5 282.2 810 323 810 c 0
 365.2 810 388 764.9 429.2 764.9 c 0
EndSplineSet
Refer: 257 79 N 1 0 0 1 0 0 2
Colour: ff80cc
EndChar

StartChar: uni0230
Encoding: 560 560 605
Width: 799
GlyphClass: 2
Flags: MW
AnchorPoint: "below" 381 -113 basechar 0
AnchorPoint: "cedilla" 381 0 basechar 0
LayerCount: 2
Fore
SplineSet
527 788 m 1
 609 788 l 2
 618 788 622 780 622 773 c 0
 622 762 612 745 599 745 c 2
 518 745 l 1
 527 788 l 1
281 745 m 1
 196 745 l 2
 187 745 184 752 184 759 c 0
 184 770 194 788 206 788 c 2
 290 788 l 1
 281 745 l 1
EndSplineSet
Refer: 603 558 N 1 0 0 1 0 0 2
Colour: ff80cc
EndChar

StartChar: uni0250
Encoding: 592 592 609
Width: 558
GlyphClass: 2
Flags: MW
LayerCount: 2
Fore
SplineSet
115 349 m 2
 115 364.3 110 374.3 100 379 c 0
 92 383 76.7 385 54 385 c 1
 48.7 389.7 45.3 396.7 44 406 c 1
 72.7 428 112.3 439 163 439 c 0
 202.3 439 228.7 419.7 242 381 c 1
 244 381 l 1
 282.7 419.7 328.3 439 381 439 c 0
 418.3 439 450 429.7 476 411 c 0
 504 390.3 518 363.7 518 331 c 0
 518 261 466.7 213.7 364 189 c 1
 247 158 l 2
 243 156.7 241 152.7 241 146 c 0
 241 78 264 44 310 44 c 0
 356 44 397 70.3 433 123 c 1
 466 122 l 1
 486 47 l 1
 483 43 l 1
 442.3 7.7 381.7 -10 301 -10 c 0
 231.7 -10.7 181.7 2.7 151 30 c 0
 124.3 54 111 94.7 111 152 c 1
 115 349 l 2
321 228 m 2
 363 239.3 384 270.7 384 322 c 0
 384 336 379 349 369 361 c 0
 359 373 346.7 379 332 379 c 0
 305.3 379 280.7 367.7 258 345 c 0
 248 335 243 320 243 300 c 2
 241 207 l 1
 321 228 l 2
EndSplineSet
Comment: "Anfang{IPA Extensions}"
Colour: ff00ff
EndChar

StartChar: uni0251
Encoding: 593 593 610
Width: 594
GlyphClass: 2
Flags: MW
LayerCount: 2
Fore
SplineSet
383 38 m 1
 345 6 304.7 -10 262 -10 c 0
 194 -10 144.3 7 113 41 c 0
 73.7 83.7 54 139 54 207 c 0
 54 274.3 75.3 329.7 118 373 c 0
 161.3 417 217.7 439 287 439 c 0
 305.7 439 344.7 437 404 433 c 0
 443.3 430.3 483.3 430 524 432 c 1
 526 429 l 1
 518.7 388.3 515 323.7 515 235 c 2
 515 80 l 2
 515 64.7 520.3 54.7 531 50 c 0
 538.3 46 553.3 44 576 44 c 1
 581.3 39.3 584.7 32.3 586 23 c 1
 557.3 1 517.7 -10 467 -10 c 0
 427.7 -10 399.7 6 383 38 c 1
383 367 m 1
 359.7 381.7 327.3 389 286 389 c 0
 226 389 196 333.3 196 222 c 0
 196 106.7 232.3 49 305 49 c 0
 321.7 49 347.7 62.7 383 90 c 1
 383 367 l 1
EndSplineSet
Colour: ff0000
EndChar

StartChar: uni0252
Encoding: 594 594 611
Width: 630
GlyphClass: 2
Flags: MW
LayerCount: 2
Fore
SplineSet
247 391 m 1
 285 423 325.3 439 368 439 c 0
 436 439 485.7 422 517 388 c 0
 556.3 345.3 576 290 576 222 c 0
 576 154.7 554.7 99.3 512 56 c 0
 468.7 12 412.3 -10 343 -10 c 0
 324.3 -10 285.3 -8 226 -4 c 0
 186.7 -1.3 146.7 -1 106 -3 c 1
 104 0 l 1
 111.3 40.7 115 105.3 115 194 c 2
 115 349 l 2
 115 364.3 109.7 374.3 99 379 c 0
 91.7 383 76.7 385 54 385 c 1
 48.7 389.7 45.3 396.7 44 406 c 1
 72.7 428 112.3 439 163 439 c 0
 202.3 439 230.3 423 247 391 c 1
247 62 m 1
 270.3 47.3 302.7 40 344 40 c 0
 404 40 434 95.7 434 207 c 0
 434 322.3 397.7 380 325 380 c 0
 308.3 380 282.3 366.3 247 339 c 1
 247 62 l 1
EndSplineSet
Colour: ff00ff
EndChar

StartChar: uni0254
Encoding: 596 596 612
Width: 469
GlyphClass: 2
Flags: MW
LayerCount: 2
Fore
SplineSet
264 88 m 0
 280 114 288 151.7 288 201 c 0
 288 258.3 278 303 258 335 c 0
 235.3 371 206.3 389 171 389 c 0
 119.7 389 80.7 373 54 341 c 1
 38 346 l 1
 38 357.3 36.3 370.3 33 385 c 1
 75.7 421 130.7 439 198 439 c 0
 275.3 439 333.7 417.7 373 375 c 0
 409 335.7 427 286.3 427 227 c 0
 427 151.7 403.3 92.7 356 50 c 0
 312 10 254.7 -10 184 -10 c 0
 127.3 -10 77.7 1 35 23 c 1
 33 26 l 1
 57 123 l 1
 85 124 l 1
 107.7 68 137.7 40 175 40 c 0
 214.3 40 244 56 264 88 c 0
EndSplineSet
Colour: ff00ff
EndChar

StartChar: uni0258
Encoding: 600 600 613
Width: 500
GlyphClass: 2
Flags: MW
LayerCount: 2
Fore
SplineSet
58 129 m 1
 99.3 87 143.7 66 191 66 c 0
 235.7 66 269 75.3 291 94 c 0
 318.3 117.3 332 157.3 332 214 c 2
 332 230 l 1
 76 230 l 2
 56.7 230 47 242 47 266 c 0
 47 315.3 60.3 355.7 87 387 c 0
 119.7 425 169.7 444 237 444 c 0
 297 444 348.3 422.7 391 380 c 0
 437 334.7 460 275.3 460 202 c 0
 460 134.7 437.7 80.7 393 40 c 0
 356.3 6.7 302 -10 230 -10 c 0
 154.7 -10 92.3 26 43 98 c 1
 43 118.7 48 129 58 129 c 1
328 275 m 1
 327.3 305.7 317 335.7 297 365 c 0
 284.3 384.3 266.3 394 243 394 c 0
 197 394 174 361.3 174 296 c 0
 174 283.3 174.7 276.3 176 275 c 1
 328 275 l 1
EndSplineSet
Colour: ff0000
EndChar

StartChar: uni0259
Encoding: 601 601 614
Width: 500
GlyphClass: 2
Flags: MW
LayerCount: 2
Fore
SplineSet
43 336 m 1
 92.3 408 154.7 444 230 444 c 0
 302 444 356.3 427.3 393 394 c 0
 437.7 353.3 460 299.3 460 232 c 0
 460 158.7 437 99.3 391 54 c 0
 348.3 11.3 297 -10 237 -10 c 0
 169.7 -10 119.7 9 87 47 c 0
 60.3 78.3 47 118.7 47 168 c 0
 47 192 56.7 204 76 204 c 2
 332 204 l 1
 332 220 l 2
 332 276.7 318.3 316.7 291 340 c 0
 269 358.7 235.7 368 191 368 c 0
 143.7 368 99.3 347 58 305 c 1
 48 305 43 315.3 43 336 c 1
176 159 m 1
 174.7 157.7 174 150.7 174 138 c 0
 174 72.7 197 40 243 40 c 0
 266.3 40 284.3 49.7 297 69 c 0
 317 98.3 327.3 128.3 328 159 c 1
 176 159 l 1
EndSplineSet
Colour: ff00ff
EndChar

StartChar: uni025B
Encoding: 603 603 615
Width: 466
GlyphClass: 2
Flags: MW
LayerCount: 2
Fore
SplineSet
191 376 m 0
 171 366 161 350.7 161 330 c 0
 161 312 167 296 179 282 c 1
 197 264 218 255 242 255 c 2
 274 255 l 2
 286.7 255 293 249.3 293 238 c 2
 293 221 l 2
 293 213 286.7 209 274 209 c 2
 240 209 l 2
 215.3 209 195.7 200.7 181 184 c 1
 167.7 166.7 161 145.7 161 121 c 0
 161 85.7 173.7 62.3 199 51 c 0
 218.3 43 235 39 249 39 c 1
 262.3 37.7 277.3 42 294 52 c 0
 303.3 58 310.3 69.7 315 87 c 1
 317.7 103.7 327.7 117 345 127 c 0
 372.3 142.3 394.7 135.3 412 106 c 0
 419.3 92.7 417.7 76.7 407 58 c 0
 397 40 382.3 25.3 363 14 c 1
 327 -2 285.3 -10 238 -10 c 0
 168.7 -10 116.7 5.3 82 36 c 0
 54.7 60 41 89.3 41 124 c 0
 41 160 54 189 80 211 c 0
 90 219 101 225.3 113 230 c 0
 123 234.7 132.3 237.3 141 238 c 1
 84.3 253.3 56 284.7 56 332 c 0
 56 370.7 75.3 399.3 114 418 c 0
 144 432 180.3 439 223 439 c 0
 303.7 439 364.3 421.3 405 386 c 1
 408 382 l 1
 388 307 l 1
 355 306 l 1
 325 358.7 284 385 232 385 c 0
 220 385.7 206.3 382.7 191 376 c 0
EndSplineSet
Colour: ff00ff
EndChar

StartChar: uni025C
Encoding: 604 604 616
Width: 466
GlyphClass: 2
Flags: MW
LayerCount: 2
Fore
SplineSet
234 385 m 0
 182 385 141 358.7 111 306 c 1
 78 307 l 1
 58 382 l 1
 61 386 l 1
 101.7 421.3 162.3 439 243 439 c 0
 285.7 439 322 432 352 418 c 0
 390.7 399.3 410 370.7 410 332 c 0
 410 284.7 381.7 253.3 325 238 c 1
 333.7 237.3 343 234.7 353 230 c 0
 365 225.3 376 219 386 211 c 0
 412 189 425 160 425 124 c 0
 425 89.3 411.3 60 384 36 c 0
 349.3 5.3 297.3 -10 228 -10 c 0
 180.7 -10 139 -2 103 14 c 1
 83.7 25.3 69 40 59 58 c 0
 48.3 76.7 46.7 92.7 54 106 c 0
 71.3 135.3 93.7 142.3 121 127 c 0
 138.3 117 148.3 103.7 151 87 c 1
 155.7 69.7 162.7 58 172 52 c 0
 188.7 42 203.7 37.7 217 39 c 1
 231 39 247.7 43 267 51 c 0
 292.3 62.3 305 85.7 305 121 c 0
 305 145.7 298.3 166.7 285 184 c 1
 270.3 200.7 250.7 209 226 209 c 2
 192 209 l 2
 179.3 209 173 213 173 221 c 2
 173 238 l 2
 173 249.3 179.3 255 192 255 c 2
 224 255 l 2
 248 255 269 264 287 282 c 1
 299 296 305 312 305 330 c 0
 305 350.7 295 366 275 376 c 0
 259.7 382.7 246 385.7 234 385 c 0
EndSplineSet
Colour: ff0000
EndChar

StartChar: uni0265
Encoding: 613 613 617
Width: 596
GlyphClass: 2
Flags: MW
LayerCount: 2
Fore
SplineSet
510 -43 m 2
 510 -123.7 514 -186.3 522 -231 c 1
 520 -234 l 1
 470.7 -237.3 423 -248.3 377 -267 c 1
 371 -267 368 -263.7 368 -257 c 0
 374.7 -203.7 378 -141 378 -69 c 2
 378 -7 l 1
 382 80 l 1
 378 82 l 1
 331.3 22 274.3 -8 207 -8 c 0
 121 -8 78 41.3 78 140 c 2
 78 251 l 2
 78 329 74.7 389 68 431 c 1
 70 434 l 1
 88 432 108.3 431 131 431 c 0
 154.3 431 182.3 432 215 434 c 1
 216 431 l 1
 212 395.7 210 335.7 210 251 c 2
 210 162 l 2
 210 100 227.3 69 262 69 c 0
 298.7 69 337.3 95.7 378 149 c 1
 378 251 l 2
 378 325.7 376 385.7 372 431 c 1
 374 434 l 1
 396 432 418.3 431 441 431 c 0
 464.3 431 491 432 521 434 c 1
 522 431 l 1
 514 380.3 510 320.3 510 251 c 2
 510 -43 l 2
EndSplineSet
Colour: ff0000
EndChar

StartChar: uni026A
Encoding: 618 618 618
Width: 310
GlyphClass: 2
Flags: MW
AnchorPoint: "above" 157 645 basechar 0
AnchorPoint: "below" 139 -114 basechar 0
LayerCount: 2
Fore
SplineSet
156 0 m 0
 136.7 0 112 -1 82 -3 c 1
 81 -3 l 1
 76 1 l 1
 69 6 l 2
 63.7 8.7 60 10.7 58 12 c 1
 59 22 59 22 60 32 c 1
 70.7 35.3 79.3 43 86 55 c 1
 87 68 87 68 88 82 c 1
 89 82 l 1
 89.7 102.7 90 135 90 179 c 2
 90 234 l 2
 90 281.3 89 321 87 353 c 0
 87 359.7 86.7 366 86 372 c 1
 79.3 384 70.7 391.7 60 395 c 1
 59 405 59 405 58 415 c 1
 60 416.3 63.7 418.3 69 421 c 2
 76 426 l 1
 81 430 l 1
 83 430 l 1
 112.3 428 136.7 427 156 427 c 0
 175.3 427 199.7 428 229 430 c 1
 231 430 l 1
 236 426 l 1
 243 421 l 2
 248.3 418.3 252 416.3 254 415 c 1
 253 405 253 405 252 395 c 1
 241.3 391.7 232.7 384 226 372 c 1
 225.3 366 225 359.7 225 353 c 0
 223 321 222 281.3 222 234 c 2
 222 179 l 2
 222 135 222.3 102.7 223 82 c 1
 224 82 l 1
 225 68 225 68 226 55 c 1
 232.7 43 241.3 35.3 252 32 c 1
 253 22 253 22 254 12 c 1
 252 10.7 248.3 8.7 243 6 c 2
 236 1 l 1
 231 -3 l 1
 230 -3 l 1
 200 -1 175.3 0 156 0 c 0
EndSplineSet
Colour: ff0000
EndChar

StartChar: uni026F
Encoding: 623 623 619
Width: 892
GlyphClass: 2
Flags: MW
LayerCount: 2
Fore
SplineSet
668 82 m 1
 621.3 22 571.7 -8 519 -8 c 0
 477 -8 445.3 -1 424 13 c 0
 407.3 25 393.3 44.7 382 72 c 1
 331.3 18.7 278.3 -8 223 -8 c 0
 127.7 -8 80 45 80 151 c 2
 80 251 l 2
 80 314.3 76 374.3 68 431 c 1
 70 434 l 1
 96 432 120.3 431 143 431 c 0
 166.3 431 193 432 223 434 c 1
 224 431 l 1
 216 377 212 317 212 251 c 2
 212 158 l 2
 212 98.7 230.3 69 267 69 c 0
 301 69 337.3 90.3 376 133 c 1
 375.3 141 375 151 375 163 c 2
 375 251 l 2
 375 314.3 371 374.3 363 431 c 1
 365 434 l 1
 391 432 415.3 431 438 431 c 0
 461.3 431 488 432 518 434 c 1
 519 431 l 1
 511 377 507 317 507 251 c 2
 507 150 l 2
 507 118 512 96 522 84 c 0
 530.7 74 545.3 69 566 69 c 0
 592 69 627.3 96 672 150 c 1
 672 251 l 2
 672 323.7 668.7 383.7 662 431 c 1
 664 434 l 1
 690.7 432 715.3 431 738 431 c 0
 761.3 431 787 432 815 434 c 1
 816 431 l 1
 808 377 804 317 804 251 c 2
 804 196 l 2
 804 107.3 807.7 42.7 815 2 c 1
 813 -1 l 1
 755.7 1.7 712.3 0.7 683 -4 c 0
 678.3 -4 675.3 -0.7 674 6 c 0
 672.7 12.7 672 37 672 79 c 1
 668 82 l 1
EndSplineSet
Colour: ff00ff
EndChar

StartChar: uni0270
Encoding: 624 624 620
Width: 894
GlyphClass: 2
Flags: MW
LayerCount: 2
Fore
SplineSet
672 79 m 1
 668 82 l 1
 621.3 22 571.7 -8 519 -8 c 0
 477 -8 445.3 -1 424 13 c 0
 407.3 25 393.3 44.7 382 72 c 1
 331.3 18.7 278.3 -8 223 -8 c 0
 127.7 -8 80 45 80 151 c 2
 80 251 l 2
 80 314.3 76 374.3 68 431 c 1
 70 434 l 1
 96 432 120.3 431 143 431 c 0
 166.3 431 193 432 223 434 c 1
 224 431 l 1
 216 377 212 317 212 251 c 2
 212 158 l 2
 212 98.7 230.3 69 267 69 c 0
 301 69 337.3 90.3 376 133 c 1
 375.3 141 375 151 375 163 c 2
 375 251 l 2
 375 314.3 371 374.3 363 431 c 1
 365 434 l 1
 391 432 415.3 431 438 431 c 0
 461.3 431 488 432 518 434 c 1
 519 431 l 1
 511 377 507 317 507 251 c 2
 507 150 l 2
 507 118 512 96 522 84 c 0
 530.7 74 545.3 69 566 69 c 0
 592 69 627.3 96 672 150 c 1
 672 251 l 2
 672 323.7 668.7 383.7 662 431 c 1
 664 434 l 1
 690.7 432 715.3 431 738 431 c 0
 761.3 431 787 432 815 434 c 1
 816 431 l 1
 808 377 804 317 804 251 c 2
 804 196 l 2
 804 107.3 804.7 20.7 806 -64 c 1
 806 -144 810 -210.7 818 -264 c 1
 816 -267 l 1
 788 -265 762.7 -264 740 -264 c 0
 716.7 -264 691 -265 663 -267 c 1
 662 -264 l 1
 670 -213.3 674 -146.7 674 -64 c 1
 672 79 l 1
EndSplineSet
Colour: ff0000
EndChar

StartChar: uni0271
Encoding: 625 625 621
Width: 877
GlyphClass: 2
Flags: MW
LayerCount: 2
Fore
SplineSet
804 235 m 1
 803 29 l 2
 801.7 -51.7 785.7 -114 755 -158 c 0
 720.3 -207.3 668.7 -232 600 -232 c 0
 557.3 -232 531.3 -229.3 522 -224 c 1
 521 -221 l 1
 524.3 -209 526 -171.3 526 -108 c 1
 553 -101 l 1
 569 -129.7 590.3 -144 617 -144 c 0
 647 -144 665.7 -113.7 673 -53 c 0
 677.7 -20.3 678.3 36 675 116 c 1
 672 235 l 1
 672 273 l 2
 672 332.3 653.7 362 617 362 c 0
 583 362 546.7 340.7 508 298 c 1
 508.7 290 509 280 509 268 c 2
 509 180 l 2
 509 117.3 513 57.3 521 0 c 1
 519 -3 l 1
 493 -1 468.7 0 446 0 c 0
 422.7 0 396 -1 366 -3 c 1
 365 0 l 1
 373 54 377 114 377 180 c 2
 377 281 l 2
 377 313 372 335 362 347 c 0
 353.3 357 338.7 362 318 362 c 0
 292 362 256.7 335 212 281 c 1
 212 180 l 2
 212 107.3 215.3 47.3 222 0 c 1
 220 -3 l 1
 193.3 -1 168.7 0 146 0 c 0
 122.7 0 97 -1 69 -3 c 1
 68 0 l 1
 76 54 80 114 80 180 c 2
 80 235 l 2
 80 323.7 76.3 388.3 69 429 c 1
 71 432 l 1
 128.3 429.3 171.7 430.3 201 435 c 0
 205.7 435 208.7 431.7 210 425 c 0
 211.3 418.3 212 394 212 352 c 1
 216 349 l 1
 262.7 409 312.3 439 365 439 c 0
 407 439 438.7 432 460 418 c 0
 476.7 406 490.7 386.3 502 359 c 1
 552.7 412.3 605.7 439 661 439 c 0
 756.3 439 804 386 804 280 c 2
 804 235 l 1
EndSplineSet
Colour: ff0000
EndChar

StartChar: uni0272
Encoding: 626 626 622
Width: 635
GlyphClass: 2
Flags: MW
LayerCount: 2
Fore
SplineSet
116 235 m 1
 116 323.7 112.3 388.3 105 429 c 1
 107 432 l 1
 164.3 429.3 207.7 430.3 237 435 c 0
 241.7 435 244.7 431.7 246 425 c 0
 247.3 418.3 248 394 248 352 c 1
 252 349 l 1
 298.7 409 351 439 409 439 c 0
 501.7 439 548 389.7 548 291 c 2
 548 180 l 2
 548 106.7 551.7 46.7 559 0 c 1
 557 -3 l 1
 527.7 -1 501.7 0 479 0 c 0
 455.7 0 433.3 -1 412 -3 c 1
 410 0 l 1
 414 35.3 416 95.3 416 180 c 2
 416 269 l 2
 416 331 398.7 362 364 362 c 0
 327.3 362 288.7 335.3 248 282 c 1
 248 235 l 1
 247 29 l 2
 245.7 -51.7 229.7 -114 199 -158 c 0
 164.3 -207.3 112.7 -232 44 -232 c 0
 1.3 -232 -24.7 -229.3 -34 -224 c 1
 -35 -221 l 1
 -31.7 -209 -30 -171.3 -30 -108 c 1
 -3 -101 l 1
 13 -129.7 34.3 -144 61 -144 c 0
 91 -144 109.7 -113.7 117 -53 c 0
 121.7 -20.3 122.3 36 119 116 c 1
 116 235 l 1
EndSplineSet
Colour: ff0000
EndChar

StartChar: uni0273
Encoding: 627 627 623
Width: 627
GlyphClass: 2
Flags: MW
LayerCount: 2
Fore
SplineSet
379 235 m 1
 379 269 l 2
 379 331 361.7 362 327 362 c 0
 290.3 362 251.7 335.3 211 282 c 1
 211 180 l 2
 211 105.3 213 45.3 217 0 c 1
 214 -3 l 1
 195.3 -1 174.7 0 152 0 c 0
 128.7 0 101.3 -1 70 -3 c 1
 68 0 l 1
 75.3 46 79 106 79 180 c 2
 79 235 l 2
 79 323.7 75.3 388.3 68 429 c 1
 70 432 l 1
 127.3 429.3 170.7 430.3 200 435 c 0
 204.7 435 207.7 431.7 209 425 c 0
 210.3 418.3 211 394 211 352 c 1
 215 349 l 1
 261.7 409 314 439 372 439 c 0
 464.7 439 511 389.7 511 291 c 2
 511 235 l 1
 508 116 l 1
 504.7 36 505.3 -20.3 510 -53 c 0
 517.3 -113.7 536 -144 566 -144 c 0
 592.7 -144 614 -129.7 630 -101 c 1
 657 -108 l 1
 657 -171.3 658.7 -209 662 -221 c 1
 661 -224 l 1
 651.7 -229.3 625.7 -232 583 -232 c 0
 514.3 -232 462.7 -207.3 428 -158 c 0
 397.3 -114 381.3 -51.7 380 29 c 2
 379 235 l 1
EndSplineSet
Colour: ff0000
EndChar

StartChar: uni0279
Encoding: 633 633 624
Width: 421
GlyphClass: 2
Flags: MW
LayerCount: 2
Fore
SplineSet
196 82 m 1
 156 22 115.7 -8 75 -8 c 0
 57 -8 40 -5.7 24 -1 c 1
 20 3 l 1
 40 106 l 1
 58 108 l 1
 74 95.3 93.3 89 116 89 c 0
 132 89 148 94 164 104 c 0
 188 120 200 144.7 200 178 c 2
 200 251 l 2
 200 323.7 196.7 383.7 190 431 c 1
 192 434 l 1
 224 432 251.3 431 274 431 c 0
 297.3 431 319.7 432 341 434 c 1
 342 431 l 1
 335.3 386.3 332 326.3 332 251 c 2
 332 196 l 2
 332 107.3 335.7 42.7 343 2 c 1
 341 -1 l 1
 283.7 1.7 240.3 0.7 211 -4 c 0
 206.3 -4 203.3 -0.7 202 6 c 0
 200.7 12.7 200 37 200 79 c 1
 196 82 l 1
EndSplineSet
Colour: ff00ff
EndChar

StartChar: uni027A
Encoding: 634 634 625
Width: 421
GlyphClass: 2
Flags: MW
LayerCount: 2
Fore
SplineSet
332 196 m 2
 332 107.3 335.7 42.7 343 2 c 1
 341 -1 l 1
 283.7 1.7 240.3 0.7 211 -4 c 0
 206.3 -4 203.3 -0.7 202 6 c 0
 200.7 12.7 200 37 200 79 c 1
 196 82 l 1
 156 22 115.7 -8 75 -8 c 0
 57 -8 40 -5.7 24 -1 c 1
 20 3 l 1
 40 106 l 1
 58 108 l 1
 74 95.3 93.3 89 116 89 c 0
 132 89 148 94 164 104 c 0
 188 120 200 144.7 200 178 c 2
 200 473 l 2
 200 553 196 619.7 188 673 c 1
 190 676 l 1
 218 674 243.3 673 266 673 c 0
 289.3 673 315 674 343 676 c 1
 344 673 l 1
 336 622.3 332 555.7 332 473 c 2
 332 196 l 2
EndSplineSet
Colour: ff00ff
EndChar

StartChar: uni027C
Encoding: 636 636 626
Width: 421
GlyphClass: 2
Flags: MW
LayerCount: 2
Fore
SplineSet
89 235 m 2
 89 323.7 85.3 388.3 78 429 c 1
 80 432 l 1
 137.3 429.3 180.7 430.3 210 435 c 0
 214.7 435 217.7 431.7 219 425 c 0
 220.3 418.3 221 394 221 352 c 1
 225 349 l 1
 265 409 305.3 439 346 439 c 0
 364 439 381 436.7 397 432 c 1
 401 428 l 1
 381 325 l 1
 363 323 l 1
 347 335.7 327.7 342 305 342 c 0
 289 342 273 337 257 327 c 0
 233 311 221 286.3 221 253 c 2
 221 -42 l 2
 221 -122 225 -188.7 233 -242 c 1
 231 -245 l 1
 203 -243 177.7 -242 155 -242 c 0
 131.7 -242 106 -243 78 -245 c 1
 77 -242 l 1
 85 -191.3 89 -124.7 89 -42 c 2
 89 235 l 2
EndSplineSet
Colour: ff0000
EndChar

StartChar: uni0283
Encoding: 643 643 627
Width: 364
GlyphClass: 2
Flags: MW
LayerCount: 2
Fore
SplineSet
248 231 m 1
 247 29 l 2
 245.7 -51.7 229.7 -114 199 -158 c 0
 164.3 -207.3 112.7 -232 44 -232 c 0
 1.3 -232 -24.7 -229.3 -34 -224 c 1
 -35 -221 l 1
 -31.7 -209 -30 -171.3 -30 -108 c 1
 -3 -101 l 1
 13 -129.7 34.3 -144 61 -144 c 0
 91 -144 109.7 -113.7 117 -53 c 0
 121.7 -20.3 122.3 36 119 116 c 1
 116 231 l 1
 116 235 l 1
 117 437 l 2
 118.3 517.7 134.3 580 165 624 c 0
 199.7 673.3 251.3 698 320 698 c 0
 362.7 698 388.7 695.3 398 690 c 1
 399 687 l 1
 395.7 675 394 637.3 394 574 c 1
 367 567 l 1
 351 595.7 329.7 610 303 610 c 0
 273 610 254.3 579.7 247 519 c 0
 242.3 486.3 241.7 430 245 350 c 1
 248 235 l 1
 248 231 l 1
EndSplineSet
Colour: ff0000
EndChar

StartChar: uni0285
Encoding: 645 645 628
Width: 364
GlyphClass: 2
Flags: MW
LayerCount: 2
Fore
SplineSet
248 235 m 1
 245 116 l 1
 241.7 36 242.3 -20.3 247 -53 c 0
 254.3 -113.7 273 -144 303 -144 c 0
 329.7 -144 351 -129.7 367 -101 c 1
 394 -108 l 1
 394 -171.3 395.7 -209 399 -221 c 1
 398 -224 l 1
 388.7 -229.3 362.7 -232 320 -232 c 0
 251.3 -232 199.7 -207.3 165 -158 c 0
 134.3 -114 118.3 -51.7 117 29 c 2
 116 235 l 1
 116 370 l 2
 115.3 430 97 460.3 61 461 c 0
 34.3 461 13 446.7 -3 418 c 1
 -30 425 l 1
 -30 488.3 -31.7 526 -35 538 c 1
 -34 541 l 1
 -24.7 546.3 1.3 549 44 549 c 0
 112.7 549 164.3 524.3 199 475 c 0
 229.7 431 245.7 368.7 247 288 c 2
 248 235 l 1
EndSplineSet
Colour: ff0000
EndChar

StartChar: uni0287
Encoding: 647 647 629
Width: 388
GlyphClass: 2
Flags: MW
LayerCount: 2
Fore
SplineSet
330 50 m 2
 338.7 50 343 44.7 343 34 c 0
 343 26.7 340.7 19.3 336 12 c 0
 331.3 4 326.7 0 322 0 c 2
 264 0 l 1
 264 -39.3 266.3 -73 271 -101 c 1
 269 -104 l 1
 242.3 -110 199 -125 139 -149 c 1
 133 -149 130 -145.7 130 -139 c 0
 133.3 -90.3 135 -44 135 0 c 1
 28 0 l 2
 22.7 0 20 2 20 6 c 2
 20 37 l 2
 20 45.7 28 50 44 50 c 2
 135 50 l 1
 137 157 l 2
 137.7 193.7 138 240.7 138 298 c 0
 138 349.3 125.7 375 101 375 c 0
 78.3 375 59 371 43 363 c 1
 31.7 370.3 26 384 26 404 c 1
 64.7 427.3 113.7 439 173 439 c 0
 203 439 227.3 428.7 246 408 c 0
 262 389.3 270 367 270 341 c 0
 270 305.7 269 248 267 168 c 2
 264 50 l 1
 330 50 l 2
EndSplineSet
Colour: ff00ff
EndChar

StartChar: uni028C
Encoding: 652 652 630
Width: 540
GlyphClass: 2
Flags: MW
LayerCount: 2
Fore
SplineSet
520 -1 m 1
 509.3 1 480.3 2 433 2 c 0
 392.3 2 367.7 1 359 -1 c 1
 315.7 136.3 277.7 243.7 245 321 c 1
 242 321 l 1
 220.7 274.3 180 167 120 -1 c 1
 114 1 99.7 2 77 2 c 0
 45 2 26 1 20 -1 c 1
 104.7 180.3 169.3 325.3 214 434 c 1
 220 432 237.3 431 266 431 c 0
 309.3 431 334.3 432 341 434 c 1
 409 256 468.7 111 520 -1 c 1
EndSplineSet
Colour: ff00ff
EndChar

StartChar: uni028D
Encoding: 653 653 631
Width: 791
GlyphClass: 2
Flags: MW
LayerCount: 2
Fore
SplineSet
773 -1 m 1
 763.7 1 734.3 2 685 2 c 0
 650.3 2 629 1 621 -1 c 1
 569.7 177 534.3 291 515 341 c 1
 505 341 l 1
 480.3 283 453 209 423 119 c 1
 473 -2 l 1
 463.7 0 436 1 390 1 c 0
 352 1 329 0 321 -2 c 1
 265 191.3 233 298.7 225 320 c 1
 218 320 l 1
 209.3 298.7 173.7 191.3 111 -2 c 1
 105.7 0 92 1 70 1 c 0
 40.7 1 23.3 0 18 -2 c 1
 100 194 158.3 339 193 433 c 1
 198.3 431 214 430 240 430 c 0
 275.3 430 296 431 302 433 c 1
 324.7 367.7 354 290.3 390 201 c 1
 424.7 283 454 360.7 478 434 c 1
 483.3 432 504 431 540 431 c 0
 574 431 594 432 600 434 c 1
 616 388 673.7 243 773 -1 c 1
EndSplineSet
Colour: ff00ff
EndChar

StartChar: uni028E
Encoding: 654 654 632
Width: 555
GlyphClass: 2
Flags: MW
LayerCount: 2
Fore
SplineSet
439 1 m 0
 405.7 1 384.7 0 376 -2 c 1
 350.7 76 311.3 178.3 258 305 c 1
 249 306 l 1
 210.3 219.3 172 116.7 134 -2 c 1
 127.3 0 106.3 1 71 1 c 0
 49 1 34.7 0 28 -2 c 1
 196 339.3 296 562.3 328 667 c 1
 339.3 663.7 355.7 662 377 662 c 0
 408.3 662 429.7 663.7 441 667 c 1
 421 633.7 387 561 339 449 c 1
 342 442 l 1
 391.3 310.7 453 162.7 527 -2 c 1
 517.7 0 488.3 1 439 1 c 0
EndSplineSet
Colour: ff00ff
EndChar

StartChar: uni028F
Encoding: 655 655 633
Width: 483
GlyphClass: 2
Flags: MW
LayerCount: 2
Fore
SplineSet
311 -3 m 1
 300.3 -1 276.7 0 240 0 c 0
 204.7 0 181 -1 169 -3 c 1
 172.3 25 174 88 174 186 c 1
 100 302.7 46 384.7 12 432 c 1
 25.3 430 41 429 59 429 c 0
 115.7 429 150 430 162 432 c 1
 180 399.3 214.7 341.7 266 259 c 1
 379 432 l 1
 388.3 430 407 429 435 429 c 0
 450.3 429 462.3 430 471 432 c 1
 379.7 319.3 324.3 248.3 305 219 c 1
 305 107 307 33 311 -3 c 1
EndSplineSet
Colour: ff0000
EndChar

StartChar: uni0292
Encoding: 658 658 634
Width: 453
GlyphClass: 2
Flags: MW
LayerCount: 2
Fore
SplineSet
39 74 m 1
 240 370 l 1
 165.3 368.7 94.7 365 28 359 c 1
 26 362 l 1
 27.3 372.7 28 384.3 28 397 c 2
 26 429 l 1
 28 432 l 1
 43.3 430 62 429 84 429 c 2
 336 429 l 2
 348 429 364.7 430 386 432 c 2
 417 435 l 2
 420.3 435 422 433 422 429 c 1
 417.3 423.7 407.3 409.7 392 387 c 2
 237 158 l 1
 283.7 156.7 324.3 142.7 359 116 c 1
 401 82 422 38 422 -16 c 0
 422 -79.3 399.7 -131.7 355 -173 c 0
 312.3 -212.3 260 -232 198 -232 c 0
 105.3 -232 41.3 -217 6 -187 c 1
 3 -182 l 1
 24 -103 l 1
 58 -102 l 1
 88 -156 128.7 -183 180 -183 c 0
 206 -183 228.3 -172 247 -150 c 0
 269 -124.7 280 -89.3 280 -44 c 0
 280 22 265.3 65.3 236 86 c 0
 217.3 98.7 196.7 105 174 105 c 0
 136.7 105 101.7 91.3 69 64 c 1
 39 74 l 1
EndSplineSet
Colour: ff0000
EndChar

StartChar: uni029E
Encoding: 670 670 635
Width: 591
GlyphClass: 2
Flags: MW
LayerCount: 2
Fore
SplineSet
510 -43 m 2
 510 -123.7 514 -186.3 522 -231 c 1
 520 -234 l 1
 470.7 -237.3 423 -248.3 377 -267 c 1
 369.7 -267 366 -263.7 366 -257 c 0
 374 -193 378 -130.3 378 -69 c 2
 378 190 l 1
 359.3 188 344.7 183 334 175 c 0
 283.3 135.7 231.7 78 179 2 c 1
 92.3 2 42.7 1 30 -1 c 1
 28 2 l 1
 38.7 11.3 101 75 215 193 c 1
 134.3 290.3 65 369.7 7 431 c 1
 9 434 l 1
 19 432 53.7 431 113 431 c 0
 149.7 431 176.3 432 193 434 c 1
 267.7 329.3 319.3 262.3 348 233 c 0
 354 227.7 364 224.7 378 224 c 1
 378 231 l 2
 378 311 374 377.7 366 431 c 1
 368 434 l 1
 396 432 421.3 431 444 431 c 0
 467.3 431 493 432 521 434 c 1
 522 431 l 1
 514 380.3 510 313.7 510 231 c 2
 510 -43 l 2
EndSplineSet
Colour: ff0000
EndChar

StartChar: uni02BB
Encoding: 699 699 636
Width: 168
GlyphClass: 2
Flags: MW
LayerCount: 2
Fore
SplineSet
134 531 m 1
 134 526 l 1
 124 496 107 478 72 464 c 1
 67 464 l 1
 26 479 -6 509 -6 584 c 0
 -6 665 63 726 132 739 c 1
 139 733 141 713 137 701 c 1
 77 685 49 639 49 615 c 0
 49 587 57 584 72 584 c 1
 108 577 125 569 134 531 c 1
EndSplineSet
Colour: ff00ff
EndChar

StartChar: uni02BC
Encoding: 700 700 637
Width: 175
GlyphClass: 2
Flags: MW
LayerCount: 2
Fore
SplineSet
34 592 m 1
 34 597 l 1
 44 627 61 645 96 659 c 1
 101 659 l 1
 142 644 174 614 174 539 c 0
 174 458 105 397 36 384 c 1
 29 390 27 410 31 422 c 1
 91 438 119 484 119 508 c 0
 119 536 111 539 96 539 c 1
 60 546 43 554 34 592 c 1
EndSplineSet
Colour: ff00ff
EndChar

StartChar: uni02D0
Encoding: 720 720 643
Width: 264
GlyphClass: 2
Flags: MW
LayerCount: 2
Fore
SplineSet
120 148 m 1
 206 0 l 1
 36 0 l 1
 120 148 l 1
EndSplineSet
Refer: 644 721 N 1 0 0 1 0 0 2
Colour: ff00ff
EndChar

StartChar: uni02D1
Encoding: 721 721 644
Width: 264
GlyphClass: 2
Flags: MW
LayerCount: 2
Fore
SplineSet
206 435 m 1
 120 287 l 1
 36 435 l 1
 206 435 l 1
EndSplineSet
Colour: ff00ff
EndChar

StartChar: gravecomb
Encoding: 768 768 651
Width: 0
GlyphClass: 4
Flags: MW
AnchorPoint: "above" -127 713 mark 0
LayerCount: 2
Fore
SplineSet
-136 711 m 1
 -67 587 l 2
 -63 580 -58 569 -58 561 c 0
 -58 552 -73 545 -82 545 c 0
 -90 545 -103 550 -120 565 c 2
 -241 670 l 1
 -239 681 l 1
 -231 690 -192 713 -156 713 c 0
 -151 713 -140 712 -136 711 c 1
EndSplineSet
EndChar

StartChar: acutecomb
Encoding: 769 769 652
Width: 0
GlyphClass: 4
Flags: MW
AnchorPoint: "above" -190 676 mark 0
LayerCount: 2
Fore
SplineSet
-160 676 m 1
 -157 677 -149 678 -144 678 c 0
 -114 678 -85 664 -77 654 c 1
 -67 631 l 1
 -187 523 l 2
 -201 511 -220 507 -230 507 c 0
 -238 507 -251 515 -251 521 c 0
 -251 527 -249 536 -243 545 c 2
 -160 676 l 1
EndSplineSet
EndChar

StartChar: uni0302
Encoding: 770 770 653
Width: 0
GlyphClass: 4
Flags: MW
AnchorPoint: "above" -177 661 mark 0
LayerCount: 2
Fore
SplineSet
-33 522 m 1
 -60 498 l 1
 -108 521 -140 548 -178 585 c 1
 -220 546 -251.5 520 -295 498 c 1
 -322 522 l 1
 -275.5 569 -227 629 -194 678 c 1
 -160 678 l 1
 -122.5 623 -81.5 570.5 -33 522 c 1
EndSplineSet
EndChar

StartChar: tildecomb
Encoding: 771 771 654
Width: 0
GlyphClass: 4
Flags: MW
AnchorPoint: "top_punkt" -133 601 mark 0
LayerCount: 2
Fore
SplineSet
-68 639 m 0
 -47 639 -32 645 -19 681 c 1
 13 672 l 1
 -1 608 -36 565 -87 565 c 0
 -129.1 565 -164.9 607 -205 607 c 0
 -234 607 -246 595 -254 564 c 1
 -287 571 l 1
 -272 635 -241 680 -193 680 c 0
 -143.3 680 -116.5 639 -68 639 c 0
EndSplineSet
EndChar

StartChar: uni0307
Encoding: 775 775 655
Width: 0
GlyphClass: 4
Flags: MW
AnchorPoint: "above" -162 593 mark 0
LayerCount: 2
Fore
SplineSet
-232 593 m 0
 -232 631 -201 662 -161 662 c 0
 -121 662 -90 631 -90 593 c 0
 -90 555 -121 524 -161 524 c 0
 -201 524 -232 555 -232 593 c 0
EndSplineSet
EndChar

StartChar: uni0308
Encoding: 776 776 656
Width: 0
GlyphClass: 4
Flags: MW
AnchorPoint: "top_punkt" -211 557 mark 0
LayerCount: 2
Fore
SplineSet
-159 603 m 0
 -159 640 -130 669 -93 669 c 0
 -58 669 -29 640 -29 603 c 0
 -29 568 -58 538 -93 538 c 0
 -130 538 -159 568 -159 603 c 0
-368 603 m 0
 -368 640 -339 669 -304 669 c 0
 -267 669 -238 640 -238 603 c 0
 -238 568 -267 538 -304 538 c 0
 -339 538 -368 568 -368 603 c 0
EndSplineSet
Colour: ff00ff
EndChar

